<?xml version="1.0" standalone="no"?>
<!DOCTYPE svg PUBLIC "-//W3C//DTD SVG 1.1//EN" "http://www.w3.org/Graphics/SVG/1.1/DTD/svg11.dtd" >
<svg xmlns="http://www.w3.org/2000/svg" xmlns:xlink="http://www.w3.org/1999/xlink" version="1.1">
<metadata>
Copyright (c) 2019 by Daimler AG. All rights reserved.
</metadata>
<defs>
<font id="Font" horiz-adv-x="440" >
  <font-face 
    font-family="Font"
    font-weight="400"
    font-stretch="condensed"
    units-per-em="1000"
    panose-1="2 11 8 4 0 0 0 0 0 0"
    ascent="800"
    descent="-200"
    x-height="478"
    cap-height="668"
    bbox="-605 -189 942 987"
    underline-thickness="40"
    underline-position="-160"
    unicode-range="U+000D-FEFF"
  />
<missing-glyph horiz-adv-x="533" 
d="M457 795v-923l-8 -8h-365l-8 8v923l8 8h365zM92 787v-907h349v907h-349z" />
    <glyph glyph-name=".notdef" horiz-adv-x="533" 
d="M457 795v-923l-8 -8h-365l-8 8v923l8 8h365zM92 787v-907h349v907h-349z" />
    <glyph glyph-name="glyph1" horiz-adv-x="0" 
 />
    <glyph glyph-name="uni000D" unicode="&#xd;" horiz-adv-x="184" 
 />
    <glyph glyph-name="space" unicode=" " horiz-adv-x="184" 
 />
    <glyph glyph-name="exclam" unicode="!" horiz-adv-x="214" 
d="M75.5 664.5q11.5 13.5 31.5 13.5t31.5 -13.5t10.5 -36.5l-26 -436h-32l-26 436q-1 23 10.5 36.5zM67.5 6q-15.5 16 -15.5 40t15.5 40t39.5 16t39 -16t15 -40t-15 -40t-39 -16t-39.5 16z" />
    <glyph glyph-name="quotedbl" unicode="&#x22;" horiz-adv-x="283" 
d="M106 666q11 -12 11 -33q0 -10 -1 -15l-29 -186h-24l-32 186q-1 5 -1 14q0 22 11.5 34t32.5 12t32 -12zM241 666q11 -12 11 -33q0 -10 -1 -15l-29 -186h-24l-32 186q-1 5 -1 14q0 22 11.5 34t32.5 12t32 -12z" />
    <glyph glyph-name="numbersign" unicode="#" horiz-adv-x="433" 
d="M322 433l-19 -184h89v-34h-93l-22 -215h-36l22 215h-119l-22 -215h-36l22 215h-82v34h86l19 184h-90v34h93l21 201h36l-21 -201h119l21 201h36l-21 -201h82v-34h-85zM286 433h-119l-19 -184h119z" />
    <glyph glyph-name="dollar" unicode="$" 
d="M348.5 60.5q-42.5 -50.5 -108.5 -58.5v-92h-37v90q-49 3 -90 19.5t-63 36.5v161h23q9 -89 39.5 -134t90.5 -49v278l-40 24q-55 33 -81.5 70.5t-26.5 98.5q0 48 21 84.5t55 56.5t72 22v81h37v-83q41 -5 73 -21.5t51 -33.5v-136h-22q-7 67 -33.5 107t-68.5 49v-253l44 -26
q107 -63 107 -174q0 -67 -42.5 -117.5zM134.5 455q21.5 -28 68.5 -55v234q-43 -4 -66.5 -32t-23.5 -76q0 -43 21.5 -71zM306.5 71q22.5 28 22.5 75q0 50 -21.5 83t-67.5 61v-254q44 7 66.5 35z" />
    <glyph glyph-name="percent" unicode="%" horiz-adv-x="631" 
d="M474 668h44l-360 -668h-43zM86 335.5q-28 21.5 -45 62.5t-17 98t17 98t45 62.5t63 21.5t63 -21.5t45 -62.5t17 -98t-17 -98t-45 -62.5t-63 -21.5t-63 21.5zM197 379q17 38 17 117t-17 117t-48 38t-48 -38t-17 -117t17 -117t48 -38t48 38zM419 11.5q-28 21.5 -45 62.5
t-17 98t17 98t45 62.5t63 21.5t63 -21.5t45 -62.5t17 -98t-17 -98t-45 -62.5t-63 -21.5t-63 21.5zM530 55q17 38 17 117t-17 117t-48 38t-48 -38t-17 -117t17 -117t48 -38t48 38z" />
    <glyph glyph-name="ampersand" unicode="&#x26;" horiz-adv-x="516" 
d="M437.5 49.5q12.5 -13.5 24.5 -18t34 -7.5v-24h-116l-36 61q-57 -71 -141 -71q-49 0 -86 22t-57 59.5t-20 82.5q0 60 35 111.5t94 91.5l-13 22q-32 54 -46.5 88t-14.5 70q0 40 18.5 72t50 50.5t70.5 18.5q52 0 88 -37t36 -99q0 -54 -29 -95.5t-85 -84.5l125 -206
q13 33 20.5 69t7.5 65q0 27 -13 37t-40 13v24h150v-24q-32 -3 -46 -14.5t-17 -45.5q-7 -86 -42 -158l19 -31q17 -28 29.5 -41.5zM180.5 620.5q-19.5 -22.5 -19.5 -64.5q0 -36 13.5 -69t39.5 -75l14 -23q39 30 54.5 70.5t15.5 82.5q0 51 -19.5 76t-47.5 25q-31 0 -50.5 -22.5
zM327 90l-142 240q-39 -37 -55.5 -80t-16.5 -86q0 -63 30 -98t80 -35q64 0 104 59z" />
    <glyph glyph-name="quotesingle" unicode="'" horiz-adv-x="148" 
d="M106 666q11 -12 11 -33q0 -10 -1 -15l-29 -186h-24l-32 186q-1 5 -1 14q0 22 11.5 34t32.5 12t32 -12z" />
    <glyph glyph-name="parenleft" unicode="(" horiz-adv-x="245" 
d="M83 517q43 107 134 204l20 -15q-62 -81 -93 -193.5t-31 -246.5t30.5 -246t93.5 -194l-20 -15q-92 98 -134.5 204.5t-42.5 250.5t43 251z" />
    <glyph glyph-name="parenright" unicode=")" horiz-adv-x="245" 
d="M162.5 15.5q-42.5 -106.5 -134.5 -204.5l-20 15q63 82 93.5 194t30.5 246t-31 246.5t-93 193.5l20 15q91 -97 134 -204t43 -251t-42.5 -250.5z" />
    <glyph glyph-name="asterisk" unicode="*" horiz-adv-x="336" 
d="M128 430.5q-15 -21.5 -30 -21.5q-11 0 -19 7t-8 20q0 14 16 32t65 58q-50 3 -76 8.5t-35.5 13.5t-9.5 21q0 12 7 19t18 7q13 0 32 -9t70 -40q-18 89 -18 99q0 14 7 23.5t21 9.5t21 -9.5t7 -23.5q0 -10 -18 -99q51 31 70 40t32 9q11 0 18 -7t7 -19q0 -13 -9.5 -21
t-35.5 -13.5t-76 -8.5q49 -40 65 -58t16 -32q0 -13 -8 -20t-19 -7q-15 0 -30 21t-40 84q-25 -62 -40 -83.5z" />
    <glyph glyph-name="plus" unicode="+" 
d="M393 280h-154v-174h-38v174h-154v36h154v172h38v-172h154v-36z" />
    <glyph glyph-name="comma" unicode="," horiz-adv-x="186" 
d="M137 76.5q22 -24.5 22 -77.5q0 -38 -17 -71.5t-41.5 -55.5t-44.5 -31l-13 25q33 15 57 50t24 74q0 9 -1 14q-14 -14 -37 -14q-25 0 -40 15.5t-15 39.5t15.5 40t39.5 16q29 0 51 -24.5z" />
    <glyph glyph-name="hyphen" unicode="-" horiz-adv-x="305" 
d="M253 298v-40h-201v40h201z" />
    <glyph glyph-name="period" unicode="." horiz-adv-x="176" 
d="M48.5 6q-15.5 16 -15.5 40t15.5 40t39.5 16t39 -16t15 -40t-15 -40t-39 -16t-39.5 16z" />
    <glyph glyph-name="slash" unicode="/" horiz-adv-x="315" 
d="M297 668l-242 -763h-38l242 763h38z" />
    <glyph glyph-name="zero" unicode="0" horiz-adv-x="462" 
d="M322.5 638q41.5 -40 66.5 -118t25 -186q0 -109 -25 -186.5t-66.5 -117.5t-91.5 -40t-91.5 40t-66.5 117.5t-25 186.5q0 108 25 186t66.5 118t91.5 40t91.5 -40zM150 563.5q-28 -80.5 -28 -229.5q0 -152 26.5 -231t82.5 -79q57 0 83 78.5t26 231.5t-26 231.5t-83 78.5
q-53 0 -81 -80.5z" />
    <glyph glyph-name="one" unicode="1" horiz-adv-x="295" 
d="M124.5 595q33.5 31 42.5 83h23v-575q0 -35 5.5 -50t21.5 -20.5t56 -8.5v-24h-236v24q40 3 56 8.5t21.5 20.5t5.5 50v430h-85v23q56 8 89.5 39z" />
    <glyph glyph-name="two" unicode="2" horiz-adv-x="410" 
d="M362 154v-154h-328v56q134 129 189.5 230t55.5 209q0 67 -24.5 107.5t-75.5 40.5q-43 0 -71 -36.5t-28 -99.5q0 -16 1 -24h-34q-1 8 -1 24q0 79 39 125t104 46q48 0 85 -23t58 -64.5t21 -93.5q0 -86 -35.5 -159.5t-88 -132t-140.5 -139.5h177q23 0 36.5 6t22 24.5
t13.5 57.5h24z" />
    <glyph glyph-name="three" unicode="3" horiz-adv-x="417" 
d="M334.5 302q38.5 -46 38.5 -122q0 -59 -25.5 -102t-66 -65.5t-85.5 -22.5q-71 0 -114 45t-45 119h34q2 -55 33 -90.5t81 -35.5q57 0 85.5 42t28.5 114q0 75 -32 117t-98 42h-24v34h22q59 0 85.5 41.5t26.5 99.5q0 51 -22.5 88t-71.5 37q-46 0 -71 -34t-26 -83h-34
q1 64 37 108t105 44q73 0 114.5 -44.5t41.5 -110.5q0 -57 -33 -99t-84 -61q61 -15 99.5 -61z" />
    <glyph glyph-name="four" unicode="4" horiz-adv-x="428" 
d="M316 183v-80q0 -34 4.5 -49.5t17 -21t41.5 -8.5v-24h-214v24q37 2 53 7t22 19t6 46v87h-230v33l227 452h73v-447h90v-38h-90zM246 221v376l-188 -376h188z" />
    <glyph glyph-name="five" unicode="5" horiz-adv-x="416" 
d="M290 398.5q39 -24.5 63 -71t24 -107.5q0 -69 -25 -121.5t-68 -80.5t-96 -28q-66 0 -109 45t-43 119h34q0 -55 30.5 -90.5t76.5 -35.5q126 0 126 193q0 75 -26 121t-83 46q-71 0 -107 -90l-29 8l48 362h260l-7 -66h-226l-30 -226q39 47 102 47q46 0 85 -24.5z" />
    <glyph glyph-name="six" unicode="6" horiz-adv-x="441" 
d="M319.5 397q35.5 -27 57 -75.5t21.5 -111.5q0 -61 -23 -111.5t-62 -79.5t-85 -29q-86 0 -133.5 78t-47.5 240q0 117 24.5 200.5t69 126.5t102.5 43q62 0 98.5 -38.5t38.5 -110.5h-34q-4 56 -29 85t-64 29q-69 0 -100 -75.5t-34 -221.5q16 37 47 57.5t75 20.5
q43 0 78.5 -27zM299.5 76.5q26.5 51.5 26.5 130.5q0 78 -26.5 128.5t-76.5 50.5t-76.5 -50.5t-26.5 -128.5q0 -79 26.5 -130.5t76.5 -51.5t76.5 51.5z" />
    <glyph glyph-name="seven" unicode="7" horiz-adv-x="389" 
d="M370 624q-51 -46 -93.5 -138.5t-66.5 -210t-24 -234.5q0 -27 1 -41h-79q-5 108 29 233t84 227t87 142h-184q-23 0 -36.5 -5.5t-22 -21.5t-13.5 -49h-24v142h342v-44z" />
    <glyph glyph-name="eight" unicode="8" horiz-adv-x="444" 
d="M371.5 258q28.5 -42 28.5 -102q0 -50 -24 -88t-64.5 -58t-88.5 -20q-50 0 -91 20t-64.5 56.5t-23.5 84.5q0 66 37 113.5t87 73.5q-48 36 -75 77.5t-27 103.5q0 46 21 82.5t56 56.5t76 20q45 0 81 -20.5t57 -56t21 -78.5q0 -106 -107 -173l16 -11q56 -39 84.5 -81z
M154.5 611.5q-26.5 -31.5 -26.5 -72.5q0 -51 26 -88.5t71 -68.5l19 -13q32 21 55.5 60.5t23.5 93.5q0 52 -27 86t-74 34q-41 0 -67.5 -31.5zM305 53q32 28 32 78q0 51 -24.5 87t-71.5 68l-45 32q-39 -21 -67 -66.5t-28 -100.5q0 -56 30.5 -91t89.5 -35q52 0 84 28z" />
    <glyph glyph-name="nine" unicode="9" horiz-adv-x="429" 
d="M295.5 648.5q40.5 -29.5 64.5 -85t24 -129.5q0 -116 -42.5 -210t-113 -155t-155.5 -85l-9 33q100 34 157.5 112t84.5 191q-38 -62 -114 -62q-43 0 -79 26t-57 73t-21 108q0 59 23 108t62 77t85 28q50 0 90.5 -29.5zM286.5 344.5q26.5 48.5 26.5 123.5q0 77 -26.5 126
t-76.5 49t-76.5 -49t-26.5 -126q0 -75 26.5 -123.5t76.5 -48.5t76.5 48.5z" />
    <glyph glyph-name="colon" unicode=":" horiz-adv-x="204" 
d="M61.5 392q-15.5 16 -15.5 40t15.5 40t39.5 16t39 -16t15 -40t-15 -40t-39 -16t-39.5 16zM61.5 6q-15.5 16 -15.5 40t15.5 40t39.5 16t39 -16t15 -40t-15 -40t-39 -16t-39.5 16z" />
    <glyph glyph-name="semicolon" unicode=";" horiz-adv-x="216" 
d="M63.5 392q-15.5 16 -15.5 40t15.5 40t39.5 16t39 -16t15 -40t-15 -40t-39 -16t-39.5 16zM152 76.5q22 -24.5 22 -77.5q0 -38 -17 -71.5t-41.5 -55.5t-44.5 -31l-13 25q33 15 57 50t24 74q0 9 -1 14q-14 -14 -37 -14q-25 0 -40 15.5t-15 39.5t15.5 40t39.5 16
q29 0 51 -24.5z" />
    <glyph glyph-name="less" unicode="&#x3c;" 
d="M370 445l-264 -147l264 -146v-41l-305 171v33l305 170v-40z" />
    <glyph glyph-name="equal" unicode="=" 
d="M52 400h336v-36h-336v36zM52 237h336v-36h-336v36z" />
    <glyph glyph-name="greater" unicode="&#x3e;" 
d="M375 315v-33l-305 -171v41l264 146l-264 147v40z" />
    <glyph glyph-name="question" unicode="?" horiz-adv-x="337" 
d="M274.5 633q40.5 -45 40.5 -111q0 -78 -41.5 -128t-108.5 -70v-132h-37v158q59 18 86 57.5t27 110.5q0 54 -21 89.5t-67 35.5q-44 0 -68 -28.5t-24 -82.5h-34q0 66 34.5 106t99.5 40q73 0 113.5 -45zM186 86q15 -16 15 -40t-15 -40t-39 -16t-39.5 16t-15.5 40t15.5 40
t39.5 16t39 -16z" />
    <glyph glyph-name="at" unicode="@" horiz-adv-x="752" 
d="M576 615q66 -38 101.5 -105.5t35.5 -154.5q0 -23 -1 -34q-7 -88 -36 -151.5t-72.5 -96t-92.5 -32.5q-77 0 -75 86q-20 -40 -48 -63t-61 -23q-48 0 -76.5 39t-28.5 109q0 24 5 59q11 70 37 120t61 75.5t72 25.5q59 0 78 -68l10 58h59l-43 -269q-8 -54 -8 -68
q0 -21 7.5 -32t24.5 -11q29 0 60 25.5t54.5 79t29.5 134.5q1 11 1 33q0 122 -66 194.5t-185 72.5q-88 0 -160.5 -50t-117 -135.5t-51.5 -189.5q-2 -28 -2 -40q0 -91 31.5 -162t91.5 -111t143 -40q56 0 102.5 17t88.5 50l21 -27q-49 -38 -100.5 -56.5t-122.5 -18.5
q-90 0 -160 43.5t-109 121t-39 176.5q0 13 2 39q8 117 60.5 212.5t137 150.5t186.5 55q89 0 155 -38zM410 133q31 50 43 125l1 5l2 12q3 29 3 53q0 53 -16 80t-46 27q-35 0 -64 -46.5t-41 -130.5q-6 -42 -6 -75q0 -100 58 -100q35 0 66 50z" />
    <glyph glyph-name="A" unicode="A" horiz-adv-x="497" 
d="M448 52q10 -15 22 -20t32 -8v-24h-194v24q32 2 43.5 7t11.5 19q0 13 -11 49l-30 100h-191l-28 -100q-2 -8 -6.5 -24.5t-4.5 -24.5q0 -14 11.5 -19t42.5 -7v-24h-153v24q22 3 34 8t21.5 20t18.5 47l161 580h18l182 -581q10 -31 20 -46zM312 234l-89 298l-83 -298h172z" />
    <glyph glyph-name="B" unicode="B" horiz-adv-x="488" 
d="M407 293.5q40 -46.5 40 -113.5q0 -54 -25 -94.5t-67.5 -63t-94.5 -22.5h-224v24q29 3 41.5 8.5t17 21t4.5 49.5v462q0 34 -4.5 49.5t-17 21t-41.5 8.5v24h195q86 0 136 -43.5t50 -116.5q0 -55 -31 -95.5t-83 -59.5q64 -13 104 -59.5zM171 633v-270h46q63 0 93.5 35.5
t30.5 101.5q0 63 -30.5 98t-93.5 35h-46zM341 72.5q30 37.5 30 107.5t-30 109t-91 39h-79v-253q0 -23 9 -31.5t40 -8.5h30q61 0 91 37.5z" />
    <glyph glyph-name="C" unicode="C" horiz-adv-x="480" 
d="M72 520.5q30 77.5 83 117.5t119 40q86 0 163 -59v-151h-24q-13 94 -48.5 134.5t-90.5 40.5q-79 0 -117.5 -80t-38.5 -229q0 -154 39 -231.5t120 -77.5q52 0 87.5 46.5t42.5 135.5h35q-9 -108 -55.5 -162.5t-122.5 -54.5q-64 0 -114 40t-79 117.5t-29 186.5t30 186.5z" />
    <glyph glyph-name="D" unicode="D" horiz-adv-x="536" 
d="M364 626.5q59 -41.5 93.5 -117.5t34.5 -175t-34.5 -175t-93.5 -117.5t-130 -41.5h-198v24q29 3 41.5 8.5t17 21t4.5 49.5v462q0 34 -4.5 49.5t-17 21t-41.5 8.5v24h198q71 0 130 -41.5zM367.5 116.5q48.5 81.5 48.5 217.5t-48.5 217.5t-141.5 81.5h-55v-558
q0 -23 9 -31.5t40 -8.5h6q93 0 141.5 81.5z" />
    <glyph glyph-name="E" unicode="E" horiz-adv-x="462" 
d="M424 164v-164h-389v24q29 3 41.5 8.5t17 21t4.5 49.5v462q0 34 -4.5 49.5t-17 21t-41.5 8.5v24h372v-155h-24q-7 48 -17 74t-27 36t-45 10h-124v-269h103q25 0 34.5 16t11.5 62h24v-191h-24q-2 45 -11.5 61.5t-34.5 16.5h-103v-254q0 -23 9 -31.5t40 -8.5h92q28 0 45 11
t27 38.5t17 79.5h24z" />
    <glyph glyph-name="F" unicode="F" horiz-adv-x="439" 
d="M408 500h-24q-7 54 -17 82t-27 39.5t-45 11.5h-124v-277h108q25 0 34.5 16t11.5 62h24v-191h-24q-2 45 -11.5 61.5t-34.5 16.5h-108v-218q0 -35 5 -50t20.5 -20.5t51.5 -8.5v-24h-212v24q29 3 41.5 8.5t17 21t4.5 49.5v462q0 34 -4.5 49.5t-17 21t-41.5 8.5v24h372v-168z
" />
    <glyph glyph-name="G" unicode="G" horiz-adv-x="524" 
d="M498 303v-24q-25 -3 -36.5 -9t-15.5 -21.5t-4 -49.5v-147q-92 -62 -165 -62q-68 0 -121.5 40t-84 117.5t-30.5 186.5t31.5 186.5t85 117.5t120.5 40q91 0 165 -59v-135h-24q-13 86 -49 122.5t-92 36.5q-80 0 -120.5 -80.5t-40.5 -228.5t39.5 -228.5t120.5 -80.5
q53 0 93 32v143q0 35 -5 50t-18 20.5t-45 8.5v24h196z" />
    <glyph glyph-name="H" unicode="H" horiz-adv-x="573" 
d="M493.5 635.5q-12.5 -5.5 -17 -21t-4.5 -49.5v-462q0 -34 4.5 -49.5t17 -21t41.5 -8.5v-24h-198v24q29 3 41.5 8.5t17 21t4.5 49.5v224h-227v-224q0 -34 4.5 -49.5t17 -21t41.5 -8.5v-24h-198v24q29 3 41.5 8.5t17 21t4.5 49.5v462q0 34 -4.5 49.5t-17 21t-41.5 8.5v24
h198v-24q-29 -3 -41.5 -8.5t-17 -21t-4.5 -49.5v-203h227v203q0 34 -4.5 49.5t-17 21t-41.5 8.5v24h198v-24q-29 -3 -41.5 -8.5z" />
    <glyph glyph-name="I" unicode="I" horiz-adv-x="270" 
d="M94.5 614.5q-4.5 15.5 -17 21t-41.5 8.5v24h198v-24q-29 -3 -41.5 -8.5t-17 -21t-4.5 -49.5v-462q0 -34 4.5 -49.5t17 -21t41.5 -8.5v-24h-198v24q29 3 41.5 8.5t17 21t4.5 49.5v462q0 34 -4.5 49.5z" />
    <glyph glyph-name="J" unicode="J" horiz-adv-x="260" 
d="M61.5 -44q32.5 44 32.5 126v483q0 34 -4.5 49.5t-17 21t-41.5 8.5v24h198v-24q-29 -3 -41.5 -8.5t-17 -21t-4.5 -49.5v-438q0 -227 -185 -258v35q48 8 80.5 52z" />
    <glyph glyph-name="K" unicode="K" horiz-adv-x="529" 
d="M465 47.5q11 -11.5 23 -16t35 -7.5v-24h-204v24q30 4 41 8t11 16q0 14 -19 45l-146 247h-39v-237q0 -34 4.5 -49.5t17 -21t41.5 -8.5v-24h-198v24q29 3 41.5 8.5t17 21t4.5 49.5v462q0 34 -4.5 49.5t-17 21t-41.5 8.5v24h198v-24q-29 -3 -41.5 -8.5t-17 -21t-4.5 -49.5
v-190h40l146 208q16 22 16 35q0 12 -13 18t-39 8v24h171v-24q-36 -4 -52.5 -15t-40.5 -46l-138 -197l183 -303q14 -24 25 -35.5z" />
    <glyph glyph-name="L" unicode="L" horiz-adv-x="445" 
d="M38 0v24q29 3 41.5 8.5t17 21t4.5 49.5v462q0 34 -4.5 49.5t-17 21t-41.5 8.5v24h204v-24q-32 -3 -45.5 -8.5t-18.5 -21t-5 -49.5v-488q0 -24 8 -33t35 -9h84q29 0 46.5 12.5t28.5 44t18 89.5h24v-181h-379z" />
    <glyph glyph-name="M" unicode="M" horiz-adv-x="674" 
d="M598.5 635.5q-12.5 -5.5 -17 -21t-4.5 -49.5v-462q0 -34 4.5 -49.5t17 -21t41.5 -8.5v-24h-205v24q33 3 46.5 8.5t18.5 21t5 49.5v484l-180 -587h-18l-176 588v-485q0 -34 5 -49.5t18.5 -21t46.5 -8.5v-24h-168v24q29 3 41.5 8.5t17 21t4.5 49.5v462q0 34 -4.5 49.5
t-17 21t-41.5 8.5v24h150l153 -516l159 516h145v-24q-29 -3 -41.5 -8.5z" />
    <glyph glyph-name="N" unicode="N" horiz-adv-x="548" 
d="M523 644q-29 -3 -41.5 -8.5t-17 -21t-4.5 -49.5v-575h-18l-314 594v-481q0 -34 5 -49.5t19 -21t47 -8.5v-24h-169v24q29 3 41.5 8.5t17 21t4.5 49.5v462q0 34 -4.5 49.5t-17 21t-41.5 8.5v24h132l263 -499v396q0 34 -5 49.5t-19 21t-47 8.5v24h169v-24z" />
    <glyph glyph-name="O" unicode="O" horiz-adv-x="546" 
d="M156.5 29.5q-51.5 39.5 -81.5 117.5t-30 187t30 186.5t81.5 117.5t115.5 40t115.5 -40t82 -118t30.5 -186q0 -109 -30.5 -187t-82 -117.5t-115.5 -39.5t-115.5 39.5zM385.5 106.5q38.5 81.5 38.5 227.5t-38.5 227.5t-113.5 81.5t-113 -81t-38 -228t38 -228t113 -81
t113.5 81.5z" />
    <glyph glyph-name="P" unicode="P" horiz-adv-x="467" 
d="M171 302v-199q0 -35 5.5 -50t21.5 -20.5t54 -8.5v-24h-216v24q29 3 41.5 8.5t17 21t4.5 49.5v462q0 34 -4.5 49.5t-17 21t-41.5 8.5v24h207q94 0 147 -49.5t53 -133.5t-53 -133.5t-147 -49.5h-72zM171 633v-296h57q70 0 104.5 39t34.5 109t-34.5 109t-104.5 39h-57z" />
    <glyph glyph-name="Q" unicode="Q" horiz-adv-x="546" 
d="M417.5 -119.5q13.5 -6.5 48.5 -6.5v-24q-24 -6 -57 -6q-34 0 -58.5 12t-38.5 45l-10 23q-15 35 -27 49.5t-34 19.5q-56 9 -100 51.5t-69.5 116t-25.5 173.5q0 109 30 186.5t81.5 117.5t115.5 40t115.5 -40t82 -118t30.5 -186q0 -104 -27.5 -179.5t-75.5 -117t-107 -46.5
q27 -6 52.5 -21.5t40.5 -44.5l10 -19q10 -19 23.5 -25.5zM160 106q38 -81 113 -81t113.5 81.5t38.5 227.5t-38.5 227.5t-113.5 81.5t-113 -81t-38 -228t38 -228z" />
    <glyph glyph-name="R" unicode="R" horiz-adv-x="508" 
d="M471.5 31.5q15.5 -10.5 52.5 -10.5v-25q-27 -5 -57 -5q-37 0 -63.5 17.5t-42.5 63.5l-51 146q-18 50 -43.5 74.5t-75.5 24.5h-21v-214q0 -34 4.5 -49.5t17 -21t41.5 -8.5v-24h-198v24q29 3 41.5 8.5t17 21t4.5 49.5v462q0 34 -4.5 49.5t-17 21t-41.5 8.5v24h207
q86 0 136 -45.5t50 -122.5q0 -69 -47.5 -115.5t-117.5 -55.5q37 -6 71.5 -32.5t54.5 -79.5l54 -142q13 -33 28.5 -43.5zM170 633v-281h58q63 0 93.5 37t30.5 104t-31 103.5t-94 36.5h-57z" />
    <glyph glyph-name="S" unicode="S" horiz-adv-x="439" 
d="M69 214q9 -95 43.5 -142t104.5 -47q59 0 91.5 30t32.5 85q0 51 -26 87t-79 67l-73 43q-56 33 -84 73.5t-28 99.5q0 52 23.5 90t61 58t79.5 20q83 0 160 -59v-140h-22q-8 78 -43.5 121t-90.5 43q-52 0 -80.5 -29.5t-28.5 -81.5q0 -43 23.5 -72t71.5 -58l87 -51
q112 -66 112 -178q0 -49 -24 -91t-66 -67t-94 -25q-55 0 -102 18t-73 40v166h24z" />
    <glyph glyph-name="T" unicode="T" horiz-adv-x="464" 
d="M438 504h-24q-7 55 -16 82.5t-26 38.5t-49 11h-55v-533q0 -34 5 -49.5t18.5 -21t46.5 -8.5v-24h-212v24q33 3 46.5 8.5t18.5 21t5 49.5v533h-55q-32 0 -49 -11t-26 -38.5t-16 -82.5h-24v164h412v-164z" />
    <glyph glyph-name="U" unicode="U" horiz-adv-x="556" 
d="M428.5 614.5q-4.5 15.5 -17 21t-41.5 8.5v24h161v-24q-29 -3 -41.5 -8.5t-17 -21t-4.5 -49.5v-383q0 -94 -49 -143t-139 -49q-89 0 -140.5 50t-51.5 138v387q0 34 -4.5 49.5t-17 21t-41.5 8.5v24h198v-24q-29 -3 -41.5 -8.5t-17 -21t-4.5 -49.5v-377q0 -83 34.5 -123
t96.5 -40q70 0 106 39.5t36 123.5v377q0 34 -4.5 49.5z" />
    <glyph glyph-name="V" unicode="V" horiz-adv-x="500" 
d="M504 668v-24q-23 -3 -35.5 -8t-22 -20t-18.5 -47l-159 -579h-18l-180 580q-10 31 -20.5 46t-22.5 20t-33 8v24h193v-24q-30 -2 -41 -7t-11 -18q0 -14 11 -50l127 -432l118 432q10 38 10 49q0 14 -10.5 19t-41.5 7v24h154z" />
    <glyph glyph-name="W" unicode="W" horiz-adv-x="690" 
d="M693 668v-24q-22 -3 -33 -8.5t-19.5 -21t-15.5 -47.5l-120 -577h-18l-143 530l-140 -530h-18l-128 577q-7 32 -15.5 47.5t-18.5 21t-27 8.5v24h185v-24q-33 -2 -44 -8t-11 -24q0 -15 6 -45l83 -408l137 519h18l139 -511l82 400q7 37 7 46q0 17 -11 23t-44 8v24h149z" />
    <glyph glyph-name="X" unicode="X" horiz-adv-x="483" 
d="M433 41q18 -12 47 -17v-24h-185v24q23 2 32.5 5.5t9.5 12.5q0 7 -5.5 20.5t-13.5 30.5l-97 208l-98 -208q-18 -36 -18 -50q0 -10 9.5 -13.5t35.5 -5.5v-24h-148v24q20 3 32 8t25 19t26 42l115 246l-111 236q-14 29 -27 43t-24.5 18.5t-30.5 7.5v24h186v-24
q-25 -2 -34.5 -6t-9.5 -13q0 -7 5 -20t13 -30l74 -161l75 161q8 17 13.5 30t5.5 20q0 9 -9.5 13t-35.5 6v24h146v-24q-19 -3 -31 -8t-25 -19t-26 -42l-93 -199l135 -283q19 -40 37 -52z" />
    <glyph glyph-name="Y" unicode="Y" horiz-adv-x="483" 
d="M482 668v-24q-21 -3 -33.5 -8t-25 -19t-25.5 -43l-115 -261v-210q0 -34 4.5 -49t18 -21t44.5 -9v-24h-206v24q31 3 44.5 8.5t18 21t4.5 49.5v199l-133 273q-19 39 -36.5 51.5t-43.5 17.5v24h190v-24q-28 -3 -38.5 -6.5t-10.5 -14.5q0 -13 17 -47l108 -218l97 216
q16 37 16 48q0 12 -10.5 16t-36.5 6v24h152z" />
    <glyph glyph-name="Z" unicode="Z" horiz-adv-x="446" 
d="M414 656l-312 -621h196q32 0 49 12.5t26 43.5t16 93h24v-184h-402v12l311 621h-152q-32 0 -49 -11t-26 -39t-16 -84h-24v169h359v-12z" />
    <glyph glyph-name="bracketleft" unicode="[" horiz-adv-x="253" 
d="M150 -147h85v-38h-156v902h156v-38h-85v-826z" />
    <glyph glyph-name="backslash" unicode="\" horiz-adv-x="315" 
d="M298 -95h-38l-242 763h38z" />
    <glyph glyph-name="bracketright" unicode="]" horiz-adv-x="253" 
d="M18 679v38h156v-902h-156v38h85v826h-85z" />
    <glyph glyph-name="asciicircum" unicode="^" 
d="M338 366l-118 261l-118 -261h-41l143 312h32l143 -312h-41z" />
    <glyph glyph-name="underscore" unicode="_" horiz-adv-x="500" 
d="M500 -70v-40h-500v40h500z" />
    <glyph glyph-name="a" unicode="a" horiz-adv-x="386" 
d="M325.5 37q12.5 -12 43.5 -11v-24q-3 -1 -19.5 -4.5t-35.5 -3.5q-58 0 -58 71v4q-15 -39 -42.5 -59t-63.5 -20q-53 0 -81 36.5t-28 97.5q0 68 36.5 105.5t110.5 57.5l23 6q5 1 15.5 4.5t18.5 4.5v73q0 43 -15.5 62t-45.5 19q-28 0 -44 -20.5t-16 -50.5q0 -21 -8 -29.5
t-24 -8.5q-32 0 -32 36q0 25 17.5 49.5t46 40t60.5 15.5q61 0 95 -39.5t34 -103.5v-261q0 -35 12.5 -47zM225.5 65.5q19.5 30.5 19.5 84.5v121q-17 -4 -49 -14q-48 -15 -65.5 -47t-17.5 -82q0 -45 17 -69t48 -24q28 0 47.5 30.5z" />
    <glyph glyph-name="b" unicode="b" horiz-adv-x="422" 
d="M307.5 457.5q34.5 -30.5 54.5 -87t20 -131.5t-20 -131.5t-54.5 -87t-77.5 -30.5q-33 0 -60.5 21.5t-44.5 60.5l-42 -82h-16v579q0 32 -4 46.5t-15.5 20.5t-36.5 8v24h124v-257q17 37 41 57t54 20q43 0 77.5 -30.5zM289.5 79q20.5 57 20.5 160t-20.5 160t-62.5 57
q-43 0 -67.5 -55.5t-24.5 -161.5t24.5 -161.5t67.5 -55.5q42 0 62.5 57z" />
    <glyph glyph-name="c" unicode="c" horiz-adv-x="358" 
d="M296 336q-5 60 -27 90t-64 30q-48 0 -73 -57t-25 -161q0 -216 99 -216q39 0 62.5 31t28.5 88h33q-6 -72 -40.5 -111.5t-95.5 -39.5q-48 0 -84 31.5t-55.5 88t-19.5 128.5q0 76 23 132.5t62.5 87t85.5 30.5q62 0 114 -43v-109h-24z" />
    <glyph glyph-name="d" unicode="d" horiz-adv-x="436" 
d="M360.5 52.5q3.5 -14.5 14 -20t34.5 -8.5v-24h-111v82q-17 -44 -43.5 -68t-60.5 -24q-44 0 -79.5 30.5t-56 87t-20.5 131.5t20.5 131.5t56 87t79.5 30.5q30 0 54 -18t41 -53v152q0 32 -4 46.5t-15.5 20.5t-36.5 8v24h124v-570q0 -31 3.5 -45.5zM266.5 77.5
q25.5 55.5 25.5 161.5t-25.5 161.5t-69.5 55.5q-43 0 -64 -57t-21 -160t21 -160t64 -57q44 0 69.5 55.5z" />
    <glyph glyph-name="e" unicode="e" horiz-adv-x="385" 
d="M109 249v-11q0 -115 25.5 -165.5t80.5 -50.5q41 0 67.5 32.5t29.5 86.5h33q-5 -69 -41 -110t-97 -41q-84 0 -127 64.5t-43 183.5q0 78 21.5 134.5t57.5 86t80 29.5t78 -28t53.5 -80t19.5 -122v-9h-238zM135 412.5q-21 -43.5 -25 -131.5h167q0 82 -20.5 128.5t-60.5 46.5
t-61 -43.5z" />
    <glyph glyph-name="f" unicode="f" horiz-adv-x="280" 
d="M168.5 625q-10.5 -21 -10.5 -65v-82h113v-32h-113v-348q0 -32 4.5 -46t18.5 -19.5t46 -8.5v-24h-189v24q24 3 34.5 8.5t14 20t3.5 45.5v348h-79v29q38 2 53 5.5t20.5 13.5t5.5 35q0 75 35 112t83 37q36 0 63 -19.5t27 -53.5q0 -29 -28 -29q-27 0 -27 34q0 19 -10 27.5
t-30 8.5q-24 0 -34.5 -21z" />
    <glyph glyph-name="g" unicode="g" horiz-adv-x="381" 
d="M314.5 66q47.5 -30 47.5 -98q0 -42 -24.5 -76t-65.5 -53.5t-87 -19.5q-74 0 -119 29.5t-45 83.5q0 33 20.5 60t55.5 43q-52 19 -52 70q0 62 92 86q-40 14 -65.5 50.5t-25.5 87.5q0 44 18.5 78t49.5 52.5t67 18.5h176v-37h-89q23 -19 36.5 -47.5t13.5 -64.5q0 -51 -25 -88
t-65 -52h1q-28 -9 -49 -14q-40 -10 -59.5 -19t-19.5 -25q0 -20 19 -24.5t78 -7.5q69 -3 116.5 -33zM129 414.5q-17 -31.5 -17 -85.5t17 -85t52 -31q37 0 54.5 31t17.5 85t-17.5 85.5t-54.5 31.5q-35 0 -52 -31.5zM274 -127.5q33 21.5 33 67.5q0 86 -117 86
q-56 0 -88.5 -21.5t-32.5 -63.5q0 -47 34.5 -68.5t86.5 -21.5q51 0 84 21.5z" />
    <glyph glyph-name="h" unicode="h" horiz-adv-x="444" 
d="M372.5 52.5q3.5 -14.5 14 -20t34.5 -8.5v-24h-168v24q22 3 31.5 8.5t13 20t3.5 45.5v272q0 43 -15 62t-45 19q-39 0 -66 -36t-27 -88v-229q0 -31 3.5 -45.5t13 -20t31.5 -8.5v-24h-168v24q24 3 34.5 8.5t14 20t3.5 45.5v471q0 32 -4 46.5t-15.5 20.5t-36.5 8v24h124v-246
q17 31 44.5 48.5t62.5 17.5q54 0 84 -38.5t30 -106.5v-245q0 -31 3.5 -45.5z" />
    <glyph glyph-name="i" unicode="i" horiz-adv-x="229" 
d="M79 425.5q-4 14.5 -15.5 20.5t-36.5 8v24h124v-380q0 -31 3.5 -45.5t14 -20t34.5 -8.5v-24h-172v24q24 3 34.5 8.5t14 20t3.5 45.5v281q0 32 -4 46.5zM76 569.5q-14 14.5 -14 37.5t14 37.5t37 14.5t37 -14.5t14 -37.5t-14 -37.5t-37 -14.5t-37 14.5z" />
    <glyph glyph-name="j" unicode="j" horiz-adv-x="214" 
d="M54.5 -121q27.5 33 27.5 94v406q0 32 -4 46.5t-15.5 20.5t-36.5 8v24h124v-475q0 -100 -50.5 -142t-116.5 -42v27q44 0 71.5 33zM75 569.5q-14 14.5 -14 37.5t14 37.5t37 14.5t37 -14.5t14 -37.5t-14 -37.5t-37 -14.5t-37 14.5z" />
    <glyph glyph-name="k" unicode="k" horiz-adv-x="435" 
d="M386 34q13 -7 44 -10v-24h-114l-133 248h-36v-150q0 -31 3.5 -45.5t14 -20t34.5 -8.5v-24h-172v24q24 3 34.5 8.5t14 20t3.5 45.5v471q0 32 -4 46.5t-15.5 20.5t-36.5 8v24h124v-388h39l100 130q12 15 12 24t-11.5 13t-36.5 7v24h153v-24q-30 -3 -45 -11t-34 -33
l-94 -122l128 -221q15 -26 28 -33z" />
    <glyph glyph-name="l" unicode="l" horiz-adv-x="224" 
d="M149.5 52.5q3.5 -14.5 14 -20t34.5 -8.5v-24h-172v24q24 3 34.5 8.5t14 20t3.5 45.5v471q0 32 -4 46.5t-15.5 20.5t-36.5 8v24h124v-570q0 -31 3.5 -45.5z" />
    <glyph glyph-name="m" unicode="m" horiz-adv-x="657" 
d="M584.5 52.5q3.5 -14.5 14 -20t34.5 -8.5v-24h-168v24q22 3 31.5 8.5t13 20t3.5 45.5v273q0 43 -14.5 61.5t-43.5 18.5q-37 0 -63 -34.5t-26 -86.5v-232q0 -31 3.5 -45.5t13 -20t31.5 -8.5v-24h-164v24q22 3 31.5 8.5t13 20t3.5 45.5v273q0 43 -14.5 61.5t-43.5 18.5
q-36 0 -62.5 -34.5t-26.5 -86.5v-232q0 -31 3.5 -45.5t13 -20t31.5 -8.5v-24h-168v24q24 3 34.5 8.5t14 20t3.5 45.5v281q0 32 -4 46.5t-15.5 20.5t-36.5 8v24h115v-76q15 40 44.5 63t66.5 23q38 0 64.5 -19.5t38.5 -56.5q17 36 46 56t66 20q54 0 83.5 -38t29.5 -105v-247
q0 -31 3.5 -45.5z" />
    <glyph glyph-name="n" unicode="n" horiz-adv-x="449" 
d="M376.5 52.5q3.5 -14.5 14 -20t34.5 -8.5v-24h-168v24q22 3 31.5 8.5t13 20t3.5 45.5v272q0 43 -15 62t-45 19q-39 0 -66 -36t-27 -88v-229q0 -31 3.5 -45.5t13 -20t31.5 -8.5v-24h-168v24q24 3 34.5 8.5t14 20t3.5 45.5v281q0 32 -4 46.5t-15.5 20.5t-36.5 8v24h115v-76
q15 40 45.5 63t70.5 23q54 0 84 -38.5t30 -106.5v-245q0 -31 3.5 -45.5z" />
    <glyph glyph-name="o" unicode="o" horiz-adv-x="408" 
d="M119.5 20.5q-38.5 30.5 -60.5 87t-22 131.5t22 131.5t60.5 87t84.5 30.5t84.5 -30.5t60.5 -87t22 -131.5t-22 -131.5t-60.5 -87t-84.5 -30.5t-84.5 30.5zM276 77q23 55 23 162t-23 162t-72 55t-72 -55t-23 -162t23 -162t72 -55t72 55z" />
    <glyph glyph-name="p" unicode="p" horiz-adv-x="438" 
d="M323.5 457.5q34.5 -30.5 54.5 -87t20 -131.5t-20 -131.5t-54.5 -87t-77.5 -30.5q-30 0 -54 20t-41 57v-144q0 -32 4 -46t15.5 -19.5t38.5 -8.5v-24h-178v24q24 3 34.5 8.5t14 20t3.5 45.5v456q0 32 -4 46.5t-15.5 20.5t-36.5 8v24h119v-79q17 43 42 66t58 23
q43 0 77.5 -30.5zM305.5 79q20.5 57 20.5 160t-20.5 160t-62.5 57q-43 0 -67.5 -55.5t-24.5 -161.5t24.5 -161.5t67.5 -55.5q42 0 62.5 57z" />
    <glyph glyph-name="q" unicode="q" horiz-adv-x="422" 
d="M357.5 -122.5q3.5 -14.5 14 -20t34.5 -8.5v-24h-178v24q27 3 38.5 8.5t15.5 19.5t4 46v144q-17 -37 -41 -57t-54 -20q-43 0 -77.5 30.5t-54.5 87t-20 131.5t20 131.5t54.5 87t77.5 30.5q32 0 58 -19t43 -55l46 74h16v-565q0 -31 3.5 -45.5zM261.5 77.5
q24.5 55.5 24.5 161.5t-24.5 161.5t-67.5 55.5q-42 0 -62.5 -57t-20.5 -160t20.5 -160t62.5 -57q43 0 67.5 55.5z" />
    <glyph glyph-name="r" unicode="r" horiz-adv-x="333" 
d="M298.5 467q19.5 -21 19.5 -54q0 -53 -36 -53q-13 0 -22.5 8.5t-9.5 23.5q0 5 2.5 15t2.5 14q0 13 -8 19.5t-22 6.5q-33 0 -54 -41t-21 -106v-202q0 -32 4.5 -46t18 -19.5t44.5 -8.5v-24h-187v24q24 3 34.5 8.5t14 20t3.5 45.5v281q0 32 -4 46.5t-15.5 20.5t-36.5 8v24
h115v-81q15 43 41.5 67t61.5 24t54.5 -21z" />
    <glyph glyph-name="s" unicode="s" horiz-adv-x="341" 
d="M39 140h24q2 -61 29.5 -89.5t74.5 -28.5q38 0 61.5 21.5t23.5 54.5q0 34 -18.5 57.5t-54.5 44.5l-55 32q-40 23 -60 52.5t-20 75.5q0 59 37 93.5t91 34.5q33 0 65 -12t52 -31v-94h-24q-2 46 -23.5 75.5t-69.5 29.5q-34 0 -54.5 -21t-20.5 -56q0 -31 16 -51t52 -40l64 -36
q36 -20 57.5 -51t21.5 -73q0 -61 -40.5 -99.5t-100.5 -38.5q-41 0 -68 10.5t-60 32.5v107z" />
    <glyph glyph-name="t" unicode="t" horiz-adv-x="273" 
d="M263 47v-33q-39 -24 -88 -24q-96 0 -96 111v345h-70v29q52 7 79.5 41t33.5 98h27v-136h109v-32h-109v-332q0 -46 14 -63t44 -17q28 0 56 13z" />
    <glyph glyph-name="u" unicode="u" horiz-adv-x="447" 
d="M370 52.5q4 -14.5 15.5 -20.5t36.5 -8v-24h-120v67q-18 -36 -49 -56.5t-72 -20.5q-49 0 -76.5 33.5t-27.5 90.5v265q0 32 -4 46.5t-15.5 20.5t-36.5 8v24h124v-361q0 -44 15.5 -63.5t46.5 -19.5q38 0 64.5 29.5t26.5 74.5v241q0 32 -4.5 46.5t-17.5 20.5t-43 8v24h133
v-379q0 -32 4 -46.5z" />
    <glyph glyph-name="v" unicode="v" horiz-adv-x="402" 
d="M396 478v-24q-25 -6 -34.5 -16t-19.5 -43l-124 -405h-18l-134 406q-11 35 -26 46t-33 12v24h176v-24q-30 -2 -41 -7t-11 -17q0 -7 7 -32l88 -283l81 280q6 20 6 30q0 13 -10.5 18.5t-39.5 10.5v24h133z" />
    <glyph glyph-name="w" unicode="w" horiz-adv-x="574" 
d="M572 478v-24q-19 -4 -28 -8.5t-14.5 -15.5t-11.5 -34l-98 -406h-18l-115 365l-116 -365h-18l-98 406q-9 34 -23 45t-33 13v24h168v-24q-31 -2 -41.5 -7t-10.5 -17q0 -4 6 -32l62 -269l109 354h18l113 -354l61 267q4 16 4 28q0 15 -10.5 20.5t-41.5 9.5v24h136z" />
    <glyph glyph-name="x" unicode="x" horiz-adv-x="395" 
d="M343.5 40.5q16.5 -11.5 40.5 -16.5v-24h-162v24q19 2 26.5 5t7.5 11q0 10 -19 48l-55 112l-53 -108q-20 -40 -20 -50q0 -9 8 -12.5t28 -5.5v-24h-134v24q21 4 33 8.5t24.5 18t26.5 41.5l70 140l-78 158q-17 35 -33.5 47.5t-35.5 16.5v24h159v-24q-18 -2 -25.5 -6.5
t-7.5 -13.5q0 -10 16 -44l43 -89l42 85q18 38 18 49q0 10 -7 13t-25 6v24h132v-24q-27 -3 -45.5 -15.5t-38.5 -52.5l-58 -117l89 -181q17 -36 33.5 -47.5z" />
    <glyph glyph-name="y" unicode="y" horiz-adv-x="402" 
d="M396 478v-24q-21 -4 -30 -8.5t-14.5 -14.5t-13.5 -35l-158 -483q-19 -57 -41 -77.5t-57 -20.5q-34 0 -53.5 17t-22.5 47q-2 18 6.5 29t26.5 11q14 0 22.5 -8t9.5 -24q1 -40 28 -40q12 0 24 12.5t25 53.5l39 118l-123 365q-12 35 -27 45.5t-36 12.5v24h176v-24
q-29 -2 -39 -6t-10 -15q0 -6 9 -35l82 -267l87 265q8 22 8 33q0 12 -10.5 17.5t-37.5 7.5v24h130z" />
    <glyph glyph-name="z" unicode="z" horiz-adv-x="354" 
d="M330 470l-223 -438h106q33 0 50 9.5t25 33.5t13 72h21v-147h-302v8l223 438h-89q-34 0 -52.5 -8t-28 -30t-13.5 -67h-23v137h293v-8z" />
    <glyph glyph-name="braceleft" unicode="{" horiz-adv-x="257" 
d="M110.5 -150q-35.5 35 -35.5 98q0 56 18 132q14 62 14 92q0 46 -23 62.5t-82 16.5v30q59 0 82 17t23 63q0 29 -14 91q-18 76 -18 132q0 62 36 97.5t125 35.5v-32q-46 0 -70 -24t-24 -67q0 -46 13 -106q15 -73 15 -112q0 -47 -19.5 -73.5t-61.5 -36.5q42 -11 61.5 -37
t19.5 -72q0 -40 -15 -113q-13 -60 -13 -106q0 -43 24 -67t70 -24v-32q-90 0 -125.5 35z" />
    <glyph glyph-name="bar" unicode="|" horiz-adv-x="186" 
d="M112 738v-838h-38v838h38z" />
    <glyph glyph-name="braceright" unicode="}" horiz-adv-x="257" 
d="M21 -153q46 0 70 24t24 67q0 46 -13 106q-15 73 -15 113q0 46 19.5 72t61.5 37q-42 10 -61.5 36.5t-19.5 73.5q0 39 15 112q13 60 13 106q0 43 -24 67t-70 24v32q89 0 125 -35.5t36 -97.5q0 -56 -18 -132q-14 -62 -14 -91q0 -46 23 -63t82 -17v-30q-59 0 -82 -16.5
t-23 -62.5q0 -30 14 -92q18 -76 18 -132q0 -63 -35.5 -98t-125.5 -35v32z" />
    <glyph glyph-name="asciitilde" unicode="~" 
d="M250.5 241.5q-16.5 9.5 -46.5 35.5l-15 13q-24 20 -42 20q-37 0 -47 -68h-30q5 68 31 94.5t57 26.5q21 0 37.5 -9t40.5 -29l18 -16q14 -12 23 -17.5t17 -5.5q36 0 46 67h30q-4 -67 -28.5 -94t-55.5 -27q-19 0 -35.5 9.5z" />
    <glyph glyph-name="Euro" unicode="&#x20ac;" 
d="M433 169q-9 -86 -49.5 -132.5t-105.5 -46.5q-82 0 -137 67t-67 204h-67v35h65q-1 12 -1 38q0 31 1 46h-65v35h68q14 132 70.5 197.5t135.5 65.5q51 0 85.5 -16.5t61.5 -38.5v-125h-24q-13 77 -42.5 111t-78.5 34q-63 0 -94.5 -57.5t-39.5 -170.5h192v-35h-193
q-1 -15 -1 -46v-38h194v-35h-192q6 -119 38.5 -177.5t97.5 -58.5q46 0 76 37.5t37 106.5h35z" />
    <glyph glyph-name="quotesinglbase" unicode="&#x201a;" horiz-adv-x="190" 
d="M136.5 77q21.5 -24 21.5 -79q0 -54 -29.5 -91.5t-73.5 -51.5l-10 27q37 14 58 44.5t21 64.5q0 8 -1 12q-15 -13 -37 -13q-25 0 -40.5 15.5t-15.5 39.5t15.5 40t40.5 16q29 0 50.5 -24z" />
    <glyph glyph-name="florin" unicode="&#x192;" 
d="M386.5 656.5q27.5 -21.5 27.5 -62.5q0 -11 -7 -19.5t-21 -8.5q-15 0 -21.5 9.5t-6.5 23.5q0 26 -9 36.5t-30 10.5q-25 0 -39 -28t-18 -96l-10 -168h111v-35h-114l-17 -283q-5 -82 -40 -121.5t-90 -39.5q-37 0 -64.5 19.5t-27.5 52.5q0 13 7 20.5t21 7.5q13 0 20 -8.5
t7 -22.5q0 -17 10 -26.5t27 -9.5q21 0 33 12t18.5 41.5t10.5 85.5l17 272h-102v35h104l10 159q6 88 41 126.5t88 38.5q37 0 64.5 -21.5z" />
    <glyph glyph-name="quotedblbase" unicode="&#x201e;" horiz-adv-x="345" 
d="M138.5 77q21.5 -24 21.5 -79q0 -54 -29.5 -91.5t-73.5 -51.5l-10 27q37 14 58 44.5t21 64.5q0 8 -1 12q-15 -13 -37 -13q-25 0 -40.5 15.5t-15.5 39.5t15.5 40t40.5 16q29 0 50.5 -24zM293.5 77q21.5 -24 21.5 -79q0 -54 -29.5 -91.5t-73.5 -51.5l-10 27q37 14 58 44.5
t21 64.5q0 8 -1 12q-15 -13 -37 -13q-25 0 -40.5 15.5t-15.5 39.5t15.5 40t40.5 16q29 0 50.5 -24z" />
    <glyph glyph-name="ellipsis" unicode="&#x2026;" horiz-adv-x="512" 
d="M47.5 6q-15.5 16 -15.5 40t15.5 40t39.5 16t39 -16t15 -40t-15 -40t-39 -16t-39.5 16zM384.5 6q-15.5 16 -15.5 40t15.5 40t39.5 16t39 -16t15 -40t-15 -40t-39 -16t-39.5 16zM215.5 6q-15.5 16 -15.5 40t15.5 40t39.5 16t39 -16t15 -40t-15 -40t-39 -16t-39.5 16z" />
    <glyph glyph-name="dagger" unicode="&#x2020;" horiz-adv-x="382" 
d="M351 458.5q12 -10.5 12 -26.5t-12 -26.5t-29 -10.5q-18 0 -55 11q-41 11 -63 14q1 -119 6 -200.5t13 -173.5q7 -72 7 -97q0 -56 -40 -56t-40 56q0 25 7 97q8 92 13 173.5t6 200.5q-18 -2 -60 -14q-37 -11 -56 -11q-17 0 -29 10.5t-12 26.5t12 26.5t29 10.5q18 0 55 -11
q32 -9 60 -13q-3 51 -17 128q-1 9 -4.5 29t-3.5 31q0 20 10.5 32.5t29.5 12.5t29.5 -12.5t10.5 -32.5q0 -19 -8 -59q-14 -80 -17 -130q22 3 63 14q35 11 54 11q17 0 29 -10.5z" />
    <glyph glyph-name="daggerdbl" unicode="&#x2021;" horiz-adv-x="400" 
d="M360 144.5q12 -10.5 12 -26.5t-12 -26.5t-29 -10.5q-18 0 -55 11q-41 11 -63 14q3 -57 18 -118q1 -7 4.5 -23.5t3.5 -26.5q0 -20 -10.5 -32.5t-29.5 -12.5t-29.5 12.5t-10.5 32.5q0 10 3.5 26.5t4.5 23.5q15 61 18 118q-18 -2 -60 -14q-37 -11 -56 -11q-17 0 -29 10.5
t-12 26.5t12 26.5t29 10.5q19 0 56 -11q42 -12 61 -14q-2 51 -7 85.5t-14 79.5q10 41 15 69t7 77q-22 -3 -63 -14q-37 -11 -55 -11q-17 0 -29 10.5t-12 26.5t12 26.5t29 10.5q19 0 54 -11q41 -11 63 -14q-3 52 -19 118q-8 40 -8 50q0 20 10.5 32.5t29.5 12.5t29.5 -12.5
t10.5 -32.5q0 -10 -8 -50q-16 -66 -19 -118q24 3 64 14q37 11 55 11q17 0 29 -10.5t12 -26.5t-12 -26.5t-29 -10.5q-19 0 -56 11q-40 11 -64 14q2 -49 7 -77t15 -69q-9 -45 -14 -79.5t-7 -85.5q24 3 64 14q37 11 55 11q17 0 29 -10.5z" />
    <glyph glyph-name="perthousand" unicode="&#x2030;" horiz-adv-x="943" 
d="M474 668h44l-360 -668h-43zM86 335.5q-28 21.5 -45 62.5t-17 98t17 98t45 62.5t63 21.5t63 -21.5t45 -62.5t17 -98t-17 -98t-45 -62.5t-63 -21.5t-63 21.5zM197 379q17 38 17 117t-17 117t-48 38t-48 -38t-17 -117t17 -117t48 -38t48 38zM419 11.5q-28 21.5 -45 62.5
t-17 98t17 98t45 62.5t63 21.5t63 -21.5t45 -62.5t17 -98t-17 -98t-45 -62.5t-63 -21.5t-63 21.5zM530 55q17 38 17 117t-17 117t-48 38t-48 -38t-17 -117t17 -117t48 -38t48 38zM731 11.5q-28 21.5 -45 62.5t-17 98t17 98t45 62.5t63 21.5t63 -21.5t45 -62.5t17 -98
t-17 -98t-45 -62.5t-63 -21.5t-63 21.5zM842 55q17 38 17 117t-17 117t-48 38t-48 -38t-17 -117t17 -117t48 -38t48 38z" />
    <glyph glyph-name="Scaron" unicode="&#x160;" horiz-adv-x="439" 
d="M69 214q9 -95 43.5 -142t104.5 -47q59 0 91.5 30t32.5 85q0 51 -26 87t-79 67l-73 43q-56 33 -84 73.5t-28 99.5q0 52 23.5 90t61 58t79.5 20q83 0 160 -59v-140h-22q-8 78 -43.5 121t-90.5 43q-52 0 -80.5 -29.5t-28.5 -81.5q0 -43 23.5 -72t71.5 -58l87 -51
q112 -66 112 -178q0 -49 -24 -91t-66 -67t-94 -25q-55 0 -102 18t-73 40v166h24zM339 849l-102 -106h-38l-103 106h34l88 -53l87 53h34z" />
    <glyph glyph-name="guilsinglleft" unicode="&#x2039;" horiz-adv-x="221" 
d="M144 435h26l-78 -183l78 -189h-26l-124 189z" />
    <glyph glyph-name="OE" unicode="&#x152;" horiz-adv-x="773" 
d="M732 164v-164h-316v82q-50 -92 -144 -92q-62 0 -113 40t-81 117.5t-30 186.5t30 186.5t81 117.5t113 40q94 0 144 -92v82h299v-155h-24q-7 48 -17 74t-27 36t-45 10h-114v-269h93q25 0 34.5 16t11.5 62h24v-191h-24q-2 45 -11.5 61.5t-34.5 16.5h-93v-254q0 -23 9 -31.5
t40 -8.5h82q28 0 45 11t27 38.5t17 79.5h24zM381.5 104.5q38.5 79.5 38.5 229.5t-38.5 229.5t-109.5 79.5q-73 0 -110.5 -81t-37.5 -228t37.5 -228t110.5 -81q71 0 109.5 79.5z" />
    <glyph glyph-name="quoteleft" unicode="&#x2018;" horiz-adv-x="184" 
d="M141.5 529.5q15.5 -15.5 15.5 -39.5t-15.5 -40t-40.5 -16q-29 0 -50.5 24t-21.5 79q0 54 29.5 91.5t73.5 51.5l10 -27q-37 -14 -58 -44.5t-21 -64.5q0 -8 1 -12q15 13 37 13q25 0 40.5 -15.5z" />
    <glyph glyph-name="quoteright" unicode="&#x2019;" horiz-adv-x="182" 
d="M132.5 654q21.5 -24 21.5 -79q0 -54 -29.5 -91.5t-73.5 -51.5l-10 27q37 14 58 44.5t21 64.5q0 8 -1 12q-15 -13 -37 -13q-25 0 -40.5 15.5t-15.5 39.5t15.5 40t40.5 16q29 0 50.5 -24z" />
    <glyph glyph-name="quotedblleft" unicode="&#x201c;" horiz-adv-x="339" 
d="M141.5 529.5q15.5 -15.5 15.5 -39.5t-15.5 -40t-40.5 -16q-29 0 -50.5 24t-21.5 79q0 54 29.5 91.5t73.5 51.5l10 -27q-37 -14 -58 -44.5t-21 -64.5q0 -8 1 -12q15 13 37 13q25 0 40.5 -15.5zM296.5 529.5q15.5 -15.5 15.5 -39.5t-15.5 -40t-40.5 -16q-29 0 -50.5 24
t-21.5 79q0 54 29.5 91.5t73.5 51.5l10 -27q-37 -14 -58 -44.5t-21 -64.5q0 -8 1 -12q15 13 37 13q25 0 40.5 -15.5z" />
    <glyph glyph-name="quotedblright" unicode="&#x201d;" horiz-adv-x="337" 
d="M132.5 654q21.5 -24 21.5 -79q0 -54 -29.5 -91.5t-73.5 -51.5l-10 27q37 14 58 44.5t21 64.5q0 8 -1 12q-15 -13 -37 -13q-25 0 -40.5 15.5t-15.5 39.5t15.5 40t40.5 16q29 0 50.5 -24zM287.5 654q21.5 -24 21.5 -79q0 -54 -29.5 -91.5t-73.5 -51.5l-10 27q37 14 58 44.5
t21 64.5q0 8 -1 12q-15 -13 -37 -13q-25 0 -40.5 15.5t-15.5 39.5t15.5 40t40.5 16q29 0 50.5 -24z" />
    <glyph glyph-name="bullet" unicode="&#x2022;" horiz-adv-x="419" 
d="M286.5 412.5q34.5 -19.5 54.5 -54.5t20 -80t-20 -80t-54.5 -54t-76.5 -19t-76.5 19t-55 54t-20.5 80t20.5 80t55 54.5t76.5 19.5t76.5 -19.5z" />
    <glyph glyph-name="endash" unicode="&#x2013;" horiz-adv-x="372" 
d="M320 298v-40h-268v40h268z" />
    <glyph glyph-name="emdash" unicode="&#x2014;" horiz-adv-x="702" 
d="M650 298v-40h-598v40h598z" />
    <glyph glyph-name="trademark" unicode="&#x2122;" horiz-adv-x="693" 
d="M39 668h237v-90h-19q-5 44 -15 58.5t-35 14.5h-25v-302q0 -17 7 -22.5t31 -6.5v-19h-125v19q25 1 32 6t7 23v302h-28q-25 0 -34 -14.5t-14 -58.5h-19v90zM612.5 326.5q6.5 -5.5 28.5 -6.5v-19h-118v19q22 1 28.5 6.5t6.5 22.5v264l-93 -312h-20l-89 318v-270q0 -18 7 -23
t31 -6v-19h-97v19q22 1 28.5 6.5t6.5 22.5v271q0 17 -6 22.5t-26 6.5v19h92l76 -277l82 277h90v-19q-22 -1 -28 -6.5t-6 -22.5v-271q0 -17 6.5 -22.5z" />
    <glyph glyph-name="scaron" unicode="&#x161;" horiz-adv-x="341" 
d="M39 140h24q2 -61 29.5 -89.5t74.5 -28.5q38 0 61.5 21.5t23.5 54.5q0 34 -18.5 57.5t-54.5 44.5l-55 32q-40 23 -60 52.5t-20 75.5q0 59 37 93.5t91 34.5q33 0 65 -12t52 -31v-94h-24q-2 46 -23.5 75.5t-69.5 29.5q-34 0 -54.5 -21t-20.5 -56q0 -31 16 -51t52 -40l64 -36
q36 -20 57.5 -51t21.5 -73q0 -61 -40.5 -99.5t-100.5 -38.5q-41 0 -68 10.5t-60 32.5v107zM286 668l-95 -125h-38l-96 125h32l83 -68l82 68h32z" />
    <glyph glyph-name="guilsinglright" unicode="&#x203a;" horiz-adv-x="221" 
d="M66 63h-26l78 189l-78 183h26l124 -183z" />
    <glyph glyph-name="oe" unicode="&#x153;" horiz-adv-x="639" 
d="M364 249v-11q0 -114 26 -165t80 -51q42 0 68 33t29 86h33q-5 -68 -40.5 -109.5t-97.5 -41.5q-48 0 -82 24.5t-53 71.5q-21 -47 -54 -71.5t-74 -24.5q-46 0 -83.5 30.5t-59.5 87t-22 131.5t22 131.5t59.5 87t83.5 30.5q41 0 74.5 -25.5t54.5 -73.5q20 48 52 73.5t71 25.5
q44 0 78 -28t53.5 -80t19.5 -122v-9h-238zM269.5 77q22.5 55 22.5 162t-22.5 162t-70.5 55t-70.5 -55t-22.5 -162t22.5 -162t70.5 -55t70.5 55zM390 412.5q-21 -43.5 -25 -131.5h167q0 82 -20.5 128.5t-60.5 46.5t-61 -43.5z" />
    <glyph glyph-name="Ydieresis" unicode="&#x178;" horiz-adv-x="483" 
d="M482 668v-24q-21 -3 -33.5 -8t-25 -19t-25.5 -43l-115 -261v-210q0 -34 4.5 -49t18 -21t44.5 -9v-24h-206v24q31 3 44.5 8.5t18 21t4.5 49.5v199l-133 273q-19 39 -36.5 51.5t-43.5 17.5v24h190v-24q-28 -3 -38.5 -6.5t-10.5 -14.5q0 -13 17 -47l108 -218l97 216
q16 37 16 48q0 12 -10.5 16t-36.5 6v24h152zM141 748.5q-13 13.5 -13 34.5q0 20 13 33.5t33 13.5q22 0 35 -13t13 -34t-13 -34.5t-35 -13.5q-20 0 -33 13.5zM303 748.5q-13 13.5 -13 34.5t13 34t35 13q20 0 33 -13.5t13 -33.5q0 -21 -13 -34.5t-33 -13.5q-22 0 -35 13.5z
" />
    <glyph glyph-name="exclamdown" unicode="&#xa1;" horiz-adv-x="202" 
d="M140 472q15 -16 15 -40t-15 -40t-39 -16t-39.5 16t-15.5 40t15.5 40t39.5 16t39 -16zM85 291h32l26 -426q1 -23 -10.5 -36.5t-31.5 -13.5t-31.5 13.5t-10.5 36.5z" />
    <glyph glyph-name="cent" unicode="&#xa2;" 
d="M335.5 140q-28.5 -39 -77.5 -46v-94h-37v93q-68 6 -107.5 74t-39.5 173q0 69 19.5 122.5t53 85.5t74.5 40v80h37v-78q54 -5 101 -43v-109h-24q-9 110 -77 119v-432q33 5 53.5 35.5t24.5 82.5h33q-5 -64 -33.5 -103zM221 128v426q-37 -13 -56 -68t-19 -146q0 -188 75 -212
z" />
    <glyph glyph-name="sterling" unicode="&#xa3;" 
d="M430 108q-26 -54 -53 -86t-63 -32q-41 0 -100 19q-58 18 -88 18q-35 0 -58.5 -9.5t-42.5 -22.5l-16 32q47 22 77.5 66.5t30.5 105.5q0 29 -3.5 53.5t-13.5 75.5h-88v35h80q-10 50 -14 79.5t-4 62.5q0 91 51 132t125 41q60 0 97.5 -27.5t37.5 -69.5q0 -32 -31 -32
q-15 0 -23 8.5t-8 29.5q0 23 -18 40.5t-52 17.5q-47 0 -74.5 -32t-27.5 -95q0 -45 2.5 -69.5t7.5 -61.5l4 -24h187v-35h-182q10 -71 10 -90q0 -48 -16.5 -90t-42.5 -68q16 5 35 5q39 0 86 -13q51 -14 86 -14q31 0 45.5 12t31.5 47z" />
    <glyph glyph-name="currency" unicode="&#xa4;" 
d="M339 197l69 -78l-27 -24l-64 73q-38 -41 -97 -41t-97 41l-64 -73l-27 24l69 78q-32 56 -32 137t32 137l-69 78l27 24l64 -73q38 41 97 41t97 -41l64 73l27 -24l-69 -78q32 -56 32 -137t-32 -137zM302 207q30 48 30 127t-30 127t-82 48t-82 -48t-30 -127t30 -127t82 -48
t82 48z" />
    <glyph glyph-name="yen" unicode="&#xa5;" 
d="M448 668v-24q-21 -3 -34 -7.5t-26 -19t-24 -43.5l-94 -237h108v-35h-114v-84h114v-35h-114v-80q0 -34 4.5 -49t18 -21t44.5 -9v-24h-206v24q31 3 44.5 8.5t18 21t4.5 49.5v80h-120v35h120v84h-120v35h107l-107 238q-18 41 -36.5 53.5t-43.5 15.5v24h190v-24
q-31 -2 -40.5 -5t-9.5 -11q0 -12 19 -55l94 -212l81 209q19 47 19 56t-10 12.5t-39 5.5v24h152z" />
    <glyph glyph-name="brokenbar" unicode="&#xa6;" horiz-adv-x="186" 
d="M112 738v-327h-38v327h38zM112 227v-327h-38v327h38z" />
    <glyph glyph-name="section" unicode="&#xa7;" horiz-adv-x="394" 
d="M334 40q0 -62 -41 -100.5t-102 -38.5q-39 0 -66 10.5t-60 32.5v107h23q2 -60 30 -89t73 -29q39 0 63 22t24 59t-17.5 59.5t-58.5 46.5l-70 41q-45 27 -69.5 56t-24.5 74q0 46 23.5 78.5t65.5 57.5q-28 21 -42.5 49.5t-14.5 67.5q0 40 18.5 70.5t48.5 47t65 16.5
q33 0 65 -12t52 -31v-94h-22q-2 45 -24.5 75t-70.5 30q-34 0 -56.5 -24t-22.5 -59q0 -61 71 -100l68 -37q47 -26 72.5 -57t25.5 -76t-21.5 -81.5t-57.5 -61.5q53 -44 53 -110zM256 168q48 36 48 91q0 38 -21.5 63t-74.5 56l-54 31q-63 -33 -63 -96q0 -31 21.5 -53.5
t60.5 -44.5z" />
    <glyph glyph-name="copyright" unicode="&#xa9;" horiz-adv-x="608" 
d="M168 39.5q-60 39.5 -94 115.5t-34 180t34 179t94 114.5t137 39.5q76 0 135.5 -39.5t93.5 -114.5t34 -179t-34 -180t-93.5 -115.5t-135.5 -39.5q-77 0 -137 39.5zM424.5 64q52.5 36 82 105t29.5 166q0 95 -29.5 164t-82 105t-119.5 36q-68 0 -120.5 -36t-82.5 -105
t-30 -164q0 -97 30 -166t82.5 -105t120.5 -36q67 0 119.5 36zM211 488q42 51 107 51q61 0 99 -32v-82h-21q-9 50 -28 69t-49 19q-40 0 -65 -41.5t-25 -130.5q0 -178 93 -178q31 0 53.5 23t25.5 73h26q-5 -61 -35 -92.5t-79 -31.5q-65 0 -104.5 53t-39.5 149q0 100 42 151z
" />
    <glyph glyph-name="ordfeminine" unicode="&#xaa;" horiz-adv-x="322" 
d="M256.5 367q8.5 -7 30.5 -7v-20q-22 -5 -40 -5q-21 0 -33.5 12.5t-12.5 36.5v6q-10 -29 -29.5 -43.5t-45.5 -14.5q-40 0 -61.5 25.5t-21.5 67.5q0 44 27 71t82 43q17 5 41 10v48q0 32 -10 47t-32 15q-19 0 -30.5 -15.5t-11.5 -45.5q0 -28 -26 -28t-26 26q0 35 28 58.5
t68 23.5q46 0 70.5 -28t24.5 -76v-178q0 -22 8.5 -29zM178.5 385.5q14.5 18.5 14.5 58.5v81q-16 -3 -35 -9q-58 -19 -58 -88q0 -30 11 -45.5t30 -15.5q23 0 37.5 18.5z" />
    <glyph glyph-name="guillemotleft" unicode="&#xab;" horiz-adv-x="341" 
d="M143 435h25l-69 -183l69 -189h-25l-115 189zM273 435h25l-70 -183l70 -189h-25l-115 189z" />
    <glyph glyph-name="logicalnot" unicode="&#xac;" 
d="M386 317v-201h-38v165h-294v36h332z" />
    <glyph glyph-name="uni00AD" unicode="&#xad;" horiz-adv-x="305" 
d="M253 298v-40h-201v40h201z" />
    <glyph glyph-name="registered" unicode="&#xae;" horiz-adv-x="452" 
d="M323.5 653.5q43.5 -24.5 68.5 -69t25 -104.5t-25 -105t-68.5 -69t-97.5 -24t-97.5 24t-68.5 69t-25 105t25 104.5t68.5 69t97.5 24.5t97.5 -24.5zM310.5 324.5q37.5 21.5 59 62t21.5 93.5q0 80 -46 128t-119 48t-119 -48.5t-46 -127.5q0 -53 21.5 -93t59 -62t84.5 -22
t84.5 21.5zM315.5 374.5q7.5 -4.5 19.5 -4.5v-9q-7 -3 -24 -3q-19 0 -31 7.5t-21 30.5l-16 43q-7 20 -16.5 30t-30.5 10v-81q0 -16 5 -20.5t23 -6.5v-13q-19 3 -52 3q-27 0 -44 -2v12q18 2 23 6.5t5 20.5v178q0 15 -4.5 19.5t-18.5 6.5v12h88q38 0 59 -17t21 -49
q0 -27 -18 -44.5t-49 -19.5q35 -4 50 -42l18 -46q6 -17 13.5 -21.5zM196 596v-102h13q23 0 35 14t12 39q0 26 -12 37.5t-36 11.5h-12z" />
    <glyph glyph-name="degree" unicode="&#xb0;" horiz-adv-x="302" 
d="M64 462.5q-32 34.5 -32 90.5t32 90.5t87 34.5t87 -34.5t32 -90.5t-32 -90.5t-87 -34.5t-87 34.5zM210.5 487q21.5 26 21.5 66t-21.5 66t-59.5 26t-59.5 -26t-21.5 -66t21.5 -66t59.5 -26t59.5 26z" />
    <glyph glyph-name="plusminus" unicode="&#xb1;" 
d="M388 351v-36h-149v-161h-38v161h-149v36h149v161h38v-161h149zM52 106h336v-36h-336v36z" />
    <glyph glyph-name="uni00B2" unicode="&#xb2;" horiz-adv-x="280" 
d="M240 383v-102h-211v40q71 62 106.5 119t35.5 125q0 84 -50 84q-24 0 -41 -23.5t-14 -70.5h-28q-4 59 24 91t73 32q46 0 72.5 -32t26.5 -79q0 -53 -39.5 -109t-117.5 -125h103q20 0 28.5 10t14.5 40h17z" />
    <glyph glyph-name="uni00B3" unicode="&#xb3;" horiz-adv-x="281" 
d="M219 456q25 -27 25 -75q0 -47 -32 -78.5t-81 -31.5q-46 0 -73.5 27.5t-27.5 74.5h28q0 -38 18 -56.5t44 -18.5q34 0 48.5 22t14.5 67q0 43 -18 66t-54 23h-17v26h20q31 0 47 21t16 55q0 73 -49 73q-24 0 -39.5 -18t-16.5 -51h-28q0 41 25.5 68.5t66.5 27.5q42 0 69.5 -25
t27.5 -66q0 -38 -22.5 -63t-56.5 -35q40 -6 65 -33z" />
    <glyph glyph-name="uni03BC" unicode="&#x3bc;" horiz-adv-x="438" 
d="M416 20q-9 -8 -31 -16.5t-44 -8.5q-28 0 -38.5 16.5t-12.5 54.5q-15 -31 -42 -53t-68 -22q-68 0 -90 64q1 -62 4.5 -93t11.5 -46.5t25 -30.5q12 -11 17 -19.5t5 -19.5q0 -14 -9 -22.5t-21 -8.5q-26 0 -41.5 28t-15.5 106v526l68 8v-361q0 -51 17 -70t48 -19q36 0 62 29.5
t26 74.5v338l68 8v-383q0 -38 5 -52.5t20 -14.5q14 0 30 8z" />
    <glyph glyph-name="paragraph" unicode="&#xb6;" horiz-adv-x="469" 
d="M436 644q-28 -1 -40.5 -6t-17 -21t-4.5 -51v-734h-44v802h-72v-802h-44v452h-19q-77 0 -122 49t-45 144q0 92 45 141.5t122 49.5h241v-24z" />
    <glyph glyph-name="periodcentered" unicode="&#xb7;" horiz-adv-x="194" 
d="M57.5 238q-15.5 16 -15.5 40t15.5 40t39.5 16t39 -16t15 -40t-15 -40t-39 -16t-39.5 16z" />
    <glyph glyph-name="uni00B9" unicode="&#xb9;" horiz-adv-x="223" 
d="M151.5 316.5q3.5 -7.5 14.5 -10.5t37 -4v-21h-172v21q37 2 47.5 9t10.5 31v243h-59v20q40 3 65.5 22.5t30.5 50.5h22v-337q0 -17 3.5 -24.5z" />
    <glyph glyph-name="ordmasculine" unicode="&#xba;" horiz-adv-x="316" 
d="M72.5 371.5q-34.5 43.5 -34.5 131.5t34.5 131.5t85.5 43.5t85.5 -43.5t34.5 -131.5t-34.5 -131.5t-85.5 -43.5t-85.5 43.5zM206 388.5q15 36.5 15 114.5t-15 114.5t-48 36.5t-48 -36.5t-15 -114.5t15 -114.5t48 -36.5t48 36.5z" />
    <glyph glyph-name="guillemotright" unicode="&#xbb;" horiz-adv-x="341" 
d="M65 63h-25l70 189l-70 183h25l115 -183zM195 63h-25l69 189l-69 183h25l115 -183z" />
    <glyph glyph-name="onequarter" unicode="&#xbc;" horiz-adv-x="599" 
d="M151.5 316.5q3.5 -7.5 14.5 -10.5t37 -4v-21h-172v21q37 2 47.5 9t10.5 31v243h-59v20q40 3 65.5 22.5t30.5 50.5h22v-337q0 -17 3.5 -24.5zM148 0h-43l359 668h44zM521 102v-43q0 -18 3 -25.5t10.5 -9.5t25.5 -3v-21h-146v21q25 2 34.5 4t13.5 9.5t4 24.5v43h-134v24
l133 261h56v-259h53v-26h-53zM466 128v206l-105 -206h105z" />
    <glyph glyph-name="onehalf" unicode="&#xbd;" horiz-adv-x="637" 
d="M151.5 316.5q3.5 -7.5 14.5 -10.5t37 -4v-21h-172v21q37 2 47.5 9t10.5 31v243h-59v20q40 3 65.5 22.5t30.5 50.5h22v-337q0 -17 3.5 -24.5zM148 0h-43l359 668h44zM597 102v-102h-211v40q71 62 106.5 119t35.5 125q0 84 -50 84q-24 0 -41 -23.5t-14 -70.5h-28
q-4 59 24 91t73 32q46 0 72.5 -32t26.5 -79q0 -53 -39.5 -109t-117.5 -125h103q20 0 28.5 10t14.5 40h17z" />
    <glyph glyph-name="threequarters" unicode="&#xbe;" horiz-adv-x="623" 
d="M219 456q25 -27 25 -75q0 -47 -32 -78.5t-81 -31.5q-46 0 -73.5 27.5t-27.5 74.5h28q0 -38 18 -56.5t44 -18.5q34 0 48.5 22t14.5 67q0 43 -18 66t-54 23h-17v26h20q31 0 47 21t16 55q0 73 -49 73q-24 0 -39.5 -18t-16.5 -51h-28q0 41 25.5 68.5t66.5 27.5q42 0 69.5 -25
t27.5 -66q0 -38 -22.5 -63t-56.5 -35q40 -6 65 -33zM172 0h-43l359 668h44zM545 102v-43q0 -18 3 -25.5t10.5 -9.5t25.5 -3v-21h-146v21q25 2 34.5 4t13.5 9.5t4 24.5v43h-134v24l133 261h56v-259h53v-26h-53zM490 128v206l-105 -206h105z" />
    <glyph glyph-name="questiondown" unicode="&#xbf;" horiz-adv-x="334" 
d="M153 392q-15 16 -15 40t15 40t39 16t39.5 -16t15.5 -40t-15.5 -40t-39.5 -16t-39 16zM312 -39q0 -66 -34.5 -106t-99.5 -40q-72 0 -113 45t-41 110q0 76 41.5 125.5t108.5 69.5v126h37v-152q-59 -18 -86 -57t-27 -108q0 -53 21 -88.5t67 -35.5q44 0 68 28.5t24 82.5h34z
" />
    <glyph glyph-name="Agrave" unicode="&#xc0;" horiz-adv-x="497" 
d="M448 52q10 -15 22 -20t32 -8v-24h-194v24q32 2 43.5 7t11.5 19q0 13 -11 49l-30 100h-191l-28 -100q-2 -8 -6.5 -24.5t-4.5 -24.5q0 -14 11.5 -19t42.5 -7v-24h-153v24q22 3 34 8t21.5 20t18.5 47l161 580h18l182 -581q10 -31 20 -46zM312 234l-89 298l-83 -298h172z
M247 734l-97 58q-19 12 -24.5 21.5t-5.5 19.5q0 15 10 25t23 10t22 -5.5t21 -19.5l89 -109h-38z" />
    <glyph glyph-name="Aacute" unicode="&#xc1;" horiz-adv-x="497" 
d="M448 52q10 -15 22 -20t32 -8v-24h-194v24q32 2 43.5 7t11.5 19q0 13 -11 49l-30 100h-191l-28 -100q-2 -8 -6.5 -24.5t-4.5 -24.5q0 -14 11.5 -19t42.5 -7v-24h-153v24q22 3 34 8t21.5 20t18.5 47l161 580h18l182 -581q10 -31 20 -46zM312 234l-89 298l-83 -298h172z
M277 843q12 14 21 19.5t22 5.5t23 -10t10 -25q0 -10 -5.5 -19.5t-24.5 -21.5l-97 -58h-38z" />
    <glyph glyph-name="Acircumflex" unicode="&#xc2;" horiz-adv-x="497" 
d="M448 52q10 -15 22 -20t32 -8v-24h-194v24q32 2 43.5 7t11.5 19q0 13 -11 49l-30 100h-191l-28 -100q-2 -8 -6.5 -24.5t-4.5 -24.5q0 -14 11.5 -19t42.5 -7v-24h-153v24q22 3 34 8t21.5 20t18.5 47l161 580h18l182 -581q10 -31 20 -46zM312 234l-89 298l-83 -298h172z
M326 743l-87 53l-88 -53h-34l103 106h38l102 -106h-34z" />
    <glyph glyph-name="Atilde" unicode="&#xc3;" horiz-adv-x="497" 
d="M448 52q10 -15 22 -20t32 -8v-24h-194v24q32 2 43.5 7t11.5 19q0 13 -11 49l-30 100h-191l-28 -100q-2 -8 -6.5 -24.5t-4.5 -24.5q0 -14 11.5 -19t42.5 -7v-24h-153v24q22 3 34 8t21.5 20t18.5 47l161 580h18l182 -581q10 -31 20 -46zM312 234l-89 298l-83 -298h172z
M331 804q8 12 13 42h30q-7 -108 -80 -108q-17 0 -34 9.5t-39 26.5q-31 24 -47 24q-18 0 -26.5 -12t-13.5 -42h-30q7 108 81 108q18 0 34 -8.5t36 -25.5q32 -26 50 -26t26 12z" />
    <glyph glyph-name="Adieresis" unicode="&#xc4;" horiz-adv-x="497" 
d="M448 52q10 -15 22 -20t32 -8v-24h-194v24q32 2 43.5 7t11.5 19q0 13 -11 49l-30 100h-191l-28 -100q-2 -8 -6.5 -24.5t-4.5 -24.5q0 -14 11.5 -19t42.5 -7v-24h-153v24q22 3 34 8t21.5 20t18.5 47l161 580h18l182 -581q10 -31 20 -46zM312 234l-89 298l-83 -298h172z
M124 748.5q-13 13.5 -13 34.5q0 20 13 33.5t33 13.5q22 0 35 -13t13 -34t-13 -34.5t-35 -13.5q-20 0 -33 13.5zM286 748.5q-13 13.5 -13 34.5t13 34t35 13q20 0 33 -13.5t13 -33.5q0 -21 -13 -34.5t-33 -13.5q-22 0 -35 13.5z" />
    <glyph glyph-name="Aring" unicode="&#xc5;" horiz-adv-x="497" 
d="M448 52q10 -15 22 -20t32 -8v-24h-194v24q32 2 43.5 7t11.5 19q0 13 -11 49l-30 100h-191l-28 -100q-2 -8 -6.5 -24.5t-4.5 -24.5q0 -14 11.5 -19t42.5 -7v-24h-153v24q22 3 34 8t21.5 20t18.5 47l161 580h18l182 -581q10 -31 20 -46zM312 234l-89 298l-83 -298h172z
M181.5 757q-23.5 23 -23.5 57t23.5 57t57.5 23t57.5 -23t23.5 -57t-23.5 -57t-57.5 -23t-57.5 23zM275 776.5q14 14.5 14 37.5q0 24 -14 38t-36 14t-36 -14t-14 -38q0 -23 14 -37.5t36 -14.5t36 14.5z" />
    <glyph glyph-name="AE" unicode="&#xc6;" horiz-adv-x="697" 
d="M659 164v-164h-379v24q29 3 41.5 8.5t17 21t4.5 49.5v124h-181l-57 -128q-13 -31 -13 -44q0 -15 13 -22t43 -9v-24h-154v24q25 3 39.5 17t34.5 58l253 569h321v-155h-24q-7 48 -17 74t-27 36t-45 10h-114v-269h93q25 0 34.5 16t11.5 62h24v-191h-24q-2 45 -11.5 61.5
t-34.5 16.5h-93v-254q0 -23 9 -31.5t40 -8.5h82q28 0 45 11t27 38.5t17 79.5h24zM343 262v368l-165 -368h165z" />
    <glyph glyph-name="Ccedilla" unicode="&#xc7;" horiz-adv-x="480" 
d="M72 520.5q30 77.5 83 117.5t119 40q86 0 163 -59v-151h-24q-13 94 -48.5 134.5t-90.5 40.5q-79 0 -117.5 -80t-38.5 -229q0 -154 39 -231.5t120 -77.5q52 0 87.5 46.5t42.5 135.5h35q-9 -108 -55.5 -162.5t-122.5 -54.5q-64 0 -114 40t-79 117.5t-29 186.5t30 186.5z
M326 -72q20 -17 20 -46q0 -30 -23 -48.5t-59 -18.5q-46 0 -70 33l17 17q20 -24 43 -24q19 0 30 11t11 29q0 17 -11 27.5t-28 10.5q-11 0 -17 -3.5t-12 -10.5l-19 10l57 96l25 -1l-41 -69q9 4 26 4q31 0 51 -17z" />
    <glyph glyph-name="Egrave" unicode="&#xc8;" horiz-adv-x="462" 
d="M424 164v-164h-389v24q29 3 41.5 8.5t17 21t4.5 49.5v462q0 34 -4.5 49.5t-17 21t-41.5 8.5v24h372v-155h-24q-7 48 -17 74t-27 36t-45 10h-124v-269h103q25 0 34.5 16t11.5 62h24v-191h-24q-2 45 -11.5 61.5t-34.5 16.5h-103v-254q0 -23 9 -31.5t40 -8.5h92q28 0 45 11
t27 38.5t17 79.5h24zM254 734l-97 58q-19 12 -24.5 21.5t-5.5 19.5q0 15 10 25t23 10t22 -5.5t21 -19.5l89 -109h-38z" />
    <glyph glyph-name="Eacute" unicode="&#xc9;" horiz-adv-x="462" 
d="M424 164v-164h-389v24q29 3 41.5 8.5t17 21t4.5 49.5v462q0 34 -4.5 49.5t-17 21t-41.5 8.5v24h372v-155h-24q-7 48 -17 74t-27 36t-45 10h-124v-269h103q25 0 34.5 16t11.5 62h24v-191h-24q-2 45 -11.5 61.5t-34.5 16.5h-103v-254q0 -23 9 -31.5t40 -8.5h92q28 0 45 11
t27 38.5t17 79.5h24zM284 843q12 14 21 19.5t22 5.5t23 -10t10 -25q0 -10 -5.5 -19.5t-24.5 -21.5l-97 -58h-38z" />
    <glyph glyph-name="Ecircumflex" unicode="&#xca;" horiz-adv-x="462" 
d="M424 164v-164h-389v24q29 3 41.5 8.5t17 21t4.5 49.5v462q0 34 -4.5 49.5t-17 21t-41.5 8.5v24h372v-155h-24q-7 48 -17 74t-27 36t-45 10h-124v-269h103q25 0 34.5 16t11.5 62h24v-191h-24q-2 45 -11.5 61.5t-34.5 16.5h-103v-254q0 -23 9 -31.5t40 -8.5h92q28 0 45 11
t27 38.5t17 79.5h24zM333 743l-87 53l-88 -53h-34l103 106h38l102 -106h-34z" />
    <glyph glyph-name="Edieresis" unicode="&#xcb;" horiz-adv-x="462" 
d="M424 164v-164h-389v24q29 3 41.5 8.5t17 21t4.5 49.5v462q0 34 -4.5 49.5t-17 21t-41.5 8.5v24h372v-155h-24q-7 48 -17 74t-27 36t-45 10h-124v-269h103q25 0 34.5 16t11.5 62h24v-191h-24q-2 45 -11.5 61.5t-34.5 16.5h-103v-254q0 -23 9 -31.5t40 -8.5h92q28 0 45 11
t27 38.5t17 79.5h24zM131 748.5q-13 13.5 -13 34.5q0 20 13 33.5t33 13.5q22 0 35 -13t13 -34t-13 -34.5t-35 -13.5q-20 0 -33 13.5zM293 748.5q-13 13.5 -13 34.5t13 34t35 13q20 0 33 -13.5t13 -33.5q0 -21 -13 -34.5t-33 -13.5q-22 0 -35 13.5z" />
    <glyph glyph-name="Igrave" unicode="&#xcc;" horiz-adv-x="270" 
d="M94.5 614.5q-4.5 15.5 -17 21t-41.5 8.5v24h198v-24q-29 -3 -41.5 -8.5t-17 -21t-4.5 -49.5v-462q0 -34 4.5 -49.5t17 -21t41.5 -8.5v-24h-198v24q29 3 41.5 8.5t17 21t4.5 49.5v462q0 34 -4.5 49.5zM143 734l-97 58q-19 12 -24.5 21.5t-5.5 19.5q0 15 10 25t23 10
t22 -5.5t21 -19.5l89 -109h-38z" />
    <glyph glyph-name="Iacute" unicode="&#xcd;" horiz-adv-x="270" 
d="M94.5 614.5q-4.5 15.5 -17 21t-41.5 8.5v24h198v-24q-29 -3 -41.5 -8.5t-17 -21t-4.5 -49.5v-462q0 -34 4.5 -49.5t17 -21t41.5 -8.5v-24h-198v24q29 3 41.5 8.5t17 21t4.5 49.5v462q0 34 -4.5 49.5zM173 843q12 14 21 19.5t22 5.5t23 -10t10 -25q0 -10 -5.5 -19.5
t-24.5 -21.5l-97 -58h-38z" />
    <glyph glyph-name="Icircumflex" unicode="&#xce;" horiz-adv-x="270" 
d="M59 743h-32l89 106h38l88 -106h-32l-75 52zM234 644q-29 -3 -41.5 -8.5t-17 -21t-4.5 -49.5v-462q0 -34 4.5 -49.5t17 -21t41.5 -8.5v-24h-198v24q29 3 41.5 8.5t17 21t4.5 49.5v462q0 34 -4.5 49.5t-17 21t-41.5 8.5v24h198v-24z" />
    <glyph glyph-name="Idieresis" unicode="&#xcf;" horiz-adv-x="270" 
d="M32 748.5q-13 13.5 -13 34.5q0 20 13 33.5t33 13.5q22 0 35 -13t13 -34t-13 -34.5t-35 -13.5q-20 0 -33 13.5zM170 748.5q-13 13.5 -13 34.5t13 34t35 13q20 0 33 -13.5t13 -33.5q0 -21 -13 -34.5t-33 -13.5q-22 0 -35 13.5zM94.5 614.5q-4.5 15.5 -17 21t-41.5 8.5v24
h198v-24q-29 -3 -41.5 -8.5t-17 -21t-4.5 -49.5v-462q0 -34 4.5 -49.5t17 -21t41.5 -8.5v-24h-198v24q29 3 41.5 8.5t17 21t4.5 49.5v462q0 34 -4.5 49.5z" />
    <glyph glyph-name="Eth" unicode="&#xd0;" horiz-adv-x="539" 
d="M365 626.5q59 -41.5 93.5 -117.5t34.5 -175t-34.5 -175t-93.5 -117.5t-130 -41.5h-198v24q29 3 41.5 8.5t17 21t4.5 49.5v225h-69v33h69v204q0 34 -4.5 49.5t-17 21t-41.5 8.5v24h198q71 0 130 -41.5zM368.5 116.5q48.5 81.5 48.5 217.5t-48.5 217.5t-141.5 81.5h-55
v-272h108v-33h-108v-253q0 -23 9 -31.5t40 -8.5h6q93 0 141.5 81.5z" />
    <glyph glyph-name="Ntilde" unicode="&#xd1;" horiz-adv-x="548" 
d="M523 644q-29 -3 -41.5 -8.5t-17 -21t-4.5 -49.5v-575h-18l-314 594v-481q0 -34 5 -49.5t19 -21t47 -8.5v-24h-169v24q29 3 41.5 8.5t17 21t4.5 49.5v462q0 34 -4.5 49.5t-17 21t-41.5 8.5v24h132l263 -499v396q0 34 -5 49.5t-19 21t-47 8.5v24h169v-24zM369 804
q8 12 13 42h30q-7 -108 -80 -108q-17 0 -34 9.5t-39 26.5q-31 24 -47 24q-18 0 -26.5 -12t-13.5 -42h-30q7 108 81 108q18 0 34 -8.5t36 -25.5q32 -26 50 -26t26 12z" />
    <glyph glyph-name="Ograve" unicode="&#xd2;" horiz-adv-x="546" 
d="M156.5 29.5q-51.5 39.5 -81.5 117.5t-30 187t30 186.5t81.5 117.5t115.5 40t115.5 -40t82 -118t30.5 -186q0 -109 -30.5 -187t-82 -117.5t-115.5 -39.5t-115.5 39.5zM385.5 106.5q38.5 81.5 38.5 227.5t-38.5 227.5t-113.5 81.5t-113 -81t-38 -228t38 -228t113 -81
t113.5 81.5zM281 734l-97 58q-19 12 -24.5 21.5t-5.5 19.5q0 15 10 25t23 10t22 -5.5t21 -19.5l89 -109h-38z" />
    <glyph glyph-name="Oacute" unicode="&#xd3;" horiz-adv-x="546" 
d="M156.5 29.5q-51.5 39.5 -81.5 117.5t-30 187t30 186.5t81.5 117.5t115.5 40t115.5 -40t82 -118t30.5 -186q0 -109 -30.5 -187t-82 -117.5t-115.5 -39.5t-115.5 39.5zM385.5 106.5q38.5 81.5 38.5 227.5t-38.5 227.5t-113.5 81.5t-113 -81t-38 -228t38 -228t113 -81
t113.5 81.5zM311 843q12 14 21 19.5t22 5.5t23 -10t10 -25q0 -10 -5.5 -19.5t-24.5 -21.5l-97 -58h-38z" />
    <glyph glyph-name="Ocircumflex" unicode="&#xd4;" horiz-adv-x="546" 
d="M156.5 29.5q-51.5 39.5 -81.5 117.5t-30 187t30 186.5t81.5 117.5t115.5 40t115.5 -40t82 -118t30.5 -186q0 -109 -30.5 -187t-82 -117.5t-115.5 -39.5t-115.5 39.5zM385.5 106.5q38.5 81.5 38.5 227.5t-38.5 227.5t-113.5 81.5t-113 -81t-38 -228t38 -228t113 -81
t113.5 81.5zM360 743l-87 53l-88 -53h-34l103 106h38l102 -106h-34z" />
    <glyph glyph-name="Otilde" unicode="&#xd5;" horiz-adv-x="546" 
d="M156.5 29.5q-51.5 39.5 -81.5 117.5t-30 187t30 186.5t81.5 117.5t115.5 40t115.5 -40t82 -118t30.5 -186q0 -109 -30.5 -187t-82 -117.5t-115.5 -39.5t-115.5 39.5zM385.5 106.5q38.5 81.5 38.5 227.5t-38.5 227.5t-113.5 81.5t-113 -81t-38 -228t38 -228t113 -81
t113.5 81.5zM365 804q8 12 13 42h30q-7 -108 -80 -108q-17 0 -34 9.5t-39 26.5q-31 24 -47 24q-18 0 -26.5 -12t-13.5 -42h-30q7 108 81 108q18 0 34 -8.5t36 -25.5q32 -26 50 -26t26 12z" />
    <glyph glyph-name="Odieresis" unicode="&#xd6;" horiz-adv-x="546" 
d="M156.5 29.5q-51.5 39.5 -81.5 117.5t-30 187t30 186.5t81.5 117.5t115.5 40t115.5 -40t82 -118t30.5 -186q0 -109 -30.5 -187t-82 -117.5t-115.5 -39.5t-115.5 39.5zM385.5 106.5q38.5 81.5 38.5 227.5t-38.5 227.5t-113.5 81.5t-113 -81t-38 -228t38 -228t113 -81
t113.5 81.5zM158 748.5q-13 13.5 -13 34.5q0 20 13 33.5t33 13.5q22 0 35 -13t13 -34t-13 -34.5t-35 -13.5q-20 0 -33 13.5zM320 748.5q-13 13.5 -13 34.5t13 34t35 13q20 0 33 -13.5t13 -33.5q0 -21 -13 -34.5t-33 -13.5q-22 0 -35 13.5z" />
    <glyph glyph-name="multiply" unicode="&#xd7;" 
d="M244 299l142 -149l-25 -25l-141 148l-141 -148l-25 25l142 149l-142 149l25 25l141 -148l141 148l25 -25z" />
    <glyph glyph-name="Oslash" unicode="&#xd8;" horiz-adv-x="547" 
d="M480.5 487q19.5 -67 19.5 -153q0 -109 -30.5 -187t-82 -117.5t-115.5 -39.5q-75 0 -131 53l-36 -68l-31 14l42 82q-33 44 -52 111t-19 152q0 109 30 186.5t81.5 117.5t115.5 40q74 0 129 -52l32 65l32 -14l-39 -78q35 -45 54.5 -112zM159 562q-38 -81 -38 -228
q0 -127 28 -204l227 450q-38 63 -104 63q-75 0 -113 -81zM385.5 106.5q38.5 81.5 38.5 227.5q0 129 -30 207l-227 -451q39 -65 105 -65q75 0 113.5 81.5z" />
    <glyph glyph-name="Ugrave" unicode="&#xd9;" horiz-adv-x="556" 
d="M428.5 614.5q-4.5 15.5 -17 21t-41.5 8.5v24h161v-24q-29 -3 -41.5 -8.5t-17 -21t-4.5 -49.5v-383q0 -94 -49 -143t-139 -49q-89 0 -140.5 50t-51.5 138v387q0 34 -4.5 49.5t-17 21t-41.5 8.5v24h198v-24q-29 -3 -41.5 -8.5t-17 -21t-4.5 -49.5v-377q0 -83 34.5 -123
t96.5 -40q70 0 106 39.5t36 123.5v377q0 34 -4.5 49.5zM299 734l-97 58q-19 12 -24.5 21.5t-5.5 19.5q0 15 10 25t23 10t22 -5.5t21 -19.5l89 -109h-38z" />
    <glyph glyph-name="Uacute" unicode="&#xda;" horiz-adv-x="556" 
d="M428.5 614.5q-4.5 15.5 -17 21t-41.5 8.5v24h161v-24q-29 -3 -41.5 -8.5t-17 -21t-4.5 -49.5v-383q0 -94 -49 -143t-139 -49q-89 0 -140.5 50t-51.5 138v387q0 34 -4.5 49.5t-17 21t-41.5 8.5v24h198v-24q-29 -3 -41.5 -8.5t-17 -21t-4.5 -49.5v-377q0 -83 34.5 -123
t96.5 -40q70 0 106 39.5t36 123.5v377q0 34 -4.5 49.5zM329 843q12 14 21 19.5t22 5.5t23 -10t10 -25q0 -10 -5.5 -19.5t-24.5 -21.5l-97 -58h-38z" />
    <glyph glyph-name="Ucircumflex" unicode="&#xdb;" horiz-adv-x="556" 
d="M428.5 614.5q-4.5 15.5 -17 21t-41.5 8.5v24h161v-24q-29 -3 -41.5 -8.5t-17 -21t-4.5 -49.5v-383q0 -94 -49 -143t-139 -49q-89 0 -140.5 50t-51.5 138v387q0 34 -4.5 49.5t-17 21t-41.5 8.5v24h198v-24q-29 -3 -41.5 -8.5t-17 -21t-4.5 -49.5v-377q0 -83 34.5 -123
t96.5 -40q70 0 106 39.5t36 123.5v377q0 34 -4.5 49.5zM378 743l-87 53l-88 -53h-34l103 106h38l102 -106h-34z" />
    <glyph glyph-name="Udieresis" unicode="&#xdc;" horiz-adv-x="556" 
d="M428.5 614.5q-4.5 15.5 -17 21t-41.5 8.5v24h161v-24q-29 -3 -41.5 -8.5t-17 -21t-4.5 -49.5v-383q0 -94 -49 -143t-139 -49q-89 0 -140.5 50t-51.5 138v387q0 34 -4.5 49.5t-17 21t-41.5 8.5v24h198v-24q-29 -3 -41.5 -8.5t-17 -21t-4.5 -49.5v-377q0 -83 34.5 -123
t96.5 -40q70 0 106 39.5t36 123.5v377q0 34 -4.5 49.5zM176 748.5q-13 13.5 -13 34.5q0 20 13 33.5t33 13.5q22 0 35 -13t13 -34t-13 -34.5t-35 -13.5q-20 0 -33 13.5zM338 748.5q-13 13.5 -13 34.5t13 34t35 13q20 0 33 -13.5t13 -33.5q0 -21 -13 -34.5t-33 -13.5
q-22 0 -35 13.5z" />
    <glyph glyph-name="Yacute" unicode="&#xdd;" horiz-adv-x="483" 
d="M482 668v-24q-21 -3 -33.5 -8t-25 -19t-25.5 -43l-115 -261v-210q0 -34 4.5 -49t18 -21t44.5 -9v-24h-206v24q31 3 44.5 8.5t18 21t4.5 49.5v199l-133 273q-19 39 -36.5 51.5t-43.5 17.5v24h190v-24q-28 -3 -38.5 -6.5t-10.5 -14.5q0 -13 17 -47l108 -218l97 216
q16 37 16 48q0 12 -10.5 16t-36.5 6v24h152zM294 843q12 14 21 19.5t22 5.5t23 -10t10 -25q0 -10 -5.5 -19.5t-24.5 -21.5l-97 -58h-38z" />
    <glyph glyph-name="Thorn" unicode="&#xde;" horiz-adv-x="480" 
d="M390 472.5q53 -49.5 53 -133.5t-53 -133.5t-147 -49.5h-72v-53q0 -34 4.5 -49.5t17 -21t41.5 -8.5v-24h-198v24q29 3 41.5 8.5t17 21t4.5 49.5v462q0 34 -4.5 49.5t-17 21t-41.5 8.5v24h198v-24q-29 -3 -41.5 -8.5t-17 -21t-4.5 -49.5v-43h72q94 0 147 -49.5zM332.5 230
q34.5 39 34.5 109t-34.5 109t-104.5 39h-57v-296h57q70 0 104.5 39z" />
    <glyph glyph-name="germandbls" unicode="&#xdf;" horiz-adv-x="443" 
d="M367 340q39 -52 39 -140q0 -60 -23 -107t-62 -72.5t-83 -25.5q-21 0 -31 1v33q18 -2 29 -2q50 0 74 50t24 127q0 76 -30.5 130t-83.5 54h-13v32h2q44 0 64.5 37t20.5 89q0 41 -15.5 70.5t-52.5 29.5q-79 0 -79 -122v-524h-120v24q24 3 34.5 8.5t14 20t3.5 45.5v378
q0 105 45 153.5t107 48.5q41 0 70.5 -18t44.5 -47.5t15 -61.5q0 -51 -27 -88.5t-67 -54.5q61 -16 100 -68z" />
    <glyph glyph-name="agrave" unicode="&#xe0;" horiz-adv-x="386" 
d="M325.5 37q12.5 -12 43.5 -11v-24q-3 -1 -19.5 -4.5t-35.5 -3.5q-58 0 -58 71v4q-15 -39 -42.5 -59t-63.5 -20q-53 0 -81 36.5t-28 97.5q0 68 36.5 105.5t110.5 57.5l23 6q5 1 15.5 4.5t18.5 4.5v73q0 43 -15.5 62t-45.5 19q-28 0 -44 -20.5t-16 -50.5q0 -21 -8 -29.5
t-24 -8.5q-32 0 -32 36q0 25 17.5 49.5t46 40t60.5 15.5q61 0 95 -39.5t34 -103.5v-261q0 -35 12.5 -47zM225.5 65.5q19.5 30.5 19.5 84.5v121q-17 -4 -49 -14q-48 -15 -65.5 -47t-17.5 -82q0 -45 17 -69t48 -24q28 0 47.5 30.5zM185 534l-92 96q-12 12 -12 26t11 25t27 11
q23 0 36 -28l63 -130h-33z" />
    <glyph glyph-name="aacute" unicode="&#xe1;" horiz-adv-x="386" 
d="M325.5 37q12.5 -12 43.5 -11v-24q-3 -1 -19.5 -4.5t-35.5 -3.5q-58 0 -58 71v4q-15 -39 -42.5 -59t-63.5 -20q-53 0 -81 36.5t-28 97.5q0 68 36.5 105.5t110.5 57.5l23 6q5 1 15.5 4.5t18.5 4.5v73q0 43 -15.5 62t-45.5 19q-28 0 -44 -20.5t-16 -50.5q0 -21 -8 -29.5
t-24 -8.5q-32 0 -32 36q0 25 17.5 49.5t46 40t60.5 15.5q61 0 95 -39.5t34 -103.5v-261q0 -35 12.5 -47zM225.5 65.5q19.5 30.5 19.5 84.5v121q-17 -4 -49 -14q-48 -15 -65.5 -47t-17.5 -82q0 -45 17 -69t48 -24q28 0 47.5 30.5zM225 664q13 28 36 28q16 0 27 -11t11 -25
t-12 -26l-92 -96h-33z" />
    <glyph glyph-name="acircumflex" unicode="&#xe2;" horiz-adv-x="386" 
d="M325.5 37q12.5 -12 43.5 -11v-24q-3 -1 -19.5 -4.5t-35.5 -3.5q-58 0 -58 71v4q-15 -39 -42.5 -59t-63.5 -20q-53 0 -81 36.5t-28 97.5q0 68 36.5 105.5t110.5 57.5l23 6q5 1 15.5 4.5t18.5 4.5v73q0 43 -15.5 62t-45.5 19q-28 0 -44 -20.5t-16 -50.5q0 -21 -8 -29.5
t-24 -8.5q-32 0 -32 36q0 25 17.5 49.5t46 40t60.5 15.5q61 0 95 -39.5t34 -103.5v-261q0 -35 12.5 -47zM225.5 65.5q19.5 30.5 19.5 84.5v121q-17 -4 -49 -14q-48 -15 -65.5 -47t-17.5 -82q0 -45 17 -69t48 -24q28 0 47.5 30.5zM272 543l-82 68l-83 -68h-32l96 125h38
l95 -125h-32z" />
    <glyph glyph-name="atilde" unicode="&#xe3;" horiz-adv-x="386" 
d="M325.5 37q12.5 -12 43.5 -11v-24q-3 -1 -19.5 -4.5t-35.5 -3.5q-58 0 -58 71v4q-15 -39 -42.5 -59t-63.5 -20q-53 0 -81 36.5t-28 97.5q0 68 36.5 105.5t110.5 57.5l23 6q5 1 15.5 4.5t18.5 4.5v73q0 43 -15.5 62t-45.5 19q-28 0 -44 -20.5t-16 -50.5q0 -21 -8 -29.5
t-24 -8.5q-32 0 -32 36q0 25 17.5 49.5t46 40t60.5 15.5q61 0 95 -39.5t34 -103.5v-261q0 -35 12.5 -47zM225.5 65.5q19.5 30.5 19.5 84.5v121q-17 -4 -49 -14q-48 -15 -65.5 -47t-17.5 -82q0 -45 17 -69t48 -24q28 0 47.5 30.5zM273.5 602q7.5 12 13.5 43h30
q-7 -108 -76 -108q-17 0 -33 9.5t-37 26.5q-15 13 -25 19t-18 6q-15 0 -22.5 -12t-13.5 -43h-30q7 108 76 108q17 0 32.5 -8.5t34.5 -25.5q17 -14 27 -20.5t19 -6.5q15 0 22.5 12z" />
    <glyph glyph-name="adieresis" unicode="&#xe4;" horiz-adv-x="386" 
d="M325.5 37q12.5 -12 43.5 -11v-24q-3 -1 -19.5 -4.5t-35.5 -3.5q-58 0 -58 71v4q-15 -39 -42.5 -59t-63.5 -20q-53 0 -81 36.5t-28 97.5q0 68 36.5 105.5t110.5 57.5l23 6q5 1 15.5 4.5t18.5 4.5v73q0 43 -15.5 62t-45.5 19q-28 0 -44 -20.5t-16 -50.5q0 -21 -8 -29.5
t-24 -8.5q-32 0 -32 36q0 25 17.5 49.5t46 40t60.5 15.5q61 0 95 -39.5t34 -103.5v-261q0 -35 12.5 -47zM225.5 65.5q19.5 30.5 19.5 84.5v121q-17 -4 -49 -14q-48 -15 -65.5 -47t-17.5 -82q0 -45 17 -69t48 -24q28 0 47.5 30.5zM83 572.5q-13 13.5 -13 33.5t13 33.5
t33 13.5q21 0 34 -13t13 -34t-13 -34t-34 -13q-20 0 -33 13.5zM230 572q-13 13 -13 34t13 34t34 13q20 0 33 -13.5t13 -33.5t-13 -33.5t-33 -13.5q-21 0 -34 13z" />
    <glyph glyph-name="aring" unicode="&#xe5;" horiz-adv-x="386" 
d="M325.5 37q12.5 -12 43.5 -11v-24q-3 -1 -19.5 -4.5t-35.5 -3.5q-58 0 -58 71v4q-15 -39 -42.5 -59t-63.5 -20q-53 0 -81 36.5t-28 97.5q0 68 36.5 105.5t110.5 57.5l23 6q5 1 15.5 4.5t18.5 4.5v73q0 43 -15.5 62t-45.5 19q-28 0 -44 -20.5t-16 -50.5q0 -21 -8 -29.5
t-24 -8.5q-32 0 -32 36q0 25 17.5 49.5t46 40t60.5 15.5q61 0 95 -39.5t34 -103.5v-261q0 -35 12.5 -47zM225.5 65.5q19.5 30.5 19.5 84.5v121q-17 -4 -49 -14q-48 -15 -65.5 -47t-17.5 -82q0 -45 17 -69t48 -24q28 0 47.5 30.5zM132.5 557q-23.5 23 -23.5 57t23.5 57
t57.5 23t57.5 -23t23.5 -57t-23.5 -57t-57.5 -23t-57.5 23zM226 576.5q14 14.5 14 37.5q0 24 -14 38t-36 14t-36 -14t-14 -38q0 -23 14 -37.5t36 -14.5t36 14.5z" />
    <glyph glyph-name="ae" unicode="&#xe6;" horiz-adv-x="594" 
d="M324 249v-11q0 -115 24.5 -165.5t77.5 -50.5q40 0 65 32.5t28 86.5h33q-5 -69 -39.5 -110t-94.5 -41q-50 0 -85.5 28t-53.5 81q-12 -50 -43.5 -79.5t-74.5 -29.5q-58 0 -88 36.5t-30 97.5q0 118 122 146q44 9 87 11v94q0 43 -16.5 62t-47.5 19q-28 0 -45 -20.5t-17 -50.5
q0 -21 -8 -29.5t-24 -8.5q-32 0 -32 36q0 25 17.5 49.5t47 40t61.5 15.5q40 0 69.5 -18.5t44.5 -51.5q16 33 45 51.5t60 18.5q43 0 76.5 -28t52 -80t18.5 -122v-9h-230zM349 412.5q-20 -43.5 -24 -131.5h159q0 82 -19.5 128.5t-57.5 46.5t-58 -43.5zM231.5 65
q20.5 30 20.5 85v100q-37 -2 -67 -9q-40 -10 -55 -39.5t-15 -73.5t17 -68.5t47 -24.5q32 0 52.5 30z" />
    <glyph glyph-name="ccedilla" unicode="&#xe7;" horiz-adv-x="358" 
d="M296 336q-5 60 -27 90t-64 30q-48 0 -73 -57t-25 -161q0 -216 99 -216q39 0 62.5 31t28.5 88h33q-6 -72 -40.5 -111.5t-95.5 -39.5q-48 0 -84 31.5t-55.5 88t-19.5 128.5q0 76 23 132.5t62.5 87t85.5 30.5q62 0 114 -43v-109h-24zM255.5 -72.5q18.5 -17.5 18.5 -46.5
t-21.5 -47.5t-56.5 -18.5q-42 0 -66 33l17 16q19 -23 39 -23q18 0 28 10.5t10 28.5q0 17 -10 28t-26 11q-15 0 -26 -14l-18 10l53 96l25 -1l-38 -70q7 5 23 5q30 0 48.5 -17.5z" />
    <glyph glyph-name="egrave" unicode="&#xe8;" horiz-adv-x="385" 
d="M109 249v-11q0 -115 25.5 -165.5t80.5 -50.5q41 0 67.5 32.5t29.5 86.5h33q-5 -69 -41 -110t-97 -41q-84 0 -127 64.5t-43 183.5q0 78 21.5 134.5t57.5 86t80 29.5t78 -28t53.5 -80t19.5 -122v-9h-238zM135 412.5q-21 -43.5 -25 -131.5h167q0 82 -20.5 128.5t-60.5 46.5
t-61 -43.5zM192 534l-92 96q-12 12 -12 26t11 25t27 11q23 0 36 -28l63 -130h-33z" />
    <glyph glyph-name="eacute" unicode="&#xe9;" horiz-adv-x="385" 
d="M109 249v-11q0 -115 25.5 -165.5t80.5 -50.5q41 0 67.5 32.5t29.5 86.5h33q-5 -69 -41 -110t-97 -41q-84 0 -127 64.5t-43 183.5q0 78 21.5 134.5t57.5 86t80 29.5t78 -28t53.5 -80t19.5 -122v-9h-238zM135 412.5q-21 -43.5 -25 -131.5h167q0 82 -20.5 128.5t-60.5 46.5
t-61 -43.5zM232 664q13 28 36 28q16 0 27 -11t11 -25t-12 -26l-92 -96h-33z" />
    <glyph glyph-name="ecircumflex" unicode="&#xea;" horiz-adv-x="385" 
d="M109 249v-11q0 -115 25.5 -165.5t80.5 -50.5q41 0 67.5 32.5t29.5 86.5h33q-5 -69 -41 -110t-97 -41q-84 0 -127 64.5t-43 183.5q0 78 21.5 134.5t57.5 86t80 29.5t78 -28t53.5 -80t19.5 -122v-9h-238zM135 412.5q-21 -43.5 -25 -131.5h167q0 82 -20.5 128.5t-60.5 46.5
t-61 -43.5zM279 543l-82 68l-83 -68h-32l96 125h38l95 -125h-32z" />
    <glyph glyph-name="edieresis" unicode="&#xeb;" horiz-adv-x="385" 
d="M109 249v-11q0 -115 25.5 -165.5t80.5 -50.5q41 0 67.5 32.5t29.5 86.5h33q-5 -69 -41 -110t-97 -41q-84 0 -127 64.5t-43 183.5q0 78 21.5 134.5t57.5 86t80 29.5t78 -28t53.5 -80t19.5 -122v-9h-238zM135 412.5q-21 -43.5 -25 -131.5h167q0 82 -20.5 128.5t-60.5 46.5
t-61 -43.5zM90 572.5q-13 13.5 -13 33.5t13 33.5t33 13.5q21 0 34 -13t13 -34t-13 -34t-34 -13q-20 0 -33 13.5zM237 572q-13 13 -13 34t13 34t34 13q20 0 33 -13.5t13 -33.5t-13 -33.5t-33 -13.5q-21 0 -34 13z" />
    <glyph glyph-name="igrave" unicode="&#xec;" horiz-adv-x="229" 
d="M79 425.5q-4 14.5 -15.5 20.5t-36.5 8v24h124v-380q0 -31 3.5 -45.5t14 -20t34.5 -8.5v-24h-172v24q24 3 34.5 8.5t14 20t3.5 45.5v281q0 32 -4 46.5zM108 534l-92 96q-12 12 -12 26t11 25t27 11q23 0 36 -28l63 -130h-33z" />
    <glyph glyph-name="iacute" unicode="&#xed;" horiz-adv-x="229" 
d="M79 425.5q-4 14.5 -15.5 20.5t-36.5 8v24h124v-380q0 -31 3.5 -45.5t14 -20t34.5 -8.5v-24h-172v24q24 3 34.5 8.5t14 20t3.5 45.5v281q0 32 -4 46.5zM148 664q13 28 36 28q16 0 27 -11t11 -25t-12 -26l-92 -96h-33z" />
    <glyph glyph-name="icircumflex" unicode="&#xee;" horiz-adv-x="229" 
d="M43 543h-32l83 125h38l82 -125h-32l-69 68zM154.5 52.5q3.5 -14.5 14 -20t34.5 -8.5v-24h-172v24q24 3 34.5 8.5t14 20t3.5 45.5v281q0 32 -4 46.5t-15.5 20.5t-36.5 8v24h124v-380q0 -31 3.5 -45.5z" />
    <glyph glyph-name="idieresis" unicode="&#xef;" horiz-adv-x="229" 
d="M13 572.5q-13 13.5 -13 33.5t13 33.5t33 13.5q21 0 34 -13t13 -34t-13 -34t-34 -13q-20 0 -33 13.5zM146 572q-13 13 -13 34t13 34t34 13q20 0 33 -13.5t13 -33.5t-13 -33.5t-33 -13.5q-21 0 -34 13zM79 425.5q-4 14.5 -15.5 20.5t-36.5 8v24h124v-380q0 -31 3.5 -45.5
t14 -20t34.5 -8.5v-24h-172v24q24 3 34.5 8.5t14 20t3.5 45.5v281q0 32 -4 46.5z" />
    <glyph glyph-name="eth" unicode="&#xf0;" horiz-adv-x="416" 
d="M371 252q0 -135 -45.5 -198.5t-122.5 -63.5q-45 0 -82.5 26t-59.5 78t-22 128q0 117 46.5 170.5t116.5 53.5q50 0 81 -34q-21 85 -67 140l-109 -54l-14 27l101 51q-50 47 -125 74l11 29q96 -27 159 -80l101 51l13 -28l-90 -45q108 -110 108 -325zM275.5 72.5
q23.5 50.5 23.5 169.5q0 81 -22.5 126.5t-68.5 45.5q-49 0 -73 -50.5t-24 -141.5q0 -200 97 -200q44 0 67.5 50.5z" />
    <glyph glyph-name="ntilde" unicode="&#xf1;" horiz-adv-x="449" 
d="M376.5 52.5q3.5 -14.5 14 -20t34.5 -8.5v-24h-168v24q22 3 31.5 8.5t13 20t3.5 45.5v272q0 43 -15 62t-45 19q-39 0 -66 -36t-27 -88v-229q0 -31 3.5 -45.5t13 -20t31.5 -8.5v-24h-168v24q24 3 34.5 8.5t14 20t3.5 45.5v281q0 32 -4 46.5t-15.5 20.5t-36.5 8v24h115v-76
q15 40 45.5 63t70.5 23q54 0 84 -38.5t30 -106.5v-245q0 -31 3.5 -45.5zM311.5 602q7.5 12 13.5 43h30q-7 -108 -76 -108q-17 0 -33 9.5t-37 26.5q-15 13 -25 19t-18 6q-15 0 -22.5 -12t-13.5 -43h-30q7 108 76 108q17 0 32.5 -8.5t34.5 -25.5q17 -14 27 -20.5t19 -6.5
q15 0 22.5 12z" />
    <glyph glyph-name="ograve" unicode="&#xf2;" horiz-adv-x="408" 
d="M119.5 20.5q-38.5 30.5 -60.5 87t-22 131.5t22 131.5t60.5 87t84.5 30.5t84.5 -30.5t60.5 -87t22 -131.5t-22 -131.5t-60.5 -87t-84.5 -30.5t-84.5 30.5zM276 77q23 55 23 162t-23 162t-72 55t-72 -55t-23 -162t23 -162t72 -55t72 55zM199 534l-92 96q-12 12 -12 26
t11 25t27 11q23 0 36 -28l63 -130h-33z" />
    <glyph glyph-name="oacute" unicode="&#xf3;" horiz-adv-x="408" 
d="M119.5 20.5q-38.5 30.5 -60.5 87t-22 131.5t22 131.5t60.5 87t84.5 30.5t84.5 -30.5t60.5 -87t22 -131.5t-22 -131.5t-60.5 -87t-84.5 -30.5t-84.5 30.5zM276 77q23 55 23 162t-23 162t-72 55t-72 -55t-23 -162t23 -162t72 -55t72 55zM239 664q13 28 36 28q16 0 27 -11
t11 -25t-12 -26l-92 -96h-33z" />
    <glyph glyph-name="ocircumflex" unicode="&#xf4;" horiz-adv-x="408" 
d="M119.5 20.5q-38.5 30.5 -60.5 87t-22 131.5t22 131.5t60.5 87t84.5 30.5t84.5 -30.5t60.5 -87t22 -131.5t-22 -131.5t-60.5 -87t-84.5 -30.5t-84.5 30.5zM276 77q23 55 23 162t-23 162t-72 55t-72 -55t-23 -162t23 -162t72 -55t72 55zM286 543l-82 68l-83 -68h-32l96 125
h38l95 -125h-32z" />
    <glyph glyph-name="otilde" unicode="&#xf5;" horiz-adv-x="408" 
d="M119.5 20.5q-38.5 30.5 -60.5 87t-22 131.5t22 131.5t60.5 87t84.5 30.5t84.5 -30.5t60.5 -87t22 -131.5t-22 -131.5t-60.5 -87t-84.5 -30.5t-84.5 30.5zM276 77q23 55 23 162t-23 162t-72 55t-72 -55t-23 -162t23 -162t72 -55t72 55zM287.5 602q7.5 12 13.5 43h30
q-7 -108 -76 -108q-17 0 -33 9.5t-37 26.5q-15 13 -25 19t-18 6q-15 0 -22.5 -12t-13.5 -43h-30q7 108 76 108q17 0 32.5 -8.5t34.5 -25.5q17 -14 27 -20.5t19 -6.5q15 0 22.5 12z" />
    <glyph glyph-name="odieresis" unicode="&#xf6;" horiz-adv-x="408" 
d="M119.5 20.5q-38.5 30.5 -60.5 87t-22 131.5t22 131.5t60.5 87t84.5 30.5t84.5 -30.5t60.5 -87t22 -131.5t-22 -131.5t-60.5 -87t-84.5 -30.5t-84.5 30.5zM276 77q23 55 23 162t-23 162t-72 55t-72 -55t-23 -162t23 -162t72 -55t72 55zM97 572.5q-13 13.5 -13 33.5
t13 33.5t33 13.5q21 0 34 -13t13 -34t-13 -34t-34 -13q-20 0 -33 13.5zM244 572q-13 13 -13 34t13 34t34 13q20 0 33 -13.5t13 -33.5t-13 -33.5t-33 -13.5q-21 0 -34 13z" />
    <glyph glyph-name="divide" unicode="&#xf7;" 
d="M191.5 420q-10.5 11 -10.5 29t10.5 29t28.5 11q17 0 27.5 -11.5t10.5 -28.5t-10.5 -28.5t-27.5 -11.5q-18 0 -28.5 11zM47 316h346v-36h-346v36zM191.5 118q-10.5 11 -10.5 29t10.5 29t28.5 11q17 0 27.5 -11.5t10.5 -28.5t-10.5 -28.5t-27.5 -11.5q-18 0 -28.5 11z" />
    <glyph glyph-name="oslash" unicode="&#xf8;" horiz-adv-x="417" 
d="M334 410q41 -69 41 -171q0 -75 -22 -131.5t-60.5 -87t-84.5 -30.5q-60 0 -102 47l-34 -55l-27 16l40 66q-44 70 -44 175q0 75 22 131.5t60.5 87t84.5 30.5q60 0 105 -50l37 64l27 -17zM136 401q-23 -55 -23 -162q0 -69 9 -117l162 270q-24 64 -76 64q-49 0 -72 -55z
M280 77q23 55 23 162q0 61 -8 109l-160 -268q23 -58 73 -58q49 0 72 55z" />
    <glyph glyph-name="ugrave" unicode="&#xf9;" horiz-adv-x="447" 
d="M370 52.5q4 -14.5 15.5 -20.5t36.5 -8v-24h-120v67q-18 -36 -49 -56.5t-72 -20.5q-49 0 -76.5 33.5t-27.5 90.5v265q0 32 -4 46.5t-15.5 20.5t-36.5 8v24h124v-361q0 -44 15.5 -63.5t46.5 -19.5q38 0 64.5 29.5t26.5 74.5v241q0 32 -4.5 46.5t-17.5 20.5t-43 8v24h133
v-379q0 -32 4 -46.5zM206 534l-92 96q-12 12 -12 26t11 25t27 11q23 0 36 -28l63 -130h-33z" />
    <glyph glyph-name="uacute" unicode="&#xfa;" horiz-adv-x="447" 
d="M370 52.5q4 -14.5 15.5 -20.5t36.5 -8v-24h-120v67q-18 -36 -49 -56.5t-72 -20.5q-49 0 -76.5 33.5t-27.5 90.5v265q0 32 -4 46.5t-15.5 20.5t-36.5 8v24h124v-361q0 -44 15.5 -63.5t46.5 -19.5q38 0 64.5 29.5t26.5 74.5v241q0 32 -4.5 46.5t-17.5 20.5t-43 8v24h133
v-379q0 -32 4 -46.5zM246 664q13 28 36 28q16 0 27 -11t11 -25t-12 -26l-92 -96h-33z" />
    <glyph glyph-name="ucircumflex" unicode="&#xfb;" horiz-adv-x="447" 
d="M370 52.5q4 -14.5 15.5 -20.5t36.5 -8v-24h-120v67q-18 -36 -49 -56.5t-72 -20.5q-49 0 -76.5 33.5t-27.5 90.5v265q0 32 -4 46.5t-15.5 20.5t-36.5 8v24h124v-361q0 -44 15.5 -63.5t46.5 -19.5q38 0 64.5 29.5t26.5 74.5v241q0 32 -4.5 46.5t-17.5 20.5t-43 8v24h133
v-379q0 -32 4 -46.5zM293 543l-82 68l-83 -68h-32l96 125h38l95 -125h-32z" />
    <glyph glyph-name="udieresis" unicode="&#xfc;" horiz-adv-x="447" 
d="M370 52.5q4 -14.5 15.5 -20.5t36.5 -8v-24h-120v67q-18 -36 -49 -56.5t-72 -20.5q-49 0 -76.5 33.5t-27.5 90.5v265q0 32 -4 46.5t-15.5 20.5t-36.5 8v24h124v-361q0 -44 15.5 -63.5t46.5 -19.5q38 0 64.5 29.5t26.5 74.5v241q0 32 -4.5 46.5t-17.5 20.5t-43 8v24h133
v-379q0 -32 4 -46.5zM104 572.5q-13 13.5 -13 33.5t13 33.5t33 13.5q21 0 34 -13t13 -34t-13 -34t-34 -13q-20 0 -33 13.5zM251 572q-13 13 -13 34t13 34t34 13q20 0 33 -13.5t13 -33.5t-13 -33.5t-33 -13.5q-21 0 -34 13z" />
    <glyph glyph-name="yacute" unicode="&#xfd;" horiz-adv-x="402" 
d="M396 478v-24q-21 -4 -30 -8.5t-14.5 -14.5t-13.5 -35l-158 -483q-19 -57 -41 -77.5t-57 -20.5q-34 0 -53.5 17t-22.5 47q-2 18 6.5 29t26.5 11q14 0 22.5 -8t9.5 -24q1 -40 28 -40q12 0 24 12.5t25 53.5l39 118l-123 365q-12 35 -27 45.5t-36 12.5v24h176v-24
q-29 -2 -39 -6t-10 -15q0 -6 9 -35l82 -267l87 265q8 22 8 33q0 12 -10.5 17.5t-37.5 7.5v24h130zM252 664q13 28 36 28q16 0 27 -11t11 -25t-12 -26l-92 -96h-33z" />
    <glyph glyph-name="thorn" unicode="&#xfe;" horiz-adv-x="422" 
d="M307.5 457.5q34.5 -30.5 54.5 -87t20 -131.5t-20 -131.5t-54.5 -87t-77.5 -30.5q-30 0 -54 20t-41 57v-144q0 -32 4 -46t15.5 -19.5t38.5 -8.5v-24h-178v24q24 3 34.5 8.5t14 20t3.5 45.5v646q0 32 -4 46.5t-15.5 20.5t-36.5 8v24h124v-257q17 37 41 57t54 20
q43 0 77.5 -30.5zM289.5 79q20.5 57 20.5 160t-20.5 160t-62.5 57q-43 0 -67.5 -55.5t-24.5 -161.5t24.5 -161.5t67.5 -55.5q42 0 62.5 57z" />
    <glyph glyph-name="ydieresis" unicode="&#xff;" horiz-adv-x="402" 
d="M396 478v-24q-21 -4 -30 -8.5t-14.5 -14.5t-13.5 -35l-158 -483q-19 -57 -41 -77.5t-57 -20.5q-34 0 -53.5 17t-22.5 47q-2 18 6.5 29t26.5 11q14 0 22.5 -8t9.5 -24q1 -40 28 -40q12 0 24 12.5t25 53.5l39 118l-123 365q-12 35 -27 45.5t-36 12.5v24h176v-24
q-29 -2 -39 -6t-10 -15q0 -6 9 -35l82 -267l87 265q8 22 8 33q0 12 -10.5 17.5t-37.5 7.5v24h130zM110 572.5q-13 13.5 -13 33.5t13 33.5t33 13.5q21 0 34 -13t13 -34t-13 -34t-34 -13q-20 0 -33 13.5zM257 572q-13 13 -13 34t13 34t34 13q20 0 33 -13.5t13 -33.5t-13 -33.5
t-33 -13.5q-21 0 -34 13z" />
    <glyph glyph-name="Abreve" unicode="&#x102;" horiz-adv-x="497" 
d="M448 52q10 -15 22 -20t32 -8v-24h-194v24q32 2 43.5 7t11.5 19q0 13 -11 49l-30 100h-191l-28 -100q-2 -8 -6.5 -24.5t-4.5 -24.5q0 -14 11.5 -19t42.5 -7v-24h-153v24q22 3 34 8t21.5 20t18.5 47l161 580h18l182 -581q10 -31 20 -46zM312 234l-89 298l-83 -298h172z
M300 807q25 13 30 44h31q-6 -58 -39.5 -85.5t-82.5 -27.5t-82.5 27.5t-39.5 85.5h31q5 -30 30.5 -43.5t60.5 -13.5q36 0 61 13z" />
    <glyph glyph-name="uni01CD" unicode="&#x1cd;" horiz-adv-x="497" 
d="M448 52q10 -15 22 -20t32 -8v-24h-194v24q32 2 43.5 7t11.5 19q0 13 -11 49l-30 100h-191l-28 -100q-2 -8 -6.5 -24.5t-4.5 -24.5q0 -14 11.5 -19t42.5 -7v-24h-153v24q22 3 34 8t21.5 20t18.5 47l161 580h18l182 -581q10 -31 20 -46zM312 234l-89 298l-83 -298h172z
M360 849l-102 -106h-38l-103 106h34l88 -53l87 53h34z" />
    <glyph glyph-name="Amacron" unicode="&#x100;" horiz-adv-x="497" 
d="M448 52q10 -15 22 -20t32 -8v-24h-194v24q32 2 43.5 7t11.5 19q0 13 -11 49l-30 100h-191l-28 -100q-2 -8 -6.5 -24.5t-4.5 -24.5q0 -14 11.5 -19t42.5 -7v-24h-153v24q22 3 34 8t21.5 20t18.5 47l161 580h18l182 -581q10 -31 20 -46zM312 234l-89 298l-83 -298h172z
M362 800v-42h-246v42h246z" />
    <glyph glyph-name="Aogonek" unicode="&#x104;" horiz-adv-x="497" 
d="M448 52q10 -15 22 -20t32 -8v-24h-194v24q32 2 43.5 7t11.5 19q0 13 -11 49l-30 100h-191l-28 -100q-2 -8 -6.5 -24.5t-4.5 -24.5q0 -14 11.5 -19t42.5 -7v-24h-153v24q22 3 34 8t21.5 20t18.5 47l161 580h18l182 -581q10 -31 20 -46zM312 234l-89 298l-83 -298h172z
M353 -165q-23 20 -23 52q0 26 19.5 50.5t62.5 54.5l18 13l25 1q-42 -37 -58 -63t-16 -50q0 -21 13 -33t31 -12t31 11t25 33l23 -12q-13 -30 -34 -47.5t-57 -17.5q-37 0 -60 20z" />
    <glyph glyph-name="Cacute" unicode="&#x106;" horiz-adv-x="480" 
d="M72 520.5q30 77.5 83 117.5t119 40q86 0 163 -59v-151h-24q-13 94 -48.5 134.5t-90.5 40.5q-79 0 -117.5 -80t-38.5 -229q0 -154 39 -231.5t120 -77.5q52 0 87.5 46.5t42.5 135.5h35q-9 -108 -55.5 -162.5t-122.5 -54.5q-64 0 -114 40t-79 117.5t-29 186.5t30 186.5z
M302 843q12 14 21 19.5t22 5.5t23 -10t10 -25q0 -10 -5.5 -19.5t-24.5 -21.5l-97 -58h-38z" />
    <glyph glyph-name="Ccaron" unicode="&#x10c;" horiz-adv-x="480" 
d="M72 520.5q30 77.5 83 117.5t119 40q86 0 163 -59v-151h-24q-13 94 -48.5 134.5t-90.5 40.5q-79 0 -117.5 -80t-38.5 -229q0 -154 39 -231.5t120 -77.5q52 0 87.5 46.5t42.5 135.5h35q-9 -108 -55.5 -162.5t-122.5 -54.5q-64 0 -114 40t-79 117.5t-29 186.5t30 186.5z
M385 849l-102 -106h-38l-103 106h34l88 -53l87 53h34z" />
    <glyph glyph-name="Ccircumflex" unicode="&#x108;" horiz-adv-x="480" 
d="M72 520.5q30 77.5 83 117.5t119 40q86 0 163 -59v-151h-24q-13 94 -48.5 134.5t-90.5 40.5q-79 0 -117.5 -80t-38.5 -229q0 -154 39 -231.5t120 -77.5q52 0 87.5 46.5t42.5 135.5h35q-9 -108 -55.5 -162.5t-122.5 -54.5q-64 0 -114 40t-79 117.5t-29 186.5t30 186.5z
M351 743l-87 53l-88 -53h-34l103 106h38l102 -106h-34z" />
    <glyph glyph-name="Cdotaccent" unicode="&#x10a;" horiz-adv-x="480" 
d="M72 520.5q30 77.5 83 117.5t119 40q86 0 163 -59v-151h-24q-13 94 -48.5 134.5t-90.5 40.5q-79 0 -117.5 -80t-38.5 -229q0 -154 39 -231.5t120 -77.5q52 0 87.5 46.5t42.5 135.5h35q-9 -108 -55.5 -162.5t-122.5 -54.5q-64 0 -114 40t-79 117.5t-29 186.5t30 186.5z
M226.5 744.5q-14.5 14.5 -14.5 37.5t14.5 38t37.5 15t37.5 -15t14.5 -38t-14.5 -37.5t-37.5 -14.5t-37.5 14.5z" />
    <glyph glyph-name="uni01F1" unicode="&#x1f1;" horiz-adv-x="974" 
d="M364 626.5q59 -41.5 93.5 -117.5t34.5 -175t-34.5 -175t-93.5 -117.5t-130 -41.5h-198v24q29 3 41.5 8.5t17 21t4.5 49.5v462q0 34 -4.5 49.5t-17 21t-41.5 8.5v24h198q71 0 130 -41.5zM367.5 116.5q48.5 81.5 48.5 217.5t-48.5 217.5t-141.5 81.5h-55v-558
q0 -23 9 -31.5t40 -8.5h6q93 0 141.5 81.5zM942 656l-312 -621h196q32 0 49 12.5t26 43.5t16 93h24v-184h-402v12l311 621h-152q-32 0 -49 -11t-26 -39t-16 -84h-24v169h359v-12z" />
    <glyph glyph-name="uni01C4" unicode="&#x1c4;" horiz-adv-x="974" 
d="M364 626.5q59 -41.5 93.5 -117.5t34.5 -175t-34.5 -175t-93.5 -117.5t-130 -41.5h-198v24q29 3 41.5 8.5t17 21t4.5 49.5v462q0 34 -4.5 49.5t-17 21t-41.5 8.5v24h198q71 0 130 -41.5zM367.5 116.5q48.5 81.5 48.5 217.5t-48.5 217.5t-141.5 81.5h-55v-558
q0 -23 9 -31.5t40 -8.5h6q93 0 141.5 81.5zM942 656l-312 -621h196q32 0 49 12.5t26 43.5t16 93h24v-184h-402v12l311 621h-152q-32 0 -49 -11t-26 -39t-16 -84h-24v169h359v-12zM878 849l-102 -106h-38l-103 106h34l88 -53l87 53h34z" />
    <glyph glyph-name="Dcaron" unicode="&#x10e;" horiz-adv-x="536" 
d="M364 626.5q59 -41.5 93.5 -117.5t34.5 -175t-34.5 -175t-93.5 -117.5t-130 -41.5h-198v24q29 3 41.5 8.5t17 21t4.5 49.5v462q0 34 -4.5 49.5t-17 21t-41.5 8.5v24h198q71 0 130 -41.5zM367.5 116.5q48.5 81.5 48.5 217.5t-48.5 217.5t-141.5 81.5h-55v-558
q0 -23 9 -31.5t40 -8.5h6q93 0 141.5 81.5zM359 849l-102 -106h-38l-103 106h34l88 -53l87 53h34z" />
    <glyph glyph-name="Dcroat" unicode="&#x110;" horiz-adv-x="539" 
d="M365 626.5q59 -41.5 93.5 -117.5t34.5 -175t-34.5 -175t-93.5 -117.5t-130 -41.5h-198v24q29 3 41.5 8.5t17 21t4.5 49.5v225h-69v33h69v204q0 34 -4.5 49.5t-17 21t-41.5 8.5v24h198q71 0 130 -41.5zM368.5 116.5q48.5 81.5 48.5 217.5t-48.5 217.5t-141.5 81.5h-55
v-272h108v-33h-108v-253q0 -23 9 -31.5t40 -8.5h6q93 0 141.5 81.5z" />
    <glyph glyph-name="uni01F2" unicode="&#x1f2;" horiz-adv-x="890" 
d="M364 626.5q59 -41.5 93.5 -117.5t34.5 -175t-34.5 -175t-93.5 -117.5t-130 -41.5h-198v24q29 3 41.5 8.5t17 21t4.5 49.5v462q0 34 -4.5 49.5t-17 21t-41.5 8.5v24h198q71 0 130 -41.5zM367.5 116.5q48.5 81.5 48.5 217.5t-48.5 217.5t-141.5 81.5h-55v-558
q0 -23 9 -31.5t40 -8.5h6q93 0 141.5 81.5zM866 470l-223 -438h106q33 0 50 9.5t25 33.5t13 72h21v-147h-302v8l223 438h-89q-34 0 -52.5 -8t-28 -30t-13.5 -67h-23v137h293v-8z" />
    <glyph glyph-name="uni01C5" unicode="&#x1c5;" horiz-adv-x="890" 
d="M364 626.5q59 -41.5 93.5 -117.5t34.5 -175t-34.5 -175t-93.5 -117.5t-130 -41.5h-198v24q29 3 41.5 8.5t17 21t4.5 49.5v462q0 34 -4.5 49.5t-17 21t-41.5 8.5v24h198q71 0 130 -41.5zM367.5 116.5q48.5 81.5 48.5 217.5t-48.5 217.5t-141.5 81.5h-55v-558
q0 -23 9 -31.5t40 -8.5h6q93 0 141.5 81.5zM866 470l-223 -438h106q33 0 50 9.5t25 33.5t13 72h21v-147h-302v8l223 438h-89q-34 0 -52.5 -8t-28 -30t-13.5 -67h-23v137h293v-8zM827 668l-95 -125h-38l-96 125h32l83 -68l82 68h32z" />
    <glyph glyph-name="Ebreve" unicode="&#x114;" horiz-adv-x="462" 
d="M424 164v-164h-389v24q29 3 41.5 8.5t17 21t4.5 49.5v462q0 34 -4.5 49.5t-17 21t-41.5 8.5v24h372v-155h-24q-7 48 -17 74t-27 36t-45 10h-124v-269h103q25 0 34.5 16t11.5 62h24v-191h-24q-2 45 -11.5 61.5t-34.5 16.5h-103v-254q0 -23 9 -31.5t40 -8.5h92q28 0 45 11
t27 38.5t17 79.5h24zM307 807q25 13 30 44h31q-6 -58 -39.5 -85.5t-82.5 -27.5t-82.5 27.5t-39.5 85.5h31q5 -30 30.5 -43.5t60.5 -13.5q36 0 61 13z" />
    <glyph glyph-name="Ecaron" unicode="&#x11a;" horiz-adv-x="462" 
d="M424 164v-164h-389v24q29 3 41.5 8.5t17 21t4.5 49.5v462q0 34 -4.5 49.5t-17 21t-41.5 8.5v24h372v-155h-24q-7 48 -17 74t-27 36t-45 10h-124v-269h103q25 0 34.5 16t11.5 62h24v-191h-24q-2 45 -11.5 61.5t-34.5 16.5h-103v-254q0 -23 9 -31.5t40 -8.5h92q28 0 45 11
t27 38.5t17 79.5h24zM367 849l-102 -106h-38l-103 106h34l88 -53l87 53h34z" />
    <glyph glyph-name="Edotaccent" unicode="&#x116;" horiz-adv-x="462" 
d="M424 164v-164h-389v24q29 3 41.5 8.5t17 21t4.5 49.5v462q0 34 -4.5 49.5t-17 21t-41.5 8.5v24h372v-155h-24q-7 48 -17 74t-27 36t-45 10h-124v-269h103q25 0 34.5 16t11.5 62h24v-191h-24q-2 45 -11.5 61.5t-34.5 16.5h-103v-254q0 -23 9 -31.5t40 -8.5h92q28 0 45 11
t27 38.5t17 79.5h24zM208.5 744.5q-14.5 14.5 -14.5 37.5t14.5 38t37.5 15t37.5 -15t14.5 -38t-14.5 -37.5t-37.5 -14.5t-37.5 14.5z" />
    <glyph glyph-name="Emacron" unicode="&#x112;" horiz-adv-x="462" 
d="M424 164v-164h-389v24q29 3 41.5 8.5t17 21t4.5 49.5v462q0 34 -4.5 49.5t-17 21t-41.5 8.5v24h372v-155h-24q-7 48 -17 74t-27 36t-45 10h-124v-269h103q25 0 34.5 16t11.5 62h24v-191h-24q-2 45 -11.5 61.5t-34.5 16.5h-103v-254q0 -23 9 -31.5t40 -8.5h92q28 0 45 11
t27 38.5t17 79.5h24zM369 800v-42h-246v42h246z" />
    <glyph glyph-name="Eng" unicode="&#x14a;" horiz-adv-x="548" 
d="M523 644q-29 -3 -41.5 -8.5t-17 -21t-4.5 -49.5v-468q0 -115 -45 -164.5t-120 -63.5v35q50 11 76 50.5t27 119.5l-270 510v-481q0 -34 5 -49.5t19 -21t47 -8.5v-24h-169v24q29 3 41.5 8.5t17 21t4.5 49.5v462q0 34 -4.5 49.5t-17 21t-41.5 8.5v24h132l263 -499v396
q0 34 -5 49.5t-19 21t-47 8.5v24h169v-24z" />
    <glyph glyph-name="Eogonek" unicode="&#x118;" horiz-adv-x="462" 
d="M424 164v-164h-389v24q29 3 41.5 8.5t17 21t4.5 49.5v462q0 34 -4.5 49.5t-17 21t-41.5 8.5v24h372v-155h-24q-7 48 -17 74t-27 36t-45 10h-124v-269h103q25 0 34.5 16t11.5 62h24v-191h-24q-2 45 -11.5 61.5t-34.5 16.5h-103v-254q0 -23 9 -31.5t40 -8.5h92q28 0 45 11
t27 38.5t17 79.5h24zM274 -165q-23 20 -23 52q0 26 19.5 50.5t62.5 54.5l18 13l25 1q-42 -37 -58 -63t-16 -50q0 -21 13 -33t31 -12t31 11t25 33l23 -12q-13 -30 -34 -47.5t-57 -17.5q-37 0 -60 20z" />
    <glyph glyph-name="uni1EBC" unicode="&#x1ebc;" horiz-adv-x="462" 
d="M424 164v-164h-389v24q29 3 41.5 8.5t17 21t4.5 49.5v462q0 34 -4.5 49.5t-17 21t-41.5 8.5v24h372v-155h-24q-7 48 -17 74t-27 36t-45 10h-124v-269h103q25 0 34.5 16t11.5 62h24v-191h-24q-2 45 -11.5 61.5t-34.5 16.5h-103v-254q0 -23 9 -31.5t40 -8.5h92q28 0 45 11
t27 38.5t17 79.5h24zM338 804q8 12 13 42h30q-7 -108 -80 -108q-17 0 -34 9.5t-39 26.5q-31 24 -47 24q-18 0 -26.5 -12t-13.5 -42h-30q7 108 81 108q18 0 34 -8.5t36 -25.5q32 -26 50 -26t26 12z" />
    <glyph glyph-name="Gbreve" unicode="&#x11e;" horiz-adv-x="524" 
d="M498 303v-24q-25 -3 -36.5 -9t-15.5 -21.5t-4 -49.5v-147q-92 -62 -165 -62q-68 0 -121.5 40t-84 117.5t-30.5 186.5t31.5 186.5t85 117.5t120.5 40q91 0 165 -59v-135h-24q-13 86 -49 122.5t-92 36.5q-80 0 -120.5 -80.5t-40.5 -228.5t39.5 -228.5t120.5 -80.5
q53 0 93 32v143q0 35 -5 50t-18 20.5t-45 8.5v24h196zM335 807q25 13 30 44h31q-6 -58 -39.5 -85.5t-82.5 -27.5t-82.5 27.5t-39.5 85.5h31q5 -30 30.5 -43.5t60.5 -13.5q36 0 61 13z" />
    <glyph glyph-name="Gcircumflex" unicode="&#x11c;" horiz-adv-x="524" 
d="M498 303v-24q-25 -3 -36.5 -9t-15.5 -21.5t-4 -49.5v-147q-92 -62 -165 -62q-68 0 -121.5 40t-84 117.5t-30.5 186.5t31.5 186.5t85 117.5t120.5 40q91 0 165 -59v-135h-24q-13 86 -49 122.5t-92 36.5q-80 0 -120.5 -80.5t-40.5 -228.5t39.5 -228.5t120.5 -80.5
q53 0 93 32v143q0 35 -5 50t-18 20.5t-45 8.5v24h196zM361 743l-87 53l-88 -53h-34l103 106h38l102 -106h-34z" />
    <glyph glyph-name="uni0122" unicode="&#x122;" horiz-adv-x="524" 
d="M498 303v-24q-25 -3 -36.5 -9t-15.5 -21.5t-4 -49.5v-147q-92 -62 -165 -62q-68 0 -121.5 40t-84 117.5t-30.5 186.5t31.5 186.5t85 117.5t120.5 40q91 0 165 -59v-135h-24q-13 86 -49 122.5t-92 36.5q-80 0 -120.5 -80.5t-40.5 -228.5t39.5 -228.5t120.5 -80.5
q53 0 93 32v143q0 35 -5 50t-18 20.5t-45 8.5v24h196zM306.5 -50q14.5 -14 14.5 -40q0 -61 -61 -96l-15 20q22 12 33.5 28.5t11.5 29.5q-10 -5 -21 -5q-17 0 -27.5 11t-10.5 26q0 17 12 28.5t31 11.5q18 0 32.5 -14z" />
    <glyph glyph-name="Gdotaccent" unicode="&#x120;" horiz-adv-x="524" 
d="M498 303v-24q-25 -3 -36.5 -9t-15.5 -21.5t-4 -49.5v-147q-92 -62 -165 -62q-68 0 -121.5 40t-84 117.5t-30.5 186.5t31.5 186.5t85 117.5t120.5 40q91 0 165 -59v-135h-24q-13 86 -49 122.5t-92 36.5q-80 0 -120.5 -80.5t-40.5 -228.5t39.5 -228.5t120.5 -80.5
q53 0 93 32v143q0 35 -5 50t-18 20.5t-45 8.5v24h196zM236.5 744.5q-14.5 14.5 -14.5 37.5t14.5 38t37.5 15t37.5 -15t14.5 -38t-14.5 -37.5t-37.5 -14.5t-37.5 14.5z" />
    <glyph glyph-name="uni1E9E" unicode="&#x1e9e;" horiz-adv-x="540" 
d="M460 323.5q45 -49.5 45 -128.5q0 -60 -26 -105t-73 -70t-108 -25q-26 0 -66 4v36q38 -5 60 -5q67 0 102 44.5t35 111.5q0 90 -44 136.5t-120 51.5v13l138 226q-44 30 -103 30q-69 0 -107.5 -43t-38.5 -152v-448h-135v24q29 3 41.5 8.5t17 21t4.5 49.5v335
q0 141 62.5 190.5t152.5 49.5q54 0 104.5 -16.5t83.5 -42.5l-144 -229q74 -17 119 -66.5z" />
    <glyph glyph-name="Hbar" unicode="&#x126;" horiz-adv-x="577" 
d="M474 477v-374q0 -34 4.5 -49.5t17 -21t41.5 -8.5v-24h-198v24q29 3 41.5 8.5t17 21t4.5 49.5v224h-227v-224q0 -34 4.5 -49.5t17 -21t41.5 -8.5v-24h-198v24q29 3 41.5 8.5t17 21t4.5 49.5v374h-71v32h71v56q0 34 -4.5 49.5t-17 21t-41.5 8.5v24h198v-24
q-29 -3 -41.5 -8.5t-17 -21t-4.5 -49.5v-56h227v56q0 34 -4.5 49.5t-17 21t-41.5 8.5v24h198v-24q-29 -3 -41.5 -8.5t-17 -21t-4.5 -49.5v-56h71v-32h-71zM402 477h-227v-115h227v115z" />
    <glyph glyph-name="Hcircumflex" unicode="&#x124;" horiz-adv-x="573" 
d="M493.5 635.5q-12.5 -5.5 -17 -21t-4.5 -49.5v-462q0 -34 4.5 -49.5t17 -21t41.5 -8.5v-24h-198v24q29 3 41.5 8.5t17 21t4.5 49.5v224h-227v-224q0 -34 4.5 -49.5t17 -21t41.5 -8.5v-24h-198v24q29 3 41.5 8.5t17 21t4.5 49.5v462q0 34 -4.5 49.5t-17 21t-41.5 8.5v24
h198v-24q-29 -3 -41.5 -8.5t-17 -21t-4.5 -49.5v-203h227v203q0 34 -4.5 49.5t-17 21t-41.5 8.5v24h198v-24q-29 -3 -41.5 -8.5zM374 743l-87 53l-88 -53h-34l103 106h38l102 -106h-34z" />
    <glyph glyph-name="Ibreve" unicode="&#x12c;" horiz-adv-x="270" 
d="M213 851h31q-12 -113 -109 -113t-109 113h31q9 -57 78 -57t78 57zM94.5 614.5q-4.5 15.5 -17 21t-41.5 8.5v24h198v-24q-29 -3 -41.5 -8.5t-17 -21t-4.5 -49.5v-462q0 -34 4.5 -49.5t17 -21t41.5 -8.5v-24h-198v24q29 3 41.5 8.5t17 21t4.5 49.5v462q0 34 -4.5 49.5z" />
    <glyph glyph-name="uni01CF" unicode="&#x1cf;" horiz-adv-x="270" 
d="M116 744l-89 106h32l76 -52l75 52h32l-88 -106h-38zM234 644q-29 -3 -41.5 -8.5t-17 -21t-4.5 -49.5v-462q0 -34 4.5 -49.5t17 -21t41.5 -8.5v-24h-198v24q29 3 41.5 8.5t17 21t4.5 49.5v462q0 34 -4.5 49.5t-17 21t-41.5 8.5v24h198v-24z" />
    <glyph glyph-name="Idotaccent" unicode="&#x130;" horiz-adv-x="270" 
d="M94.5 614.5q-4.5 15.5 -17 21t-41.5 8.5v24h198v-24q-29 -3 -41.5 -8.5t-17 -21t-4.5 -49.5v-462q0 -34 4.5 -49.5t17 -21t41.5 -8.5v-24h-198v24q29 3 41.5 8.5t17 21t4.5 49.5v462q0 34 -4.5 49.5zM97.5 744.5q-14.5 14.5 -14.5 37.5t14.5 38t37.5 15t37.5 -15
t14.5 -38t-14.5 -37.5t-37.5 -14.5t-37.5 14.5z" />
    <glyph glyph-name="Imacron" unicode="&#x12a;" horiz-adv-x="270" 
d="M241 800v-42h-212v42h212zM94.5 614.5q-4.5 15.5 -17 21t-41.5 8.5v24h198v-24q-29 -3 -41.5 -8.5t-17 -21t-4.5 -49.5v-462q0 -34 4.5 -49.5t17 -21t41.5 -8.5v-24h-198v24q29 3 41.5 8.5t17 21t4.5 49.5v462q0 34 -4.5 49.5z" />
    <glyph glyph-name="Iogonek" unicode="&#x12e;" horiz-adv-x="270" 
d="M94.5 614.5q-4.5 15.5 -17 21t-41.5 8.5v24h198v-24q-29 -3 -41.5 -8.5t-17 -21t-4.5 -49.5v-462q0 -34 4.5 -49.5t17 -21t41.5 -8.5v-24h-198v24q29 3 41.5 8.5t17 21t4.5 49.5v462q0 34 -4.5 49.5zM75 -165q-23 20 -23 52q0 26 19.5 50.5t62.5 54.5l18 13l25 1
q-42 -37 -58 -63t-16 -50q0 -21 13 -33t31 -12t31 11t25 33l23 -12q-13 -30 -34 -47.5t-57 -17.5q-37 0 -60 20z" />
    <glyph glyph-name="Itilde" unicode="&#x128;" horiz-adv-x="270" 
d="M213.5 804q8.5 13 11.5 41h30q-3 -59 -24 -83.5t-46 -24.5q-19 0 -34 9t-33 25q-28 26 -42 26q-25 0 -32 -54h-30q3 59 24.5 83.5t45.5 24.5q17 0 32 -9t32 -24q29 -27 45 -27q12 0 20.5 13zM94.5 614.5q-4.5 15.5 -17 21t-41.5 8.5v24h198v-24q-29 -3 -41.5 -8.5
t-17 -21t-4.5 -49.5v-462q0 -34 4.5 -49.5t17 -21t41.5 -8.5v-24h-198v24q29 3 41.5 8.5t17 21t4.5 49.5v462q0 34 -4.5 49.5z" />
    <glyph glyph-name="glyph245" horiz-adv-x="260" 
d="M61.5 -44q32.5 44 32.5 126v483q0 34 -4.5 49.5t-17 21t-41.5 8.5v24h198v-24q-29 -3 -41.5 -8.5t-17 -21t-4.5 -49.5v-438q0 -227 -185 -258v35q48 8 80.5 52zM168 843q12 14 21 19.5t22 5.5t23 -10t10 -25q0 -10 -5.5 -19.5t-24.5 -21.5l-97 -58h-38z" />
    <glyph glyph-name="Jcircumflex" unicode="&#x134;" horiz-adv-x="260" 
d="M54 743h-32l89 106h38l88 -106h-32l-75 52zM229 644q-29 -3 -41.5 -8.5t-17 -21t-4.5 -49.5v-438q0 -227 -185 -258v35q48 8 80.5 52t32.5 126v483q0 34 -4.5 49.5t-17 21t-41.5 8.5v24h198v-24z" />
    <glyph glyph-name="uni0136" unicode="&#x136;" horiz-adv-x="529" 
d="M465 47.5q11 -11.5 23 -16t35 -7.5v-24h-204v24q30 4 41 8t11 16q0 14 -19 45l-146 247h-39v-237q0 -34 4.5 -49.5t17 -21t41.5 -8.5v-24h-198v24q29 3 41.5 8.5t17 21t4.5 49.5v462q0 34 -4.5 49.5t-17 21t-41.5 8.5v24h198v-24q-29 -3 -41.5 -8.5t-17 -21t-4.5 -49.5
v-190h40l146 208q16 22 16 35q0 12 -13 18t-39 8v24h171v-24q-36 -4 -52.5 -15t-40.5 -46l-138 -197l183 -303q14 -24 25 -35.5zM302.5 -50q14.5 -14 14.5 -40q0 -61 -61 -96l-15 20q22 12 33.5 28.5t11.5 29.5q-10 -5 -21 -5q-17 0 -27.5 11t-10.5 26q0 17 12 28.5t31 11.5
q18 0 32.5 -14z" />
    <glyph glyph-name="uni01C7" unicode="&#x1c7;" horiz-adv-x="697" 
d="M38 0v24q29 3 41.5 8.5t17 21t4.5 49.5v462q0 34 -4.5 49.5t-17 21t-41.5 8.5v24h204v-24q-32 -3 -45.5 -8.5t-18.5 -21t-5 -49.5v-488q0 -24 8 -33t35 -9h84q29 0 46.5 12.5t28.5 44t18 89.5h24v-181h-379zM498.5 -44q32.5 44 32.5 126v483q0 34 -4.5 49.5t-17 21
t-41.5 8.5v24h198v-24q-29 -3 -41.5 -8.5t-17 -21t-4.5 -49.5v-438q0 -227 -185 -258v35q48 8 80.5 52z" />
    <glyph glyph-name="glyph249" horiz-adv-x="448" 
d="M39 0v24q29 3 41.5 8.5t17 21t4.5 49.5v462q0 34 -4.5 49.5t-17 21t-41.5 8.5v24h204v-24q-32 -3 -45.5 -8.5t-18.5 -21t-5 -49.5v-488q0 -24 8 -33t35 -9h84q29 0 46.5 12.5t28.5 44t18 89.5h24v-181h-379zM323 320.5q-14 14.5 -14 37.5t14 37.5t37 14.5t37 -14.5
t14 -37.5t-14 -37.5t-37 -14.5t-37 14.5z" />
    <glyph glyph-name="Lacute" unicode="&#x139;" horiz-adv-x="445" 
d="M38 0v24q29 3 41.5 8.5t17 21t4.5 49.5v462q0 34 -4.5 49.5t-17 21t-41.5 8.5v24h204v-24q-32 -3 -45.5 -8.5t-18.5 -21t-5 -49.5v-488q0 -24 8 -33t35 -9h84q29 0 46.5 12.5t28.5 44t18 89.5h24v-181h-379zM176 843q12 14 21 19.5t22 5.5t23 -10t10 -25
q0 -10 -5.5 -19.5t-24.5 -21.5l-97 -58h-38z" />
    <glyph glyph-name="Lcaron" unicode="&#x13d;" horiz-adv-x="448" 
d="M324 629q1 28 11 38.5t26 10.5q14 0 24 -8.5t10 -26.5q0 -17 -7 -35l-54 -139h-18zM39 0v24q29 3 41.5 8.5t17 21t4.5 49.5v462q0 34 -4.5 49.5t-17 21t-41.5 8.5v24h204v-24q-32 -3 -45.5 -8.5t-18.5 -21t-5 -49.5v-488q0 -24 8 -33t35 -9h84q29 0 46.5 12.5t28.5 44
t18 89.5h24v-181h-379z" />
    <glyph glyph-name="uni013B" unicode="&#x13b;" horiz-adv-x="445" 
d="M38 0v24q29 3 41.5 8.5t17 21t4.5 49.5v462q0 34 -4.5 49.5t-17 21t-41.5 8.5v24h204v-24q-32 -3 -45.5 -8.5t-18.5 -21t-5 -49.5v-488q0 -24 8 -33t35 -9h84q29 0 46.5 12.5t28.5 44t18 89.5h24v-181h-379zM273.5 -50q14.5 -14 14.5 -40q0 -61 -61 -96l-15 20
q22 12 33.5 28.5t11.5 29.5q-10 -5 -21 -5q-17 0 -27.5 11t-10.5 26q0 17 12 28.5t31 11.5q18 0 32.5 -14z" />
    <glyph glyph-name="Ldot" unicode="&#x13f;" horiz-adv-x="448" 
d="M39 0v24q29 3 41.5 8.5t17 21t4.5 49.5v462q0 34 -4.5 49.5t-17 21t-41.5 8.5v24h204v-24q-32 -3 -45.5 -8.5t-18.5 -21t-5 -49.5v-488q0 -24 8 -33t35 -9h84q29 0 46.5 12.5t28.5 44t18 89.5h24v-181h-379zM323 320.5q-14 14.5 -14 37.5t14 37.5t37 14.5t37 -14.5
t14 -37.5t-14 -37.5t-37 -14.5t-37 14.5z" />
    <glyph glyph-name="uni01C8" unicode="&#x1c8;" horiz-adv-x="655" 
d="M38 0v24q29 3 41.5 8.5t17 21t4.5 49.5v462q0 34 -4.5 49.5t-17 21t-41.5 8.5v24h204v-24q-32 -3 -45.5 -8.5t-18.5 -21t-5 -49.5v-488q0 -24 8 -33t35 -9h84q29 0 46.5 12.5t28.5 44t18 89.5h24v-181h-379zM495.5 -121q27.5 33 27.5 94v406q0 32 -4 46.5t-15.5 20.5
t-36.5 8v24h124v-475q0 -100 -50.5 -142t-116.5 -42v27q44 0 71.5 33zM516 569.5q-14 14.5 -14 37.5t14 37.5t37 14.5t37 -14.5t14 -37.5t-14 -37.5t-37 -14.5t-37 14.5z" />
    <glyph glyph-name="Lslash" unicode="&#x141;" horiz-adv-x="454" 
d="M426 181v-181h-379v24q29 3 41.5 8.5t17 21t4.5 49.5v183l-71 -36v37l71 36v242q0 34 -4.5 49.5t-17 21t-41.5 8.5v24h204v-24q-32 -3 -45.5 -8.5t-18.5 -21t-5 -49.5v-210l112 58v-37l-112 -59v-240q0 -24 8 -33t35 -9h84q29 0 46.5 12.5t28.5 44t18 89.5h24z" />
    <glyph glyph-name="uni01CA" unicode="&#x1ca;" horiz-adv-x="808" 
d="M523 644q-29 -3 -41.5 -8.5t-17 -21t-4.5 -49.5v-575h-18l-314 594v-481q0 -34 5 -49.5t19 -21t47 -8.5v-24h-169v24q29 3 41.5 8.5t17 21t4.5 49.5v462q0 34 -4.5 49.5t-17 21t-41.5 8.5v24h132l263 -499v396q0 34 -5 49.5t-19 21t-47 8.5v24h169v-24zM609.5 -44
q32.5 44 32.5 126v483q0 34 -4.5 49.5t-17 21t-41.5 8.5v24h198v-24q-29 -3 -41.5 -8.5t-17 -21t-4.5 -49.5v-438q0 -227 -185 -258v35q48 8 80.5 52z" />
    <glyph glyph-name="Nacute" unicode="&#x143;" horiz-adv-x="548" 
d="M523 644q-29 -3 -41.5 -8.5t-17 -21t-4.5 -49.5v-575h-18l-314 594v-481q0 -34 5 -49.5t19 -21t47 -8.5v-24h-169v24q29 3 41.5 8.5t17 21t4.5 49.5v462q0 34 -4.5 49.5t-17 21t-41.5 8.5v24h132l263 -499v396q0 34 -5 49.5t-19 21t-47 8.5v24h169v-24zM315 843
q12 14 21 19.5t22 5.5t23 -10t10 -25q0 -10 -5.5 -19.5t-24.5 -21.5l-97 -58h-38z" />
    <glyph glyph-name="Ncaron" unicode="&#x147;" horiz-adv-x="548" 
d="M523 644q-29 -3 -41.5 -8.5t-17 -21t-4.5 -49.5v-575h-18l-314 594v-481q0 -34 5 -49.5t19 -21t47 -8.5v-24h-169v24q29 3 41.5 8.5t17 21t4.5 49.5v462q0 34 -4.5 49.5t-17 21t-41.5 8.5v24h132l263 -499v396q0 34 -5 49.5t-19 21t-47 8.5v24h169v-24zM398 849
l-102 -106h-38l-103 106h34l88 -53l87 53h34z" />
    <glyph glyph-name="uni0145" unicode="&#x145;" horiz-adv-x="548" 
d="M523 644q-29 -3 -41.5 -8.5t-17 -21t-4.5 -49.5v-575h-18l-314 594v-481q0 -34 5 -49.5t19 -21t47 -8.5v-24h-169v24q29 3 41.5 8.5t17 21t4.5 49.5v462q0 34 -4.5 49.5t-17 21t-41.5 8.5v24h132l263 -499v396q0 34 -5 49.5t-19 21t-47 8.5v24h169v-24zM328.5 -50
q14.5 -14 14.5 -40q0 -61 -61 -96l-15 20q22 12 33.5 28.5t11.5 29.5q-10 -5 -21 -5q-17 0 -27.5 11t-10.5 26q0 17 12 28.5t31 11.5q18 0 32.5 -14z" />
    <glyph glyph-name="uni01CB" unicode="&#x1cb;" horiz-adv-x="762" 
d="M523 644q-29 -3 -41.5 -8.5t-17 -21t-4.5 -49.5v-575h-18l-314 594v-481q0 -34 5 -49.5t19 -21t47 -8.5v-24h-169v24q29 3 41.5 8.5t17 21t4.5 49.5v462q0 34 -4.5 49.5t-17 21t-41.5 8.5v24h132l263 -499v396q0 34 -5 49.5t-19 21t-47 8.5v24h169v-24zM602.5 -121
q27.5 33 27.5 94v406q0 32 -4 46.5t-15.5 20.5t-36.5 8v24h124v-475q0 -100 -50.5 -142t-116.5 -42v27q44 0 71.5 33zM623 569.5q-14 14.5 -14 37.5t14 37.5t37 14.5t37 -14.5t14 -37.5t-14 -37.5t-37 -14.5t-37 14.5z" />
    <glyph glyph-name="Obreve" unicode="&#x14e;" horiz-adv-x="546" 
d="M156.5 29.5q-51.5 39.5 -81.5 117.5t-30 187t30 186.5t81.5 117.5t115.5 40t115.5 -40t82 -118t30.5 -186q0 -109 -30.5 -187t-82 -117.5t-115.5 -39.5t-115.5 39.5zM385.5 106.5q38.5 81.5 38.5 227.5t-38.5 227.5t-113.5 81.5t-113 -81t-38 -228t38 -228t113 -81
t113.5 81.5zM334 807q25 13 30 44h31q-6 -58 -39.5 -85.5t-82.5 -27.5t-82.5 27.5t-39.5 85.5h31q5 -30 30.5 -43.5t60.5 -13.5q36 0 61 13z" />
    <glyph glyph-name="uni01D1" unicode="&#x1d1;" horiz-adv-x="546" 
d="M156.5 29.5q-51.5 39.5 -81.5 117.5t-30 187t30 186.5t81.5 117.5t115.5 40t115.5 -40t82 -118t30.5 -186q0 -109 -30.5 -187t-82 -117.5t-115.5 -39.5t-115.5 39.5zM385.5 106.5q38.5 81.5 38.5 227.5t-38.5 227.5t-113.5 81.5t-113 -81t-38 -228t38 -228t113 -81
t113.5 81.5zM394 849l-102 -106h-38l-103 106h34l88 -53l87 53h34z" />
    <glyph glyph-name="Ohungarumlaut" unicode="&#x150;" horiz-adv-x="546" 
d="M156.5 29.5q-51.5 39.5 -81.5 117.5t-30 187t30 186.5t81.5 117.5t115.5 40t115.5 -40t82 -118t30.5 -186q0 -109 -30.5 -187t-82 -117.5t-115.5 -39.5t-115.5 39.5zM385.5 106.5q38.5 81.5 38.5 227.5t-38.5 227.5t-113.5 81.5t-113 -81t-38 -228t38 -228t113 -81
t113.5 81.5zM224 838q14 31 41 31q14 0 23.5 -9.5t9.5 -22.5q0 -17 -19 -36l-69 -67h-34zM376 844q15 24 39 24q14 0 23 -10t9 -23q0 -10 -5 -18t-17 -18l-81 -65h-34z" />
    <glyph glyph-name="Omacron" unicode="&#x14c;" horiz-adv-x="546" 
d="M156.5 29.5q-51.5 39.5 -81.5 117.5t-30 187t30 186.5t81.5 117.5t115.5 40t115.5 -40t82 -118t30.5 -186q0 -109 -30.5 -187t-82 -117.5t-115.5 -39.5t-115.5 39.5zM385.5 106.5q38.5 81.5 38.5 227.5t-38.5 227.5t-113.5 81.5t-113 -81t-38 -228t38 -228t113 -81
t113.5 81.5zM396 800v-42h-246v42h246z" />
    <glyph glyph-name="Racute" unicode="&#x154;" horiz-adv-x="508" 
d="M471.5 31.5q15.5 -10.5 52.5 -10.5v-25q-27 -5 -57 -5q-37 0 -63.5 17.5t-42.5 63.5l-51 146q-18 50 -43.5 74.5t-75.5 24.5h-21v-214q0 -34 4.5 -49.5t17 -21t41.5 -8.5v-24h-198v24q29 3 41.5 8.5t17 21t4.5 49.5v462q0 34 -4.5 49.5t-17 21t-41.5 8.5v24h207
q86 0 136 -45.5t50 -122.5q0 -69 -47.5 -115.5t-117.5 -55.5q37 -6 71.5 -32.5t54.5 -79.5l54 -142q13 -33 28.5 -43.5zM170 633v-281h58q63 0 93.5 37t30.5 104t-31 103.5t-94 36.5h-57zM267 843q12 14 21 19.5t22 5.5t23 -10t10 -25q0 -10 -5.5 -19.5t-24.5 -21.5l-97 -58
h-38z" />
    <glyph glyph-name="Rcaron" unicode="&#x158;" horiz-adv-x="508" 
d="M471.5 31.5q15.5 -10.5 52.5 -10.5v-25q-27 -5 -57 -5q-37 0 -63.5 17.5t-42.5 63.5l-51 146q-18 50 -43.5 74.5t-75.5 24.5h-21v-214q0 -34 4.5 -49.5t17 -21t41.5 -8.5v-24h-198v24q29 3 41.5 8.5t17 21t4.5 49.5v462q0 34 -4.5 49.5t-17 21t-41.5 8.5v24h207
q86 0 136 -45.5t50 -122.5q0 -69 -47.5 -115.5t-117.5 -55.5q37 -6 71.5 -32.5t54.5 -79.5l54 -142q13 -33 28.5 -43.5zM170 633v-281h58q63 0 93.5 37t30.5 104t-31 103.5t-94 36.5h-57zM350 849l-102 -106h-38l-103 106h34l88 -53l87 53h34z" />
    <glyph glyph-name="uni0156" unicode="&#x156;" horiz-adv-x="508" 
d="M471.5 31.5q15.5 -10.5 52.5 -10.5v-25q-27 -5 -57 -5q-37 0 -63.5 17.5t-42.5 63.5l-51 146q-18 50 -43.5 74.5t-75.5 24.5h-21v-214q0 -34 4.5 -49.5t17 -21t41.5 -8.5v-24h-198v24q29 3 41.5 8.5t17 21t4.5 49.5v462q0 34 -4.5 49.5t-17 21t-41.5 8.5v24h207
q86 0 136 -45.5t50 -122.5q0 -69 -47.5 -115.5t-117.5 -55.5q37 -6 71.5 -32.5t54.5 -79.5l54 -142q13 -33 28.5 -43.5zM170 633v-281h58q63 0 93.5 37t30.5 104t-31 103.5t-94 36.5h-57zM334.5 -50q14.5 -14 14.5 -40q0 -61 -61 -96l-15 20q22 12 33.5 28.5t11.5 29.5
q-10 -5 -21 -5q-17 0 -27.5 11t-10.5 26q0 17 12 28.5t31 11.5q18 0 32.5 -14z" />
    <glyph glyph-name="Sacute" unicode="&#x15a;" horiz-adv-x="439" 
d="M69 214q9 -95 43.5 -142t104.5 -47q59 0 91.5 30t32.5 85q0 51 -26 87t-79 67l-73 43q-56 33 -84 73.5t-28 99.5q0 52 23.5 90t61 58t79.5 20q83 0 160 -59v-140h-22q-8 78 -43.5 121t-90.5 43q-52 0 -80.5 -29.5t-28.5 -81.5q0 -43 23.5 -72t71.5 -58l87 -51
q112 -66 112 -178q0 -49 -24 -91t-66 -67t-94 -25q-55 0 -102 18t-73 40v166h24zM256 843q12 14 21 19.5t22 5.5t23 -10t10 -25q0 -10 -5.5 -19.5t-24.5 -21.5l-97 -58h-38z" />
    <glyph glyph-name="Scedilla" unicode="&#x15e;" horiz-adv-x="439" 
d="M69 214q9 -95 43.5 -142t104.5 -47q59 0 91.5 30t32.5 85q0 51 -26 87t-79 67l-73 43q-56 33 -84 73.5t-28 99.5q0 52 23.5 90t61 58t79.5 20q83 0 160 -59v-140h-22q-8 78 -43.5 121t-90.5 43q-52 0 -80.5 -29.5t-28.5 -81.5q0 -43 23.5 -72t71.5 -58l87 -51
q112 -66 112 -178q0 -49 -24 -91t-66 -67t-94 -25q-55 0 -102 18t-73 40v166h24zM285 -72q20 -17 20 -46q0 -30 -23 -48.5t-59 -18.5q-46 0 -70 33l17 17q20 -24 43 -24q19 0 30 11t11 29q0 17 -11 27.5t-28 10.5q-11 0 -17 -3.5t-12 -10.5l-19 10l57 96l25 -1l-41 -69
q9 4 26 4q31 0 51 -17z" />
    <glyph glyph-name="uni018F" unicode="&#x18f;" horiz-adv-x="517" 
d="M410 592q58 -85 58 -255q0 -107 -26.5 -185.5t-74.5 -120t-111 -41.5q-98 0 -155 73.5t-57 220.5q0 21 1 35h348q0 158 -39 240.5t-118 82.5q-63 0 -102 -41.5t-49 -105.5h-35q11 77 62.5 129.5t132.5 52.5q107 0 165 -85zM353.5 92q34.5 67 38.5 192h-273
q1 -145 36.5 -202t100.5 -57q63 0 97.5 67z" />
    <glyph glyph-name="Scircumflex" unicode="&#x15c;" horiz-adv-x="439" 
d="M69 214q9 -95 43.5 -142t104.5 -47q59 0 91.5 30t32.5 85q0 51 -26 87t-79 67l-73 43q-56 33 -84 73.5t-28 99.5q0 52 23.5 90t61 58t79.5 20q83 0 160 -59v-140h-22q-8 78 -43.5 121t-90.5 43q-52 0 -80.5 -29.5t-28.5 -81.5q0 -43 23.5 -72t71.5 -58l87 -51
q112 -66 112 -178q0 -49 -24 -91t-66 -67t-94 -25q-55 0 -102 18t-73 40v166h24zM305 743l-87 53l-88 -53h-34l103 106h38l102 -106h-34z" />
    <glyph glyph-name="uni0218" unicode="&#x218;" horiz-adv-x="439" 
d="M69 214q9 -95 43.5 -142t104.5 -47q59 0 91.5 30t32.5 85q0 51 -26 87t-79 67l-73 43q-56 33 -84 73.5t-28 99.5q0 52 23.5 90t61 58t79.5 20q83 0 160 -59v-140h-22q-8 78 -43.5 121t-90.5 43q-52 0 -80.5 -29.5t-28.5 -81.5q0 -43 23.5 -72t71.5 -58l87 -51
q112 -66 112 -178q0 -49 -24 -91t-66 -67t-94 -25q-55 0 -102 18t-73 40v166h24zM260.5 -50q14.5 -14 14.5 -40q0 -61 -61 -96l-15 20q22 12 33.5 28.5t11.5 29.5q-10 -5 -21 -5q-17 0 -27.5 11t-10.5 26q0 17 12 28.5t31 11.5q18 0 32.5 -14z" />
    <glyph glyph-name="Tbar" unicode="&#x166;" horiz-adv-x="468" 
d="M440 668v-164h-24q-7 55 -16 82.5t-26 38.5t-49 11h-55v-273h91v-33h-91v-227q0 -34 5 -49.5t18.5 -21t46.5 -8.5v-24h-212v24q33 3 46.5 8.5t18.5 21t5 49.5v227h-91v33h91v273h-55q-32 0 -49 -11t-26 -38.5t-16 -82.5h-24v164h412z" />
    <glyph glyph-name="Tcaron" unicode="&#x164;" horiz-adv-x="464" 
d="M438 504h-24q-7 55 -16 82.5t-26 38.5t-49 11h-55v-533q0 -34 5 -49.5t18.5 -21t46.5 -8.5v-24h-212v24q33 3 46.5 8.5t18.5 21t5 49.5v533h-55q-32 0 -49 -11t-26 -38.5t-16 -82.5h-24v164h412v-164zM353 849l-102 -106h-38l-103 106h34l88 -53l87 53h34z" />
    <glyph glyph-name="uni0162" unicode="&#x162;" horiz-adv-x="464" 
d="M438 504h-24q-7 55 -16 82.5t-26 38.5t-49 11h-55v-533q0 -34 5 -49.5t18.5 -21t46.5 -8.5v-24h-212v24q33 3 46.5 8.5t18.5 21t5 49.5v533h-55q-32 0 -49 -11t-26 -38.5t-16 -82.5h-24v164h412v-164zM288 -72q20 -17 20 -46q0 -30 -23 -48.5t-59 -18.5q-46 0 -70 33
l17 17q20 -24 43 -24q19 0 30 11t11 29q0 17 -11 27.5t-28 10.5q-11 0 -17 -3.5t-12 -10.5l-19 10l57 96l25 -1l-41 -69q9 4 26 4q31 0 51 -17z" />
    <glyph glyph-name="uni021A" unicode="&#x21a;" horiz-adv-x="464" 
d="M438 504h-24q-7 55 -16 82.5t-26 38.5t-49 11h-55v-533q0 -34 5 -49.5t18.5 -21t46.5 -8.5v-24h-212v24q33 3 46.5 8.5t18.5 21t5 49.5v533h-55q-32 0 -49 -11t-26 -38.5t-16 -82.5h-24v164h412v-164zM263.5 -50q14.5 -14 14.5 -40q0 -61 -61 -96l-15 20q22 12 33.5 28.5
t11.5 29.5q-10 -5 -21 -5q-17 0 -27.5 11t-10.5 26q0 17 12 28.5t31 11.5q18 0 32.5 -14z" />
    <glyph glyph-name="Ubreve" unicode="&#x16c;" horiz-adv-x="556" 
d="M428.5 614.5q-4.5 15.5 -17 21t-41.5 8.5v24h161v-24q-29 -3 -41.5 -8.5t-17 -21t-4.5 -49.5v-383q0 -94 -49 -143t-139 -49q-89 0 -140.5 50t-51.5 138v387q0 34 -4.5 49.5t-17 21t-41.5 8.5v24h198v-24q-29 -3 -41.5 -8.5t-17 -21t-4.5 -49.5v-377q0 -83 34.5 -123
t96.5 -40q70 0 106 39.5t36 123.5v377q0 34 -4.5 49.5zM352 807q25 13 30 44h31q-6 -58 -39.5 -85.5t-82.5 -27.5t-82.5 27.5t-39.5 85.5h31q5 -30 30.5 -43.5t60.5 -13.5q36 0 61 13z" />
    <glyph glyph-name="uni01D3" unicode="&#x1d3;" horiz-adv-x="556" 
d="M428.5 614.5q-4.5 15.5 -17 21t-41.5 8.5v24h161v-24q-29 -3 -41.5 -8.5t-17 -21t-4.5 -49.5v-383q0 -94 -49 -143t-139 -49q-89 0 -140.5 50t-51.5 138v387q0 34 -4.5 49.5t-17 21t-41.5 8.5v24h198v-24q-29 -3 -41.5 -8.5t-17 -21t-4.5 -49.5v-377q0 -83 34.5 -123
t96.5 -40q70 0 106 39.5t36 123.5v377q0 34 -4.5 49.5zM412 849l-102 -106h-38l-103 106h34l88 -53l87 53h34z" />
    <glyph glyph-name="uni01D7" unicode="&#x1d7;" horiz-adv-x="556" 
d="M428.5 614.5q-4.5 15.5 -17 21t-41.5 8.5v24h161v-24q-29 -3 -41.5 -8.5t-17 -21t-4.5 -49.5v-383q0 -94 -49 -143t-139 -49q-89 0 -140.5 50t-51.5 138v387q0 34 -4.5 49.5t-17 21t-41.5 8.5v24h198v-24q-29 -3 -41.5 -8.5t-17 -21t-4.5 -49.5v-377q0 -83 34.5 -123
t96.5 -40q70 0 106 39.5t36 123.5v377q0 34 -4.5 49.5zM176 748.5q-13 13.5 -13 34.5q0 20 13 33.5t33 13.5q22 0 35 -13t13 -34t-13 -34.5t-35 -13.5q-20 0 -33 13.5zM338 748.5q-13 13.5 -13 34.5t13 34t35 13q20 0 33 -13.5t13 -33.5q0 -21 -13 -34.5t-33 -13.5
q-22 0 -35 13.5zM349 962q12 14 21 19.5t22 5.5t23 -10t10 -25q0 -10 -5.5 -19.5t-24.5 -21.5l-97 -58h-38z" />
    <glyph glyph-name="uni01D9" unicode="&#x1d9;" horiz-adv-x="556" 
d="M428.5 614.5q-4.5 15.5 -17 21t-41.5 8.5v24h161v-24q-29 -3 -41.5 -8.5t-17 -21t-4.5 -49.5v-383q0 -94 -49 -143t-139 -49q-89 0 -140.5 50t-51.5 138v387q0 34 -4.5 49.5t-17 21t-41.5 8.5v24h198v-24q-29 -3 -41.5 -8.5t-17 -21t-4.5 -49.5v-377q0 -83 34.5 -123
t96.5 -40q70 0 106 39.5t36 123.5v377q0 34 -4.5 49.5zM176 748.5q-13 13.5 -13 34.5q0 20 13 33.5t33 13.5q22 0 35 -13t13 -34t-13 -34.5t-35 -13.5q-20 0 -33 13.5zM338 748.5q-13 13.5 -13 34.5t13 34t35 13q20 0 33 -13.5t13 -33.5q0 -21 -13 -34.5t-33 -13.5
q-22 0 -35 13.5zM412 959l-102 -106h-38l-103 106h34l88 -53l87 53h34z" />
    <glyph glyph-name="uni01DB" unicode="&#x1db;" horiz-adv-x="556" 
d="M428.5 614.5q-4.5 15.5 -17 21t-41.5 8.5v24h161v-24q-29 -3 -41.5 -8.5t-17 -21t-4.5 -49.5v-383q0 -94 -49 -143t-139 -49q-89 0 -140.5 50t-51.5 138v387q0 34 -4.5 49.5t-17 21t-41.5 8.5v24h198v-24q-29 -3 -41.5 -8.5t-17 -21t-4.5 -49.5v-377q0 -83 34.5 -123
t96.5 -40q70 0 106 39.5t36 123.5v377q0 34 -4.5 49.5zM176 748.5q-13 13.5 -13 34.5q0 20 13 33.5t33 13.5q22 0 35 -13t13 -34t-13 -34.5t-35 -13.5q-20 0 -33 13.5zM338 748.5q-13 13.5 -13 34.5t13 34t35 13q20 0 33 -13.5t13 -33.5q0 -21 -13 -34.5t-33 -13.5
q-22 0 -35 13.5zM282 853l-97 58q-19 12 -24.5 21.5t-5.5 19.5q0 15 10 25t23 10t22 -5.5t21 -19.5l89 -109h-38z" />
    <glyph glyph-name="uni01D5" unicode="&#x1d5;" horiz-adv-x="556" 
d="M428.5 614.5q-4.5 15.5 -17 21t-41.5 8.5v24h161v-24q-29 -3 -41.5 -8.5t-17 -21t-4.5 -49.5v-383q0 -94 -49 -143t-139 -49q-89 0 -140.5 50t-51.5 138v387q0 34 -4.5 49.5t-17 21t-41.5 8.5v24h198v-24q-29 -3 -41.5 -8.5t-17 -21t-4.5 -49.5v-377q0 -83 34.5 -123
t96.5 -40q70 0 106 39.5t36 123.5v377q0 34 -4.5 49.5zM176 748.5q-13 13.5 -13 34.5q0 20 13 33.5t33 13.5q22 0 35 -13t13 -34t-13 -34.5t-35 -13.5q-20 0 -33 13.5zM338 748.5q-13 13.5 -13 34.5t13 34t35 13q20 0 33 -13.5t13 -33.5q0 -21 -13 -34.5t-33 -13.5
q-22 0 -35 13.5zM414 929v-42h-246v42h246z" />
    <glyph glyph-name="Uhungarumlaut" unicode="&#x170;" horiz-adv-x="556" 
d="M428.5 614.5q-4.5 15.5 -17 21t-41.5 8.5v24h161v-24q-29 -3 -41.5 -8.5t-17 -21t-4.5 -49.5v-383q0 -94 -49 -143t-139 -49q-89 0 -140.5 50t-51.5 138v387q0 34 -4.5 49.5t-17 21t-41.5 8.5v24h198v-24q-29 -3 -41.5 -8.5t-17 -21t-4.5 -49.5v-377q0 -83 34.5 -123
t96.5 -40q70 0 106 39.5t36 123.5v377q0 34 -4.5 49.5zM242 838q14 31 41 31q14 0 23.5 -9.5t9.5 -22.5q0 -17 -19 -36l-69 -67h-34zM394 844q15 24 39 24q14 0 23 -10t9 -23q0 -10 -5 -18t-17 -18l-81 -65h-34z" />
    <glyph glyph-name="Umacron" unicode="&#x16a;" horiz-adv-x="556" 
d="M428.5 614.5q-4.5 15.5 -17 21t-41.5 8.5v24h161v-24q-29 -3 -41.5 -8.5t-17 -21t-4.5 -49.5v-383q0 -94 -49 -143t-139 -49q-89 0 -140.5 50t-51.5 138v387q0 34 -4.5 49.5t-17 21t-41.5 8.5v24h198v-24q-29 -3 -41.5 -8.5t-17 -21t-4.5 -49.5v-377q0 -83 34.5 -123
t96.5 -40q70 0 106 39.5t36 123.5v377q0 34 -4.5 49.5zM414 800v-42h-246v42h246z" />
    <glyph glyph-name="Uogonek" unicode="&#x172;" horiz-adv-x="556" 
d="M428.5 614.5q-4.5 15.5 -17 21t-41.5 8.5v24h161v-24q-29 -3 -41.5 -8.5t-17 -21t-4.5 -49.5v-383q0 -94 -49 -143t-139 -49q-89 0 -140.5 50t-51.5 138v387q0 34 -4.5 49.5t-17 21t-41.5 8.5v24h198v-24q-29 -3 -41.5 -8.5t-17 -21t-4.5 -49.5v-377q0 -83 34.5 -123
t96.5 -40q70 0 106 39.5t36 123.5v377q0 34 -4.5 49.5zM266 -165q-23 20 -23 52q0 26 19.5 50.5t62.5 54.5l18 13l25 1q-42 -37 -58 -63t-16 -50q0 -21 13 -33t31 -12t31 11t25 33l23 -12q-13 -30 -34 -47.5t-57 -17.5q-37 0 -60 20z" />
    <glyph glyph-name="Uring" unicode="&#x16e;" horiz-adv-x="556" 
d="M428.5 614.5q-4.5 15.5 -17 21t-41.5 8.5v24h161v-24q-29 -3 -41.5 -8.5t-17 -21t-4.5 -49.5v-383q0 -94 -49 -143t-139 -49q-89 0 -140.5 50t-51.5 138v387q0 34 -4.5 49.5t-17 21t-41.5 8.5v24h198v-24q-29 -3 -41.5 -8.5t-17 -21t-4.5 -49.5v-377q0 -83 34.5 -123
t96.5 -40q70 0 106 39.5t36 123.5v377q0 34 -4.5 49.5zM233.5 757q-23.5 23 -23.5 57t23.5 57t57.5 23t57.5 -23t23.5 -57t-23.5 -57t-57.5 -23t-57.5 23zM327 776.5q14 14.5 14 37.5q0 24 -14 38t-36 14t-36 -14t-14 -38q0 -23 14 -37.5t36 -14.5t36 14.5z" />
    <glyph glyph-name="Utilde" unicode="&#x168;" horiz-adv-x="556" 
d="M428.5 614.5q-4.5 15.5 -17 21t-41.5 8.5v24h161v-24q-29 -3 -41.5 -8.5t-17 -21t-4.5 -49.5v-383q0 -94 -49 -143t-139 -49q-89 0 -140.5 50t-51.5 138v387q0 34 -4.5 49.5t-17 21t-41.5 8.5v24h198v-24q-29 -3 -41.5 -8.5t-17 -21t-4.5 -49.5v-377q0 -83 34.5 -123
t96.5 -40q70 0 106 39.5t36 123.5v377q0 34 -4.5 49.5zM383 804q8 12 13 42h30q-7 -108 -80 -108q-17 0 -34 9.5t-39 26.5q-31 24 -47 24q-18 0 -26.5 -12t-13.5 -42h-30q7 108 81 108q18 0 34 -8.5t36 -25.5q32 -26 50 -26t26 12z" />
    <glyph glyph-name="Wacute" unicode="&#x1e82;" horiz-adv-x="690" 
d="M693 668v-24q-22 -3 -33 -8.5t-19.5 -21t-15.5 -47.5l-120 -577h-18l-143 530l-140 -530h-18l-128 577q-7 32 -15.5 47.5t-18.5 21t-27 8.5v24h185v-24q-33 -2 -44 -8t-11 -24q0 -15 6 -45l83 -408l137 519h18l139 -511l82 400q7 37 7 46q0 17 -11 23t-44 8v24h149z
M401 843q12 14 21 19.5t22 5.5t23 -10t10 -25q0 -10 -5.5 -19.5t-24.5 -21.5l-97 -58h-38z" />
    <glyph glyph-name="Wcircumflex" unicode="&#x174;" horiz-adv-x="690" 
d="M693 668v-24q-22 -3 -33 -8.5t-19.5 -21t-15.5 -47.5l-120 -577h-18l-143 530l-140 -530h-18l-128 577q-7 32 -15.5 47.5t-18.5 21t-27 8.5v24h185v-24q-33 -2 -44 -8t-11 -24q0 -15 6 -45l83 -408l137 519h18l139 -511l82 400q7 37 7 46q0 17 -11 23t-44 8v24h149z
M450 743l-87 53l-88 -53h-34l103 106h38l102 -106h-34z" />
    <glyph glyph-name="Wdieresis" unicode="&#x1e84;" horiz-adv-x="690" 
d="M693 668v-24q-22 -3 -33 -8.5t-19.5 -21t-15.5 -47.5l-120 -577h-18l-143 530l-140 -530h-18l-128 577q-7 32 -15.5 47.5t-18.5 21t-27 8.5v24h185v-24q-33 -2 -44 -8t-11 -24q0 -15 6 -45l83 -408l137 519h18l139 -511l82 400q7 37 7 46q0 17 -11 23t-44 8v24h149z
M248 748.5q-13 13.5 -13 34.5q0 20 13 33.5t33 13.5q22 0 35 -13t13 -34t-13 -34.5t-35 -13.5q-20 0 -33 13.5zM410 748.5q-13 13.5 -13 34.5t13 34t35 13q20 0 33 -13.5t13 -33.5q0 -21 -13 -34.5t-33 -13.5q-22 0 -35 13.5z" />
    <glyph glyph-name="Wgrave" unicode="&#x1e80;" horiz-adv-x="690" 
d="M693 668v-24q-22 -3 -33 -8.5t-19.5 -21t-15.5 -47.5l-120 -577h-18l-143 530l-140 -530h-18l-128 577q-7 32 -15.5 47.5t-18.5 21t-27 8.5v24h185v-24q-33 -2 -44 -8t-11 -24q0 -15 6 -45l83 -408l137 519h18l139 -511l82 400q7 37 7 46q0 17 -11 23t-44 8v24h149z
M371 734l-97 58q-19 12 -24.5 21.5t-5.5 19.5q0 15 10 25t23 10t22 -5.5t21 -19.5l89 -109h-38z" />
    <glyph glyph-name="Ycircumflex" unicode="&#x176;" horiz-adv-x="483" 
d="M482 668v-24q-21 -3 -33.5 -8t-25 -19t-25.5 -43l-115 -261v-210q0 -34 4.5 -49t18 -21t44.5 -9v-24h-206v24q31 3 44.5 8.5t18 21t4.5 49.5v199l-133 273q-19 39 -36.5 51.5t-43.5 17.5v24h190v-24q-28 -3 -38.5 -6.5t-10.5 -14.5q0 -13 17 -47l108 -218l97 216
q16 37 16 48q0 12 -10.5 16t-36.5 6v24h152zM343 743l-87 53l-88 -53h-34l103 106h38l102 -106h-34z" />
    <glyph glyph-name="Ygrave" unicode="&#x1ef2;" horiz-adv-x="483" 
d="M482 668v-24q-21 -3 -33.5 -8t-25 -19t-25.5 -43l-115 -261v-210q0 -34 4.5 -49t18 -21t44.5 -9v-24h-206v24q31 3 44.5 8.5t18 21t4.5 49.5v199l-133 273q-19 39 -36.5 51.5t-43.5 17.5v24h190v-24q-28 -3 -38.5 -6.5t-10.5 -14.5q0 -13 17 -47l108 -218l97 216
q16 37 16 48q0 12 -10.5 16t-36.5 6v24h152zM264 734l-97 58q-19 12 -24.5 21.5t-5.5 19.5q0 15 10 25t23 10t22 -5.5t21 -19.5l89 -109h-38z" />
    <glyph glyph-name="uni0232" unicode="&#x232;" horiz-adv-x="483" 
d="M482 668v-24q-21 -3 -33.5 -8t-25 -19t-25.5 -43l-115 -261v-210q0 -34 4.5 -49t18 -21t44.5 -9v-24h-206v24q31 3 44.5 8.5t18 21t4.5 49.5v199l-133 273q-19 39 -36.5 51.5t-43.5 17.5v24h190v-24q-28 -3 -38.5 -6.5t-10.5 -14.5q0 -13 17 -47l108 -218l97 216
q16 37 16 48q0 12 -10.5 16t-36.5 6v24h152zM379 800v-42h-246v42h246z" />
    <glyph glyph-name="uni1EF8" unicode="&#x1ef8;" horiz-adv-x="483" 
d="M482 668v-24q-21 -3 -33.5 -8t-25 -19t-25.5 -43l-115 -261v-210q0 -34 4.5 -49t18 -21t44.5 -9v-24h-206v24q31 3 44.5 8.5t18 21t4.5 49.5v199l-133 273q-19 39 -36.5 51.5t-43.5 17.5v24h190v-24q-28 -3 -38.5 -6.5t-10.5 -14.5q0 -13 17 -47l108 -218l97 216
q16 37 16 48q0 12 -10.5 16t-36.5 6v24h152zM348 804q8 12 13 42h30q-7 -108 -80 -108q-17 0 -34 9.5t-39 26.5q-31 24 -47 24q-18 0 -26.5 -12t-13.5 -42h-30q7 108 81 108q18 0 34 -8.5t36 -25.5q32 -26 50 -26t26 12z" />
    <glyph glyph-name="Zacute" unicode="&#x179;" horiz-adv-x="446" 
d="M414 656l-312 -621h196q32 0 49 12.5t26 43.5t16 93h24v-184h-402v12l311 621h-152q-32 0 -49 -11t-26 -39t-16 -84h-24v169h359v-12zM267 843q12 14 21 19.5t22 5.5t23 -10t10 -25q0 -10 -5.5 -19.5t-24.5 -21.5l-97 -58h-38z" />
    <glyph glyph-name="Zcaron" unicode="&#x17d;" horiz-adv-x="446" 
d="M414 656l-312 -621h196q32 0 49 12.5t26 43.5t16 93h24v-184h-402v12l311 621h-152q-32 0 -49 -11t-26 -39t-16 -84h-24v169h359v-12zM350 849l-102 -106h-38l-103 106h34l88 -53l87 53h34z" />
    <glyph glyph-name="Zdotaccent" unicode="&#x17b;" horiz-adv-x="446" 
d="M414 656l-312 -621h196q32 0 49 12.5t26 43.5t16 93h24v-184h-402v12l311 621h-152q-32 0 -49 -11t-26 -39t-16 -84h-24v169h359v-12zM191.5 744.5q-14.5 14.5 -14.5 37.5t14.5 38t37.5 15t37.5 -15t14.5 -38t-14.5 -37.5t-37.5 -14.5t-37.5 14.5z" />
    <glyph glyph-name="abreve" unicode="&#x103;" horiz-adv-x="386" 
d="M325.5 37q12.5 -12 43.5 -11v-24q-3 -1 -19.5 -4.5t-35.5 -3.5q-58 0 -58 71v4q-15 -39 -42.5 -59t-63.5 -20q-53 0 -81 36.5t-28 97.5q0 68 36.5 105.5t110.5 57.5l23 6q5 1 15.5 4.5t18.5 4.5v73q0 43 -15.5 62t-45.5 19q-28 0 -44 -20.5t-16 -50.5q0 -21 -8 -29.5
t-24 -8.5q-32 0 -32 36q0 25 17.5 49.5t46 40t60.5 15.5q61 0 95 -39.5t34 -103.5v-261q0 -35 12.5 -47zM225.5 65.5q19.5 30.5 19.5 84.5v121q-17 -4 -49 -14q-48 -15 -65.5 -47t-17.5 -82q0 -45 17 -69t48 -24q28 0 47.5 30.5zM246 610q23 18 28 56h31q-3 -65 -35 -97
t-80 -32t-80 32t-35 97h31q5 -38 28 -56t56 -18t56 18z" />
    <glyph glyph-name="uni01CE" unicode="&#x1ce;" horiz-adv-x="386" 
d="M325.5 37q12.5 -12 43.5 -11v-24q-3 -1 -19.5 -4.5t-35.5 -3.5q-58 0 -58 71v4q-15 -39 -42.5 -59t-63.5 -20q-53 0 -81 36.5t-28 97.5q0 68 36.5 105.5t110.5 57.5l23 6q5 1 15.5 4.5t18.5 4.5v73q0 43 -15.5 62t-45.5 19q-28 0 -44 -20.5t-16 -50.5q0 -21 -8 -29.5
t-24 -8.5q-32 0 -32 36q0 25 17.5 49.5t46 40t60.5 15.5q61 0 95 -39.5t34 -103.5v-261q0 -35 12.5 -47zM225.5 65.5q19.5 30.5 19.5 84.5v121q-17 -4 -49 -14q-48 -15 -65.5 -47t-17.5 -82q0 -45 17 -69t48 -24q28 0 47.5 30.5zM304 668l-95 -125h-38l-96 125h32l83 -68
l82 68h32z" />
    <glyph glyph-name="amacron" unicode="&#x101;" horiz-adv-x="386" 
d="M325.5 37q12.5 -12 43.5 -11v-24q-3 -1 -19.5 -4.5t-35.5 -3.5q-58 0 -58 71v4q-15 -39 -42.5 -59t-63.5 -20q-53 0 -81 36.5t-28 97.5q0 68 36.5 105.5t110.5 57.5l23 6q5 1 15.5 4.5t18.5 4.5v73q0 43 -15.5 62t-45.5 19q-28 0 -44 -20.5t-16 -50.5q0 -21 -8 -29.5
t-24 -8.5q-32 0 -32 36q0 25 17.5 49.5t46 40t60.5 15.5q61 0 95 -39.5t34 -103.5v-261q0 -35 12.5 -47zM225.5 65.5q19.5 30.5 19.5 84.5v121q-17 -4 -49 -14q-48 -15 -65.5 -47t-17.5 -82q0 -45 17 -69t48 -24q28 0 47.5 30.5zM306 598v-41h-232v41h232z" />
    <glyph glyph-name="aogonek" unicode="&#x105;" horiz-adv-x="386" 
d="M376 -121q-13 -30 -32.5 -47t-53.5 -17q-36 0 -56 18.5t-20 47.5q0 31 20.5 57t67.5 57q-46 6 -46 70v4q-15 -39 -42.5 -59t-63.5 -20q-53 0 -81 36.5t-28 97.5q0 68 36.5 105.5t110.5 57.5l23 6q5 1 15.5 4.5t18.5 4.5v73q0 43 -15.5 62t-45.5 19q-28 0 -44 -20.5
t-16 -50.5q0 -21 -8 -29.5t-24 -8.5q-32 0 -32 36q0 25 17.5 49.5t46 40t60.5 15.5q61 0 95 -39.5t34 -103.5v-261q0 -35 12.5 -47t43.5 -11v-24q-33 -7 -36 -7q-69 -56 -69 -108q0 -19 10.5 -29t27.5 -10q16 0 28 10.5t23 32.5zM225.5 65.5q19.5 30.5 19.5 84.5v121
q-17 -4 -49 -14q-48 -15 -65.5 -47t-17.5 -82q0 -45 17 -69t48 -24q28 0 47.5 30.5z" />
    <glyph glyph-name="cacute" unicode="&#x107;" horiz-adv-x="358" 
d="M296 336q-5 60 -27 90t-64 30q-48 0 -73 -57t-25 -161q0 -216 99 -216q39 0 62.5 31t28.5 88h33q-6 -72 -40.5 -111.5t-95.5 -39.5q-48 0 -84 31.5t-55.5 88t-19.5 128.5q0 76 23 132.5t62.5 87t85.5 30.5q62 0 114 -43v-109h-24zM234 664q13 28 36 28q16 0 27 -11
t11 -25t-12 -26l-92 -96h-33z" />
    <glyph glyph-name="ccaron" unicode="&#x10d;" horiz-adv-x="358" 
d="M296 336q-5 60 -27 90t-64 30q-48 0 -73 -57t-25 -161q0 -216 99 -216q39 0 62.5 31t28.5 88h33q-6 -72 -40.5 -111.5t-95.5 -39.5q-48 0 -84 31.5t-55.5 88t-19.5 128.5q0 76 23 132.5t62.5 87t85.5 30.5q62 0 114 -43v-109h-24zM313 668l-95 -125h-38l-96 125h32
l83 -68l82 68h32z" />
    <glyph glyph-name="ccircumflex" unicode="&#x109;" horiz-adv-x="358" 
d="M296 336q-5 60 -27 90t-64 30q-48 0 -73 -57t-25 -161q0 -216 99 -216q39 0 62.5 31t28.5 88h33q-6 -72 -40.5 -111.5t-95.5 -39.5q-48 0 -84 31.5t-55.5 88t-19.5 128.5q0 76 23 132.5t62.5 87t85.5 30.5q62 0 114 -43v-109h-24zM281 543l-82 68l-83 -68h-32l96 125h38
l95 -125h-32z" />
    <glyph glyph-name="cdotaccent" unicode="&#x10b;" horiz-adv-x="358" 
d="M296 336q-5 60 -27 90t-64 30q-48 0 -73 -57t-25 -161q0 -216 99 -216q39 0 62.5 31t28.5 88h33q-6 -72 -40.5 -111.5t-95.5 -39.5q-48 0 -84 31.5t-55.5 88t-19.5 128.5q0 76 23 132.5t62.5 87t85.5 30.5q62 0 114 -43v-109h-24zM162 569.5q-14 14.5 -14 37.5t14 37.5
t37 14.5t37 -14.5t14 -37.5t-14 -37.5t-37 -14.5t-37 14.5z" />
    <glyph glyph-name="dcaron" unicode="&#x10f;" horiz-adv-x="439" 
d="M491 669.5q10 -8.5 10 -26.5q0 -17 -7 -35l-54 -139h-18l8 160q1 28 11 38.5t26 10.5q14 0 24 -8.5zM360.5 52.5q3.5 -14.5 14 -20t34.5 -8.5v-24h-111v82q-17 -44 -43.5 -68t-60.5 -24q-44 0 -79.5 30.5t-56 87t-20.5 131.5t20.5 131.5t56 87t79.5 30.5q30 0 54 -18
t41 -53v152q0 32 -4 46.5t-15.5 20.5t-36.5 8v24h124v-570q0 -31 3.5 -45.5zM266.5 77.5q25.5 55.5 25.5 161.5t-25.5 161.5t-69.5 55.5q-43 0 -64 -57t-21 -160t21 -160t64 -57q44 0 69.5 55.5z" />
    <glyph glyph-name="dcroat" unicode="&#x111;" horiz-adv-x="436" 
d="M357 532v-434q0 -31 3.5 -45.5t14 -20t34.5 -8.5v-24h-111v80q-17 -43 -43.5 -66.5t-60.5 -23.5q-43 0 -79 30t-56.5 84.5t-20.5 124.5t20.5 124.5t56.5 84.5t79 30q30 0 54 -18t41 -51v133h-142v31h142v6q0 32 -4 46.5t-15.5 20.5t-36.5 8v24h124v-105h71v-31h-71z
M266.5 76q25.5 54 25.5 153t-25.5 153t-69.5 54q-43 0 -64 -55.5t-21 -151.5t21 -151.5t64 -55.5q44 0 69.5 54z" />
    <glyph glyph-name="uni01F3" unicode="&#x1f3;" horiz-adv-x="790" 
d="M360.5 52.5q3.5 -14.5 14 -20t34.5 -8.5v-24h-111v82q-17 -44 -43.5 -68t-60.5 -24q-44 0 -79.5 30.5t-56 87t-20.5 131.5t20.5 131.5t56 87t79.5 30.5q30 0 54 -18t41 -53v152q0 32 -4 46.5t-15.5 20.5t-36.5 8v24h124v-570q0 -31 3.5 -45.5zM266.5 77.5
q25.5 55.5 25.5 161.5t-25.5 161.5t-69.5 55.5q-43 0 -64 -57t-21 -160t21 -160t64 -57q44 0 69.5 55.5zM766 470l-223 -438h106q33 0 50 9.5t25 33.5t13 72h21v-147h-302v8l223 438h-89q-34 0 -52.5 -8t-28 -30t-13.5 -67h-23v137h293v-8z" />
    <glyph glyph-name="uni01C6" unicode="&#x1c6;" horiz-adv-x="790" 
d="M360.5 52.5q3.5 -14.5 14 -20t34.5 -8.5v-24h-111v82q-17 -44 -43.5 -68t-60.5 -24q-44 0 -79.5 30.5t-56 87t-20.5 131.5t20.5 131.5t56 87t79.5 30.5q30 0 54 -18t41 -53v152q0 32 -4 46.5t-15.5 20.5t-36.5 8v24h124v-570q0 -31 3.5 -45.5zM266.5 77.5
q25.5 55.5 25.5 161.5t-25.5 161.5t-69.5 55.5q-43 0 -64 -57t-21 -160t21 -160t64 -57q44 0 69.5 55.5zM766 470l-223 -438h106q33 0 50 9.5t25 33.5t13 72h21v-147h-302v8l223 438h-89q-34 0 -52.5 -8t-28 -30t-13.5 -67h-23v137h293v-8zM727 668l-95 -125h-38l-96 125h32
l83 -68l82 68h32z" />
    <glyph glyph-name="ebreve" unicode="&#x115;" horiz-adv-x="385" 
d="M109 249v-11q0 -115 25.5 -165.5t80.5 -50.5q41 0 67.5 32.5t29.5 86.5h33q-5 -69 -41 -110t-97 -41q-84 0 -127 64.5t-43 183.5q0 78 21.5 134.5t57.5 86t80 29.5t78 -28t53.5 -80t19.5 -122v-9h-238zM135 412.5q-21 -43.5 -25 -131.5h167q0 82 -20.5 128.5t-60.5 46.5
t-61 -43.5zM253 610q23 18 28 56h31q-3 -65 -35 -97t-80 -32t-80 32t-35 97h31q5 -38 28 -56t56 -18t56 18z" />
    <glyph glyph-name="ecaron" unicode="&#x11b;" horiz-adv-x="385" 
d="M109 249v-11q0 -115 25.5 -165.5t80.5 -50.5q41 0 67.5 32.5t29.5 86.5h33q-5 -69 -41 -110t-97 -41q-84 0 -127 64.5t-43 183.5q0 78 21.5 134.5t57.5 86t80 29.5t78 -28t53.5 -80t19.5 -122v-9h-238zM135 412.5q-21 -43.5 -25 -131.5h167q0 82 -20.5 128.5t-60.5 46.5
t-61 -43.5zM311 668l-95 -125h-38l-96 125h32l83 -68l82 68h32z" />
    <glyph glyph-name="edotaccent" unicode="&#x117;" horiz-adv-x="385" 
d="M109 249v-11q0 -115 25.5 -165.5t80.5 -50.5q41 0 67.5 32.5t29.5 86.5h33q-5 -69 -41 -110t-97 -41q-84 0 -127 64.5t-43 183.5q0 78 21.5 134.5t57.5 86t80 29.5t78 -28t53.5 -80t19.5 -122v-9h-238zM135 412.5q-21 -43.5 -25 -131.5h167q0 82 -20.5 128.5t-60.5 46.5
t-61 -43.5zM160 569.5q-14 14.5 -14 37.5t14 37.5t37 14.5t37 -14.5t14 -37.5t-14 -37.5t-37 -14.5t-37 14.5z" />
    <glyph glyph-name="emacron" unicode="&#x113;" horiz-adv-x="385" 
d="M109 249v-11q0 -115 25.5 -165.5t80.5 -50.5q41 0 67.5 32.5t29.5 86.5h33q-5 -69 -41 -110t-97 -41q-84 0 -127 64.5t-43 183.5q0 78 21.5 134.5t57.5 86t80 29.5t78 -28t53.5 -80t19.5 -122v-9h-238zM135 412.5q-21 -43.5 -25 -131.5h167q0 82 -20.5 128.5t-60.5 46.5
t-61 -43.5zM313 598v-41h-232v41h232z" />
    <glyph glyph-name="eng" unicode="&#x14b;" horiz-adv-x="434" 
d="M341 449.5q30 -38.5 30 -106.5v-340q0 -100 -50.5 -142t-116.5 -42v27q44 0 71.5 33t27.5 94v397q0 43 -15 62t-45 19q-39 0 -66 -36t-27 -88v-229q0 -31 3.5 -45.5t13 -20t31.5 -8.5v-24h-168v24q24 3 34.5 8.5t14 20t3.5 45.5v281q0 32 -4 46.5t-15.5 20.5t-36.5 8v24
h115v-76q15 40 45.5 63t70.5 23q54 0 84 -38.5z" />
    <glyph glyph-name="eogonek" unicode="&#x119;" horiz-adv-x="385" 
d="M109 249v-11q0 -115 25.5 -165.5t80.5 -50.5q41 0 67.5 32.5t29.5 86.5h33q-5 -69 -41 -110t-97 -41q-84 0 -127 64.5t-43 183.5q0 78 21.5 134.5t57.5 86t80 29.5t78 -28t53.5 -80t19.5 -122v-9h-238zM135 412.5q-21 -43.5 -25 -131.5h167q0 82 -20.5 128.5t-60.5 46.5
t-61 -43.5zM173 -165.5q-21 19.5 -21 51.5q0 26 18.5 51.5t57.5 55.5l17 13h27q-40 -36 -55 -62.5t-15 -51.5q0 -22 11 -33t29 -11q16 0 28 10.5t23 32.5l23 -12q-13 -30 -32.5 -47t-53.5 -17q-36 0 -57 19.5z" />
    <glyph glyph-name="uni1EBD" unicode="&#x1ebd;" horiz-adv-x="385" 
d="M109 249v-11q0 -115 25.5 -165.5t80.5 -50.5q41 0 67.5 32.5t29.5 86.5h33q-5 -69 -41 -110t-97 -41q-84 0 -127 64.5t-43 183.5q0 78 21.5 134.5t57.5 86t80 29.5t78 -28t53.5 -80t19.5 -122v-9h-238zM135 412.5q-21 -43.5 -25 -131.5h167q0 82 -20.5 128.5t-60.5 46.5
t-61 -43.5zM280.5 602q7.5 12 13.5 43h30q-7 -108 -76 -108q-17 0 -33 9.5t-37 26.5q-15 13 -25 19t-18 6q-15 0 -22.5 -12t-13.5 -43h-30q7 108 76 108q17 0 32.5 -8.5t34.5 -25.5q17 -14 27 -20.5t19 -6.5q15 0 22.5 12z" />
    <glyph glyph-name="gbreve" unicode="&#x11f;" horiz-adv-x="381" 
d="M314.5 66q47.5 -30 47.5 -98q0 -42 -24.5 -76t-65.5 -53.5t-87 -19.5q-74 0 -119 29.5t-45 83.5q0 33 20.5 60t55.5 43q-52 19 -52 70q0 62 92 86q-40 14 -65.5 50.5t-25.5 87.5q0 44 18.5 78t49.5 52.5t67 18.5h176v-37h-89q23 -19 36.5 -47.5t13.5 -64.5q0 -51 -25 -88
t-65 -52h1q-28 -9 -49 -14q-40 -10 -59.5 -19t-19.5 -25q0 -20 19 -24.5t78 -7.5q69 -3 116.5 -33zM129 414.5q-17 -31.5 -17 -85.5t17 -85t52 -31q37 0 54.5 31t17.5 85t-17.5 85.5t-54.5 31.5q-35 0 -52 -31.5zM274 -127.5q33 21.5 33 67.5q0 86 -117 86
q-56 0 -88.5 -21.5t-32.5 -63.5q0 -47 34.5 -68.5t86.5 -21.5q51 0 84 21.5zM247 610q23 18 28 56h31q-3 -65 -35 -97t-80 -32t-80 32t-35 97h31q5 -38 28 -56t56 -18t56 18z" />
    <glyph glyph-name="gcircumflex" unicode="&#x11d;" horiz-adv-x="381" 
d="M314.5 66q47.5 -30 47.5 -98q0 -42 -24.5 -76t-65.5 -53.5t-87 -19.5q-74 0 -119 29.5t-45 83.5q0 33 20.5 60t55.5 43q-52 19 -52 70q0 62 92 86q-40 14 -65.5 50.5t-25.5 87.5q0 44 18.5 78t49.5 52.5t67 18.5h176v-37h-89q23 -19 36.5 -47.5t13.5 -64.5q0 -51 -25 -88
t-65 -52h1q-28 -9 -49 -14q-40 -10 -59.5 -19t-19.5 -25q0 -20 19 -24.5t78 -7.5q69 -3 116.5 -33zM129 414.5q-17 -31.5 -17 -85.5t17 -85t52 -31q37 0 54.5 31t17.5 85t-17.5 85.5t-54.5 31.5q-35 0 -52 -31.5zM274 -127.5q33 21.5 33 67.5q0 86 -117 86
q-56 0 -88.5 -21.5t-32.5 -63.5q0 -47 34.5 -68.5t86.5 -21.5q51 0 84 21.5zM273 543l-82 68l-83 -68h-32l96 125h38l95 -125h-32z" />
    <glyph glyph-name="uni0123" unicode="&#x123;" horiz-adv-x="381" 
d="M314.5 66q47.5 -30 47.5 -98q0 -42 -24.5 -76t-65.5 -53.5t-87 -19.5q-74 0 -119 29.5t-45 83.5q0 33 20.5 60t55.5 43q-52 19 -52 70q0 62 92 86q-40 14 -65.5 50.5t-25.5 87.5q0 44 18.5 78t49.5 52.5t67 18.5h176v-37h-89q23 -19 36.5 -47.5t13.5 -64.5q0 -51 -25 -88
t-65 -52h1q-28 -9 -49 -14q-40 -10 -59.5 -19t-19.5 -25q0 -20 19 -24.5t78 -7.5q69 -3 116.5 -33zM129 414.5q-17 -31.5 -17 -85.5t17 -85t52 -31q37 0 54.5 31t17.5 85t-17.5 85.5t-54.5 31.5q-35 0 -52 -31.5zM274 -127.5q33 21.5 33 67.5q0 86 -117 86
q-56 0 -88.5 -21.5t-32.5 -63.5q0 -47 34.5 -68.5t86.5 -21.5q51 0 84 21.5zM220.5 589q10.5 -11 10.5 -25q0 -17 -12 -28.5t-31 -11.5q-18 0 -32.5 14t-14.5 39q0 61 61 96l15 -20q-22 -12 -33.5 -28.5t-11.5 -29.5q10 5 21 5q17 0 27.5 -11z" />
    <glyph glyph-name="gdotaccent" unicode="&#x121;" horiz-adv-x="381" 
d="M314.5 66q47.5 -30 47.5 -98q0 -42 -24.5 -76t-65.5 -53.5t-87 -19.5q-74 0 -119 29.5t-45 83.5q0 33 20.5 60t55.5 43q-52 19 -52 70q0 62 92 86q-40 14 -65.5 50.5t-25.5 87.5q0 44 18.5 78t49.5 52.5t67 18.5h176v-37h-89q23 -19 36.5 -47.5t13.5 -64.5q0 -51 -25 -88
t-65 -52h1q-28 -9 -49 -14q-40 -10 -59.5 -19t-19.5 -25q0 -20 19 -24.5t78 -7.5q69 -3 116.5 -33zM129 414.5q-17 -31.5 -17 -85.5t17 -85t52 -31q37 0 54.5 31t17.5 85t-17.5 85.5t-54.5 31.5q-35 0 -52 -31.5zM274 -127.5q33 21.5 33 67.5q0 86 -117 86
q-56 0 -88.5 -21.5t-32.5 -63.5q0 -47 34.5 -68.5t86.5 -21.5q51 0 84 21.5zM154 569.5q-14 14.5 -14 37.5t14 37.5t37 14.5t37 -14.5t14 -37.5t-14 -37.5t-37 -14.5t-37 14.5z" />
    <glyph glyph-name="hbar" unicode="&#x127;" horiz-adv-x="444" 
d="M370.5 52.5q3.5 -14.5 14 -20t34.5 -8.5v-24h-168v24q22 3 31.5 8.5t13 20t3.5 45.5v252q0 43 -15 62t-45 19q-39 0 -66 -36t-27 -88v-209q0 -31 3.5 -45.5t13 -20t31.5 -8.5v-24h-168v24q24 3 34.5 8.5t14 20t3.5 45.5v434h-68v31h68v6q0 32 -4 46.5t-15.5 20.5t-36.5 8
v24h124v-105h134v-31h-134v-130q17 31 44.5 48.5t62.5 17.5q54 0 84 -38.5t30 -106.5v-225q0 -31 3.5 -45.5z" />
    <glyph glyph-name="hcircumflex" unicode="&#x125;" horiz-adv-x="444" 
d="M372.5 52.5q3.5 -14.5 14 -20t34.5 -8.5v-24h-168v24q22 3 31.5 8.5t13 20t3.5 45.5v272q0 43 -15 62t-45 19q-39 0 -66 -36t-27 -88v-229q0 -31 3.5 -45.5t13 -20t31.5 -8.5v-24h-168v24q24 3 34.5 8.5t14 20t3.5 45.5v471q0 32 -4 46.5t-15.5 20.5t-36.5 8v24h124v-246
q17 31 44.5 48.5t62.5 17.5q54 0 84 -38.5t30 -106.5v-245q0 -31 3.5 -45.5zM302 743l-87 53l-88 -53h-34l103 106h38l102 -106h-34z" />
    <glyph glyph-name="ibreve" unicode="&#x12d;" horiz-adv-x="229" 
d="M160 610q19 18 24 56h31q-3 -65 -31 -97t-71 -32t-71 32t-31 97h31q5 -38 24 -56t47 -18t47 18zM79 425.5q-4 14.5 -15.5 20.5t-36.5 8v24h124v-380q0 -31 3.5 -45.5t14 -20t34.5 -8.5v-24h-172v24q24 3 34.5 8.5t14 20t3.5 45.5v281q0 32 -4 46.5z" />
    <glyph glyph-name="uni01D0" unicode="&#x1d0;" horiz-adv-x="229" 
d="M94 543l-83 125h32l70 -68l69 68h32l-82 -125h-38zM154.5 52.5q3.5 -14.5 14 -20t34.5 -8.5v-24h-172v24q24 3 34.5 8.5t14 20t3.5 45.5v281q0 32 -4 46.5t-15.5 20.5t-36.5 8v24h124v-380q0 -31 3.5 -45.5z" />
    <glyph glyph-name="i.locl" horiz-adv-x="229" 
d="M79 425.5q-4 14.5 -15.5 20.5t-36.5 8v24h124v-380q0 -31 3.5 -45.5t14 -20t34.5 -8.5v-24h-172v24q24 3 34.5 8.5t14 20t3.5 45.5v281q0 32 -4 46.5zM76 569.5q-14 14.5 -14 37.5t14 37.5t37 14.5t37 -14.5t14 -37.5t-14 -37.5t-37 -14.5t-37 14.5z" />
    <glyph glyph-name="dotlessi" unicode="&#x131;" horiz-adv-x="229" 
d="M79 425.5q-4 14.5 -15.5 20.5t-36.5 8v24h124v-380q0 -31 3.5 -45.5t14 -20t34.5 -8.5v-24h-172v24q24 3 34.5 8.5t14 20t3.5 45.5v281q0 32 -4 46.5z" />
    <glyph glyph-name="imacron" unicode="&#x12b;" horiz-adv-x="229" 
d="M211 598v-41h-196v41h196zM79 425.5q-4 14.5 -15.5 20.5t-36.5 8v24h124v-380q0 -31 3.5 -45.5t14 -20t34.5 -8.5v-24h-172v24q24 3 34.5 8.5t14 20t3.5 45.5v281q0 32 -4 46.5z" />
    <glyph glyph-name="iogonek" unicode="&#x12f;" horiz-adv-x="229" 
d="M79 425.5q-4 14.5 -15.5 20.5t-36.5 8v24h124v-380q0 -31 3.5 -45.5t14 -20t34.5 -8.5v-24h-172v24q24 3 34.5 8.5t14 20t3.5 45.5v281q0 32 -4 46.5zM76 569.5q-14 14.5 -14 37.5t14 37.5t37 14.5t37 -14.5t14 -37.5t-14 -37.5t-37 -14.5t-37 14.5zM57 -165.5
q-21 19.5 -21 51.5q0 26 18.5 51.5t57.5 55.5l17 13h27q-40 -36 -55 -62.5t-15 -51.5q0 -22 11 -33t29 -11q16 0 28 10.5t23 32.5l23 -12q-13 -30 -32.5 -47t-53.5 -17q-36 0 -57 19.5z" />
    <glyph glyph-name="itilde" unicode="&#x129;" horiz-adv-x="229" 
d="M184 602.5q6 12.5 8 42.5h28q-2 -62 -20.5 -85t-42.5 -23q-27 0 -63 38q-14 14 -20 18.5t-12 4.5q-13 0 -18.5 -11.5t-9.5 -43.5h-28q2 62 20.5 85t42.5 23q16 0 28 -8.5t32 -27.5q15 -15 22 -20t13 -5q14 0 20 12.5zM79 425.5q-4 14.5 -15.5 20.5t-36.5 8v24h124v-380
q0 -31 3.5 -45.5t14 -20t34.5 -8.5v-24h-172v24q24 3 34.5 8.5t14 20t3.5 45.5v281q0 32 -4 46.5z" />
    <glyph glyph-name="glyph331" horiz-adv-x="214" 
d="M54.5 -121q27.5 33 27.5 94v406q0 32 -4 46.5t-15.5 20.5t-36.5 8v24h124v-475q0 -100 -50.5 -142t-116.5 -42v27q44 0 71.5 33zM147 664q13 28 36 28q16 0 27 -11t11 -25t-12 -26l-92 -96h-33z" />
    <glyph glyph-name="jcircumflex" unicode="&#x135;" horiz-adv-x="214" 
d="M213 543h-32l-69 68l-70 -68h-32l83 125h38zM150 478v-475q0 -100 -50.5 -142t-116.5 -42v27q44 0 71.5 33t27.5 94v406q0 32 -4 46.5t-15.5 20.5t-36.5 8v24h124z" />
    <glyph glyph-name="uni0237" unicode="&#x237;" horiz-adv-x="214" 
d="M54.5 -121q27.5 33 27.5 94v406q0 32 -4 46.5t-15.5 20.5t-36.5 8v24h124v-475q0 -100 -50.5 -142t-116.5 -42v27q44 0 71.5 33z" />
    <glyph glyph-name="uni0137" unicode="&#x137;" horiz-adv-x="435" 
d="M386 34q13 -7 44 -10v-24h-114l-133 248h-36v-150q0 -31 3.5 -45.5t14 -20t34.5 -8.5v-24h-172v24q24 3 34.5 8.5t14 20t3.5 45.5v471q0 32 -4 46.5t-15.5 20.5t-36.5 8v24h124v-388h39l100 130q12 15 12 24t-11.5 13t-36.5 7v24h153v-24q-30 -3 -45 -11t-34 -33
l-94 -122l128 -221q15 -26 28 -33zM269.5 -50q14.5 -14 14.5 -39q0 -61 -61 -96l-15 20q22 12 33.5 28.5t11.5 29.5q-10 -5 -21 -5q-17 0 -27.5 11t-10.5 25q0 17 12 28.5t31 11.5q18 0 32.5 -14z" />
    <glyph glyph-name="glyph335" horiz-adv-x="297" 
d="M148.5 52.5q3.5 -14.5 14 -20t34.5 -8.5v-24h-172v24q24 3 34.5 8.5t14 20t3.5 45.5v471q0 32 -4 46.5t-15.5 20.5t-36.5 8v24h124v-570q0 -31 3.5 -45.5zM223 320.5q-14 14.5 -14 37.5t14 37.5t37 14.5t37 -14.5t14 -37.5t-14 -37.5t-37 -14.5t-37 14.5z" />
    <glyph glyph-name="lacute" unicode="&#x13a;" horiz-adv-x="224" 
d="M149.5 52.5q3.5 -14.5 14 -20t34.5 -8.5v-24h-172v24q24 3 34.5 8.5t14 20t3.5 45.5v471q0 32 -4 46.5t-15.5 20.5t-36.5 8v24h124v-570q0 -31 3.5 -45.5zM150 843q12 14 21 19.5t22 5.5t23 -10t10 -25q0 -10 -5.5 -19.5t-24.5 -21.5l-97 -58h-38z" />
    <glyph glyph-name="lcaron" unicode="&#x13e;" horiz-adv-x="223" 
d="M219 629q1 28 11 38.5t26 10.5q14 0 24 -8.5t10 -26.5q0 -17 -7 -35l-54 -139h-18zM149.5 52.5q3.5 -14.5 14 -20t34.5 -8.5v-24h-172v24q24 3 34.5 8.5t14 20t3.5 45.5v471q0 32 -4 46.5t-15.5 20.5t-36.5 8v24h124v-570q0 -31 3.5 -45.5z" />
    <glyph glyph-name="uni013C" unicode="&#x13c;" horiz-adv-x="224" 
d="M149.5 52.5q3.5 -14.5 14 -20t34.5 -8.5v-24h-172v24q24 3 34.5 8.5t14 20t3.5 45.5v471q0 32 -4 46.5t-15.5 20.5t-36.5 8v24h124v-570q0 -31 3.5 -45.5zM143.5 -50q14.5 -14 14.5 -39q0 -61 -61 -96l-15 20q22 12 33.5 28.5t11.5 29.5q-10 -5 -21 -5q-17 0 -27.5 11
t-10.5 25q0 17 12 28.5t31 11.5q18 0 32.5 -14z" />
    <glyph glyph-name="ldot" unicode="&#x140;" horiz-adv-x="297" 
d="M148.5 52.5q3.5 -14.5 14 -20t34.5 -8.5v-24h-172v24q24 3 34.5 8.5t14 20t3.5 45.5v471q0 32 -4 46.5t-15.5 20.5t-36.5 8v24h124v-570q0 -31 3.5 -45.5zM223 320.5q-14 14.5 -14 37.5t14 37.5t37 14.5t37 -14.5t14 -37.5t-14 -37.5t-37 -14.5t-37 14.5z" />
    <glyph glyph-name="uni01C9" unicode="&#x1c9;" horiz-adv-x="438" 
d="M149.5 52.5q3.5 -14.5 14 -20t34.5 -8.5v-24h-172v24q24 3 34.5 8.5t14 20t3.5 45.5v471q0 32 -4 46.5t-15.5 20.5t-36.5 8v24h124v-570q0 -31 3.5 -45.5zM278.5 -121q27.5 33 27.5 94v406q0 32 -4 46.5t-15.5 20.5t-36.5 8v24h124v-475q0 -100 -50.5 -142t-116.5 -42v27
q44 0 71.5 33zM299 569.5q-14 14.5 -14 37.5t14 37.5t37 14.5t37 -14.5t14 -37.5t-14 -37.5t-37 -14.5t-37 14.5z" />
    <glyph glyph-name="lslash" unicode="&#x142;" horiz-adv-x="252" 
d="M158 346v-248q0 -31 3.5 -45.5t14 -20t34.5 -8.5v-24h-172v24q24 3 34.5 8.5t14 20t3.5 45.5v215l-74 -44v36l74 44v220q0 32 -4 46.5t-15.5 20.5t-36.5 8v24h124v-286l71 42v-36z" />
    <glyph glyph-name="nacute" unicode="&#x144;" horiz-adv-x="449" 
d="M376.5 52.5q3.5 -14.5 14 -20t34.5 -8.5v-24h-168v24q22 3 31.5 8.5t13 20t3.5 45.5v272q0 43 -15 62t-45 19q-39 0 -66 -36t-27 -88v-229q0 -31 3.5 -45.5t13 -20t31.5 -8.5v-24h-168v24q24 3 34.5 8.5t14 20t3.5 45.5v281q0 32 -4 46.5t-15.5 20.5t-36.5 8v24h115v-76
q15 40 45.5 63t70.5 23q54 0 84 -38.5t30 -106.5v-245q0 -31 3.5 -45.5zM263 664q13 28 36 28q16 0 27 -11t11 -25t-12 -26l-92 -96h-33z" />
    <glyph glyph-name="ncaron" unicode="&#x148;" horiz-adv-x="449" 
d="M376.5 52.5q3.5 -14.5 14 -20t34.5 -8.5v-24h-168v24q22 3 31.5 8.5t13 20t3.5 45.5v272q0 43 -15 62t-45 19q-39 0 -66 -36t-27 -88v-229q0 -31 3.5 -45.5t13 -20t31.5 -8.5v-24h-168v24q24 3 34.5 8.5t14 20t3.5 45.5v281q0 32 -4 46.5t-15.5 20.5t-36.5 8v24h115v-76
q15 40 45.5 63t70.5 23q54 0 84 -38.5t30 -106.5v-245q0 -31 3.5 -45.5zM342 668l-95 -125h-38l-96 125h32l83 -68l82 68h32z" />
    <glyph glyph-name="uni0146" unicode="&#x146;" horiz-adv-x="449" 
d="M376.5 52.5q3.5 -14.5 14 -20t34.5 -8.5v-24h-168v24q22 3 31.5 8.5t13 20t3.5 45.5v272q0 43 -15 62t-45 19q-39 0 -66 -36t-27 -88v-229q0 -31 3.5 -45.5t13 -20t31.5 -8.5v-24h-168v24q24 3 34.5 8.5t14 20t3.5 45.5v281q0 32 -4 46.5t-15.5 20.5t-36.5 8v24h115v-76
q15 40 45.5 63t70.5 23q54 0 84 -38.5t30 -106.5v-245q0 -31 3.5 -45.5zM256.5 -50q14.5 -14 14.5 -39q0 -61 -61 -96l-15 20q22 12 33.5 28.5t11.5 29.5q-10 -5 -21 -5q-17 0 -27.5 11t-10.5 25q0 17 12 28.5t31 11.5q18 0 32.5 -14z" />
    <glyph glyph-name="uni01CC" unicode="&#x1cc;" horiz-adv-x="663" 
d="M376.5 52.5q3.5 -14.5 14 -20t34.5 -8.5v-24h-168v24q22 3 31.5 8.5t13 20t3.5 45.5v272q0 43 -15 62t-45 19q-39 0 -66 -36t-27 -88v-229q0 -31 3.5 -45.5t13 -20t31.5 -8.5v-24h-168v24q24 3 34.5 8.5t14 20t3.5 45.5v281q0 32 -4 46.5t-15.5 20.5t-36.5 8v24h115v-76
q15 40 45.5 63t70.5 23q54 0 84 -38.5t30 -106.5v-245q0 -31 3.5 -45.5zM503.5 -121q27.5 33 27.5 94v406q0 32 -4 46.5t-15.5 20.5t-36.5 8v24h124v-475q0 -100 -50.5 -142t-116.5 -42v27q44 0 71.5 33zM524 569.5q-14 14.5 -14 37.5t14 37.5t37 14.5t37 -14.5t14 -37.5
t-14 -37.5t-37 -14.5t-37 14.5z" />
    <glyph glyph-name="obreve" unicode="&#x14f;" horiz-adv-x="408" 
d="M119.5 20.5q-38.5 30.5 -60.5 87t-22 131.5t22 131.5t60.5 87t84.5 30.5t84.5 -30.5t60.5 -87t22 -131.5t-22 -131.5t-60.5 -87t-84.5 -30.5t-84.5 30.5zM276 77q23 55 23 162t-23 162t-72 55t-72 -55t-23 -162t23 -162t72 -55t72 55zM260 610q23 18 28 56h31
q-3 -65 -35 -97t-80 -32t-80 32t-35 97h31q5 -38 28 -56t56 -18t56 18z" />
    <glyph glyph-name="uni01D2" unicode="&#x1d2;" horiz-adv-x="408" 
d="M119.5 20.5q-38.5 30.5 -60.5 87t-22 131.5t22 131.5t60.5 87t84.5 30.5t84.5 -30.5t60.5 -87t22 -131.5t-22 -131.5t-60.5 -87t-84.5 -30.5t-84.5 30.5zM276 77q23 55 23 162t-23 162t-72 55t-72 -55t-23 -162t23 -162t72 -55t72 55zM318 668l-95 -125h-38l-96 125h32
l83 -68l82 68h32z" />
    <glyph glyph-name="ohungarumlaut" unicode="&#x151;" horiz-adv-x="408" 
d="M119.5 20.5q-38.5 30.5 -60.5 87t-22 131.5t22 131.5t60.5 87t84.5 30.5t84.5 -30.5t60.5 -87t22 -131.5t-22 -131.5t-60.5 -87t-84.5 -30.5t-84.5 30.5zM276 77q23 55 23 162t-23 162t-72 55t-72 -55t-23 -162t23 -162t72 -55t72 55zM189 664q6 14 16.5 21.5t20.5 7.5
q14 0 24 -10t10 -24q0 -11 -9 -22l-87 -103h-32zM317 665q14 26 38 26q15 0 24 -10t9 -23t-10 -23l-96 -101h-32z" />
    <glyph glyph-name="omacron" unicode="&#x14d;" horiz-adv-x="408" 
d="M119.5 20.5q-38.5 30.5 -60.5 87t-22 131.5t22 131.5t60.5 87t84.5 30.5t84.5 -30.5t60.5 -87t22 -131.5t-22 -131.5t-60.5 -87t-84.5 -30.5t-84.5 30.5zM276 77q23 55 23 162t-23 162t-72 55t-72 -55t-23 -162t23 -162t72 -55t72 55zM320 598v-41h-232v41h232z" />
    <glyph glyph-name="racute" unicode="&#x155;" horiz-adv-x="333" 
d="M298.5 467q19.5 -21 19.5 -54q0 -53 -36 -53q-13 0 -22.5 8.5t-9.5 23.5q0 5 2.5 15t2.5 14q0 13 -8 19.5t-22 6.5q-33 0 -54 -41t-21 -106v-202q0 -32 4.5 -46t18 -19.5t44.5 -8.5v-24h-187v24q24 3 34.5 8.5t14 20t3.5 45.5v281q0 32 -4 46.5t-15.5 20.5t-36.5 8v24
h115v-81q15 43 41.5 67t61.5 24t54.5 -21zM211 664q13 28 36 28q16 0 27 -11t11 -25t-12 -26l-92 -96h-33z" />
    <glyph glyph-name="rcaron" unicode="&#x159;" horiz-adv-x="333" 
d="M298.5 467q19.5 -21 19.5 -54q0 -53 -36 -53q-13 0 -22.5 8.5t-9.5 23.5q0 5 2.5 15t2.5 14q0 13 -8 19.5t-22 6.5q-33 0 -54 -41t-21 -106v-202q0 -32 4.5 -46t18 -19.5t44.5 -8.5v-24h-187v24q24 3 34.5 8.5t14 20t3.5 45.5v281q0 32 -4 46.5t-15.5 20.5t-36.5 8v24
h115v-81q15 43 41.5 67t61.5 24t54.5 -21zM290 668l-95 -125h-38l-96 125h32l83 -68l82 68h32z" />
    <glyph glyph-name="uni0157" unicode="&#x157;" horiz-adv-x="333" 
d="M298.5 467q19.5 -21 19.5 -54q0 -53 -36 -53q-13 0 -22.5 8.5t-9.5 23.5q0 5 2.5 15t2.5 14q0 13 -8 19.5t-22 6.5q-33 0 -54 -41t-21 -106v-202q0 -32 4.5 -46t18 -19.5t44.5 -8.5v-24h-187v24q24 3 34.5 8.5t14 20t3.5 45.5v281q0 32 -4 46.5t-15.5 20.5t-36.5 8v24
h115v-81q15 43 41.5 67t61.5 24t54.5 -21zM152.5 -50q14.5 -14 14.5 -39q0 -61 -61 -96l-15 20q22 12 33.5 28.5t11.5 29.5q-10 -5 -21 -5q-17 0 -27.5 11t-10.5 25q0 17 12 28.5t31 11.5q18 0 32.5 -14z" />
    <glyph glyph-name="sacute" unicode="&#x15b;" horiz-adv-x="341" 
d="M39 140h24q2 -61 29.5 -89.5t74.5 -28.5q38 0 61.5 21.5t23.5 54.5q0 34 -18.5 57.5t-54.5 44.5l-55 32q-40 23 -60 52.5t-20 75.5q0 59 37 93.5t91 34.5q33 0 65 -12t52 -31v-94h-24q-2 46 -23.5 75.5t-69.5 29.5q-34 0 -54.5 -21t-20.5 -56q0 -31 16 -51t52 -40l64 -36
q36 -20 57.5 -51t21.5 -73q0 -61 -40.5 -99.5t-100.5 -38.5q-41 0 -68 10.5t-60 32.5v107zM207 664q13 28 36 28q16 0 27 -11t11 -25t-12 -26l-92 -96h-33z" />
    <glyph glyph-name="scedilla" unicode="&#x15f;" horiz-adv-x="341" 
d="M39 140h24q2 -61 29.5 -89.5t74.5 -28.5q38 0 61.5 21.5t23.5 54.5q0 34 -18.5 57.5t-54.5 44.5l-55 32q-40 23 -60 52.5t-20 75.5q0 59 37 93.5t91 34.5q33 0 65 -12t52 -31v-94h-24q-2 46 -23.5 75.5t-69.5 29.5q-34 0 -54.5 -21t-20.5 -56q0 -31 16 -51t52 -40l64 -36
q36 -20 57.5 -51t21.5 -73q0 -61 -40.5 -99.5t-100.5 -38.5q-41 0 -68 10.5t-60 32.5v107zM224.5 -72.5q18.5 -17.5 18.5 -46.5t-21.5 -47.5t-56.5 -18.5q-42 0 -66 33l17 16q19 -23 39 -23q18 0 28 10.5t10 28.5q0 17 -10 28t-26 11q-15 0 -26 -14l-18 10l53 96l25 -1
l-38 -70q7 5 23 5q30 0 48.5 -17.5z" />
    <glyph glyph-name="uni0259" unicode="&#x259;" horiz-adv-x="385" 
d="M305 423.5q43 -64.5 43 -183.5q0 -78 -21.5 -134.5t-57.5 -86t-80 -29.5t-78 28t-53.5 80t-19.5 122v9h238v11q0 115 -25.5 165.5t-80.5 50.5q-41 0 -67.5 -32.5t-29.5 -86.5h-33q5 69 41 110t97 41q84 0 127 -64.5zM250 65.5q21 43.5 25 131.5h-167q0 -82 20.5 -128.5
t60.5 -46.5t61 43.5z" />
    <glyph glyph-name="scircumflex" unicode="&#x15d;" horiz-adv-x="341" 
d="M39 140h24q2 -61 29.5 -89.5t74.5 -28.5q38 0 61.5 21.5t23.5 54.5q0 34 -18.5 57.5t-54.5 44.5l-55 32q-40 23 -60 52.5t-20 75.5q0 59 37 93.5t91 34.5q33 0 65 -12t52 -31v-94h-24q-2 46 -23.5 75.5t-69.5 29.5q-34 0 -54.5 -21t-20.5 -56q0 -31 16 -51t52 -40l64 -36
q36 -20 57.5 -51t21.5 -73q0 -61 -40.5 -99.5t-100.5 -38.5q-41 0 -68 10.5t-60 32.5v107zM254 543l-82 68l-83 -68h-32l96 125h38l95 -125h-32z" />
    <glyph glyph-name="uni0219" unicode="&#x219;" horiz-adv-x="341" 
d="M39 140h24q2 -61 29.5 -89.5t74.5 -28.5q38 0 61.5 21.5t23.5 54.5q0 34 -18.5 57.5t-54.5 44.5l-55 32q-40 23 -60 52.5t-20 75.5q0 59 37 93.5t91 34.5q33 0 65 -12t52 -31v-94h-24q-2 46 -23.5 75.5t-69.5 29.5q-34 0 -54.5 -21t-20.5 -56q0 -31 16 -51t52 -40l64 -36
q36 -20 57.5 -51t21.5 -73q0 -61 -40.5 -99.5t-100.5 -38.5q-41 0 -68 10.5t-60 32.5v107zM202.5 -50q14.5 -14 14.5 -39q0 -61 -61 -96l-15 20q22 12 33.5 28.5t11.5 29.5q-10 -5 -21 -5q-17 0 -27.5 11t-10.5 25q0 17 12 28.5t31 11.5q18 0 32.5 -14z" />
    <glyph glyph-name="tbar" unicode="&#x167;" horiz-adv-x="280" 
d="M266 47v-33q-39 -24 -88 -24q-96 0 -96 111v152h-63v31h63v162h-70v29q52 7 79.5 41t33.5 98h27v-136h109v-32h-109v-162h102v-31h-102v-139q0 -46 14 -63t44 -17q28 0 56 13z" />
    <glyph glyph-name="tcaron" unicode="&#x165;" horiz-adv-x="273" 
d="M209 628q2 29 11.5 39.5t24.5 10.5t24 -7t9 -23q0 -20 -15 -46l-46 -82h-16zM263 47v-33q-39 -24 -88 -24q-96 0 -96 111v345h-70v29q52 7 79.5 41t33.5 98h27v-136h109v-32h-109v-332q0 -46 14 -63t44 -17q28 0 56 13z" />
    <glyph glyph-name="uni0163" unicode="&#x163;" horiz-adv-x="273" 
d="M263 47v-33q-39 -24 -88 -24q-96 0 -96 111v345h-70v29q52 7 79.5 41t33.5 98h27v-136h109v-32h-109v-332q0 -46 14 -63t44 -17q28 0 56 13zM219.5 -72.5q18.5 -17.5 18.5 -46.5t-21.5 -47.5t-56.5 -18.5q-42 0 -66 33l17 16q19 -23 39 -23q18 0 28 10.5t10 28.5
q0 17 -10 28t-26 11q-15 0 -26 -14l-18 10l53 96l25 -1l-38 -70q7 5 23 5q30 0 48.5 -17.5z" />
    <glyph glyph-name="uni021B" unicode="&#x21b;" horiz-adv-x="273" 
d="M263 47v-33q-39 -24 -88 -24q-96 0 -96 111v345h-70v29q52 7 79.5 41t33.5 98h27v-136h109v-32h-109v-332q0 -46 14 -63t44 -17q28 0 56 13zM197.5 -50q14.5 -14 14.5 -39q0 -61 -61 -96l-15 20q22 12 33.5 28.5t11.5 29.5q-10 -5 -21 -5q-17 0 -27.5 11t-10.5 25
q0 17 12 28.5t31 11.5q18 0 32.5 -14z" />
    <glyph glyph-name="ubreve" unicode="&#x16d;" horiz-adv-x="447" 
d="M370 52.5q4 -14.5 15.5 -20.5t36.5 -8v-24h-120v67q-18 -36 -49 -56.5t-72 -20.5q-49 0 -76.5 33.5t-27.5 90.5v265q0 32 -4 46.5t-15.5 20.5t-36.5 8v24h124v-361q0 -44 15.5 -63.5t46.5 -19.5q38 0 64.5 29.5t26.5 74.5v241q0 32 -4.5 46.5t-17.5 20.5t-43 8v24h133
v-379q0 -32 4 -46.5zM267 610q23 18 28 56h31q-3 -65 -35 -97t-80 -32t-80 32t-35 97h31q5 -38 28 -56t56 -18t56 18z" />
    <glyph glyph-name="uni01D4" unicode="&#x1d4;" horiz-adv-x="447" 
d="M370 52.5q4 -14.5 15.5 -20.5t36.5 -8v-24h-120v67q-18 -36 -49 -56.5t-72 -20.5q-49 0 -76.5 33.5t-27.5 90.5v265q0 32 -4 46.5t-15.5 20.5t-36.5 8v24h124v-361q0 -44 15.5 -63.5t46.5 -19.5q38 0 64.5 29.5t26.5 74.5v241q0 32 -4.5 46.5t-17.5 20.5t-43 8v24h133
v-379q0 -32 4 -46.5zM325 668l-95 -125h-38l-96 125h32l83 -68l82 68h32z" />
    <glyph glyph-name="uni01D8" unicode="&#x1d8;" horiz-adv-x="447" 
d="M370 52.5q4 -14.5 15.5 -20.5t36.5 -8v-24h-120v67q-18 -36 -49 -56.5t-72 -20.5q-49 0 -76.5 33.5t-27.5 90.5v265q0 32 -4 46.5t-15.5 20.5t-36.5 8v24h124v-361q0 -44 15.5 -63.5t46.5 -19.5q38 0 64.5 29.5t26.5 74.5v241q0 32 -4.5 46.5t-17.5 20.5t-43 8v24h133
v-379q0 -32 4 -46.5zM104 542.5q-13 13.5 -13 33.5t13 33.5t33 13.5q21 0 34 -13t13 -34t-13 -34t-34 -13q-20 0 -33 13.5zM251 542q-13 13 -13 34t13 34t34 13q20 0 33 -13.5t13 -33.5t-13 -33.5t-33 -13.5q-21 0 -34 13zM248 779q13 28 36 28q16 0 27 -11t11 -25t-12 -26
l-92 -96h-33z" />
    <glyph glyph-name="uni01DA" unicode="&#x1da;" horiz-adv-x="447" 
d="M370 52.5q4 -14.5 15.5 -20.5t36.5 -8v-24h-120v67q-18 -36 -49 -56.5t-72 -20.5q-49 0 -76.5 33.5t-27.5 90.5v265q0 32 -4 46.5t-15.5 20.5t-36.5 8v24h124v-361q0 -44 15.5 -63.5t46.5 -19.5q38 0 64.5 29.5t26.5 74.5v241q0 32 -4.5 46.5t-17.5 20.5t-43 8v24h133
v-379q0 -32 4 -46.5zM104 542.5q-13 13.5 -13 33.5t13 33.5t33 13.5q21 0 34 -13t13 -34t-13 -34t-34 -13q-20 0 -33 13.5zM251 542q-13 13 -13 34t13 34t34 13q20 0 33 -13.5t13 -33.5t-13 -33.5t-33 -13.5q-21 0 -34 13zM325 774l-95 -125h-38l-96 125h32l83 -68l82 68h32
z" />
    <glyph glyph-name="uni01DC" unicode="&#x1dc;" horiz-adv-x="447" 
d="M370 52.5q4 -14.5 15.5 -20.5t36.5 -8v-24h-120v67q-18 -36 -49 -56.5t-72 -20.5q-49 0 -76.5 33.5t-27.5 90.5v265q0 32 -4 46.5t-15.5 20.5t-36.5 8v24h124v-361q0 -44 15.5 -63.5t46.5 -19.5q38 0 64.5 29.5t26.5 74.5v241q0 32 -4.5 46.5t-17.5 20.5t-43 8v24h133
v-379q0 -32 4 -46.5zM104 542.5q-13 13.5 -13 33.5t13 33.5t33 13.5q21 0 34 -13t13 -34t-13 -34t-34 -13q-20 0 -33 13.5zM251 542q-13 13 -13 34t13 34t34 13q20 0 33 -13.5t13 -33.5t-13 -33.5t-33 -13.5q-21 0 -34 13zM206 649l-92 96q-12 12 -12 26t11 25t27 11
q23 0 36 -28l63 -130h-33z" />
    <glyph glyph-name="uni01D6" unicode="&#x1d6;" horiz-adv-x="447" 
d="M370 52.5q4 -14.5 15.5 -20.5t36.5 -8v-24h-120v67q-18 -36 -49 -56.5t-72 -20.5q-49 0 -76.5 33.5t-27.5 90.5v265q0 32 -4 46.5t-15.5 20.5t-36.5 8v24h124v-361q0 -44 15.5 -63.5t46.5 -19.5q38 0 64.5 29.5t26.5 74.5v241q0 32 -4.5 46.5t-17.5 20.5t-43 8v24h133
v-379q0 -32 4 -46.5zM104 542.5q-13 13.5 -13 33.5t13 33.5t33 13.5q21 0 34 -13t13 -34t-13 -34t-34 -13q-20 0 -33 13.5zM251 542q-13 13 -13 34t13 34t34 13q20 0 33 -13.5t13 -33.5t-13 -33.5t-33 -13.5q-21 0 -34 13zM327 733v-41h-232v41h232z" />
    <glyph glyph-name="uhungarumlaut" unicode="&#x171;" horiz-adv-x="447" 
d="M370 52.5q4 -14.5 15.5 -20.5t36.5 -8v-24h-120v67q-18 -36 -49 -56.5t-72 -20.5q-49 0 -76.5 33.5t-27.5 90.5v265q0 32 -4 46.5t-15.5 20.5t-36.5 8v24h124v-361q0 -44 15.5 -63.5t46.5 -19.5q38 0 64.5 29.5t26.5 74.5v241q0 32 -4.5 46.5t-17.5 20.5t-43 8v24h133
v-379q0 -32 4 -46.5zM196 664q6 14 16.5 21.5t20.5 7.5q14 0 24 -10t10 -24q0 -11 -9 -22l-87 -103h-32zM324 665q14 26 38 26q15 0 24 -10t9 -23t-10 -23l-96 -101h-32z" />
    <glyph glyph-name="umacron" unicode="&#x16b;" horiz-adv-x="447" 
d="M370 52.5q4 -14.5 15.5 -20.5t36.5 -8v-24h-120v67q-18 -36 -49 -56.5t-72 -20.5q-49 0 -76.5 33.5t-27.5 90.5v265q0 32 -4 46.5t-15.5 20.5t-36.5 8v24h124v-361q0 -44 15.5 -63.5t46.5 -19.5q38 0 64.5 29.5t26.5 74.5v241q0 32 -4.5 46.5t-17.5 20.5t-43 8v24h133
v-379q0 -32 4 -46.5zM327 598v-41h-232v41h232z" />
    <glyph glyph-name="uogonek" unicode="&#x173;" horiz-adv-x="447" 
d="M427 -121q-13 -30 -32.5 -47t-53.5 -17q-36 0 -54.5 18t-18.5 48q0 32 21.5 58.5t72.5 60.5h-60v67q-18 -36 -49 -56.5t-72 -20.5q-49 0 -76.5 33.5t-27.5 90.5v265q0 32 -4 46.5t-15.5 20.5t-36.5 8v24h124v-361q0 -44 15.5 -63.5t46.5 -19.5q38 0 64.5 29.5t26.5 74.5
v241q0 32 -4.5 46.5t-17.5 20.5t-43 8v24h133v-379q0 -32 4 -46.5t15.5 -20.5t36.5 -8v-24h-31q-73 -60 -73 -113q0 -39 35 -39q16 0 28 10.5t23 32.5z" />
    <glyph glyph-name="uring" unicode="&#x16f;" horiz-adv-x="447" 
d="M370 52.5q4 -14.5 15.5 -20.5t36.5 -8v-24h-120v67q-18 -36 -49 -56.5t-72 -20.5q-49 0 -76.5 33.5t-27.5 90.5v265q0 32 -4 46.5t-15.5 20.5t-36.5 8v24h124v-361q0 -44 15.5 -63.5t46.5 -19.5q38 0 64.5 29.5t26.5 74.5v241q0 32 -4.5 46.5t-17.5 20.5t-43 8v24h133
v-379q0 -32 4 -46.5zM153.5 557q-23.5 23 -23.5 57t23.5 57t57.5 23t57.5 -23t23.5 -57t-23.5 -57t-57.5 -23t-57.5 23zM247 576.5q14 14.5 14 37.5q0 24 -14 38t-36 14t-36 -14t-14 -38q0 -23 14 -37.5t36 -14.5t36 14.5z" />
    <glyph glyph-name="utilde" unicode="&#x169;" horiz-adv-x="447" 
d="M370 52.5q4 -14.5 15.5 -20.5t36.5 -8v-24h-120v67q-18 -36 -49 -56.5t-72 -20.5q-49 0 -76.5 33.5t-27.5 90.5v265q0 32 -4 46.5t-15.5 20.5t-36.5 8v24h124v-361q0 -44 15.5 -63.5t46.5 -19.5q38 0 64.5 29.5t26.5 74.5v241q0 32 -4.5 46.5t-17.5 20.5t-43 8v24h133
v-379q0 -32 4 -46.5zM294.5 602q7.5 12 13.5 43h30q-7 -108 -76 -108q-17 0 -33 9.5t-37 26.5q-15 13 -25 19t-18 6q-15 0 -22.5 -12t-13.5 -43h-30q7 108 76 108q17 0 32.5 -8.5t34.5 -25.5q17 -14 27 -20.5t19 -6.5q15 0 22.5 12z" />
    <glyph glyph-name="wacute" unicode="&#x1e83;" horiz-adv-x="574" 
d="M572 478v-24q-19 -4 -28 -8.5t-14.5 -15.5t-11.5 -34l-98 -406h-18l-115 365l-116 -365h-18l-98 406q-9 34 -23 45t-33 13v24h168v-24q-31 -2 -41.5 -7t-10.5 -17q0 -4 6 -32l62 -269l109 354h18l113 -354l61 267q4 16 4 28q0 15 -10.5 20.5t-41.5 9.5v24h136zM335 664
q13 28 36 28q16 0 27 -11t11 -25t-12 -26l-92 -96h-33z" />
    <glyph glyph-name="wcircumflex" unicode="&#x175;" horiz-adv-x="574" 
d="M572 478v-24q-19 -4 -28 -8.5t-14.5 -15.5t-11.5 -34l-98 -406h-18l-115 365l-116 -365h-18l-98 406q-9 34 -23 45t-33 13v24h168v-24q-31 -2 -41.5 -7t-10.5 -17q0 -4 6 -32l62 -269l109 354h18l113 -354l61 267q4 16 4 28q0 15 -10.5 20.5t-41.5 9.5v24h136zM382 543
l-82 68l-83 -68h-32l96 125h38l95 -125h-32z" />
    <glyph glyph-name="wdieresis" unicode="&#x1e85;" horiz-adv-x="574" 
d="M572 478v-24q-19 -4 -28 -8.5t-14.5 -15.5t-11.5 -34l-98 -406h-18l-115 365l-116 -365h-18l-98 406q-9 34 -23 45t-33 13v24h168v-24q-31 -2 -41.5 -7t-10.5 -17q0 -4 6 -32l62 -269l109 354h18l113 -354l61 267q4 16 4 28q0 15 -10.5 20.5t-41.5 9.5v24h136zM193 572.5
q-13 13.5 -13 33.5t13 33.5t33 13.5q21 0 34 -13t13 -34t-13 -34t-34 -13q-20 0 -33 13.5zM340 572q-13 13 -13 34t13 34t34 13q20 0 33 -13.5t13 -33.5t-13 -33.5t-33 -13.5q-21 0 -34 13z" />
    <glyph glyph-name="wgrave" unicode="&#x1e81;" horiz-adv-x="574" 
d="M572 478v-24q-19 -4 -28 -8.5t-14.5 -15.5t-11.5 -34l-98 -406h-18l-115 365l-116 -365h-18l-98 406q-9 34 -23 45t-33 13v24h168v-24q-31 -2 -41.5 -7t-10.5 -17q0 -4 6 -32l62 -269l109 354h18l113 -354l61 267q4 16 4 28q0 15 -10.5 20.5t-41.5 9.5v24h136zM295 534
l-92 96q-12 12 -12 26t11 25t27 11q23 0 36 -28l63 -130h-33z" />
    <glyph glyph-name="ycircumflex" unicode="&#x177;" horiz-adv-x="402" 
d="M396 478v-24q-21 -4 -30 -8.5t-14.5 -14.5t-13.5 -35l-158 -483q-19 -57 -41 -77.5t-57 -20.5q-34 0 -53.5 17t-22.5 47q-2 18 6.5 29t26.5 11q14 0 22.5 -8t9.5 -24q1 -40 28 -40q12 0 24 12.5t25 53.5l39 118l-123 365q-12 35 -27 45.5t-36 12.5v24h176v-24
q-29 -2 -39 -6t-10 -15q0 -6 9 -35l82 -267l87 265q8 22 8 33q0 12 -10.5 17.5t-37.5 7.5v24h130zM299 543l-82 68l-83 -68h-32l96 125h38l95 -125h-32z" />
    <glyph glyph-name="ygrave" unicode="&#x1ef3;" horiz-adv-x="402" 
d="M396 478v-24q-21 -4 -30 -8.5t-14.5 -14.5t-13.5 -35l-158 -483q-19 -57 -41 -77.5t-57 -20.5q-34 0 -53.5 17t-22.5 47q-2 18 6.5 29t26.5 11q14 0 22.5 -8t9.5 -24q1 -40 28 -40q12 0 24 12.5t25 53.5l39 118l-123 365q-12 35 -27 45.5t-36 12.5v24h176v-24
q-29 -2 -39 -6t-10 -15q0 -6 9 -35l82 -267l87 265q8 22 8 33q0 12 -10.5 17.5t-37.5 7.5v24h130zM212 534l-92 96q-12 12 -12 26t11 25t27 11q23 0 36 -28l63 -130h-33z" />
    <glyph glyph-name="uni0233" unicode="&#x233;" horiz-adv-x="402" 
d="M396 478v-24q-21 -4 -30 -8.5t-14.5 -14.5t-13.5 -35l-158 -483q-19 -57 -41 -77.5t-57 -20.5q-34 0 -53.5 17t-22.5 47q-2 18 6.5 29t26.5 11q14 0 22.5 -8t9.5 -24q1 -40 28 -40q12 0 24 12.5t25 53.5l39 118l-123 365q-12 35 -27 45.5t-36 12.5v24h176v-24
q-29 -2 -39 -6t-10 -15q0 -6 9 -35l82 -267l87 265q8 22 8 33q0 12 -10.5 17.5t-37.5 7.5v24h130zM333 598v-41h-232v41h232z" />
    <glyph glyph-name="uni1EF9" unicode="&#x1ef9;" horiz-adv-x="402" 
d="M396 478v-24q-21 -4 -30 -8.5t-14.5 -14.5t-13.5 -35l-158 -483q-19 -57 -41 -77.5t-57 -20.5q-34 0 -53.5 17t-22.5 47q-2 18 6.5 29t26.5 11q14 0 22.5 -8t9.5 -24q1 -40 28 -40q12 0 24 12.5t25 53.5l39 118l-123 365q-12 35 -27 45.5t-36 12.5v24h176v-24
q-29 -2 -39 -6t-10 -15q0 -6 9 -35l82 -267l87 265q8 22 8 33q0 12 -10.5 17.5t-37.5 7.5v24h130zM300.5 602q7.5 12 13.5 43h30q-7 -108 -76 -108q-17 0 -33 9.5t-37 26.5q-15 13 -25 19t-18 6q-15 0 -22.5 -12t-13.5 -43h-30q7 108 76 108q17 0 32.5 -8.5t34.5 -25.5
q17 -14 27 -20.5t19 -6.5q15 0 22.5 12z" />
    <glyph glyph-name="zacute" unicode="&#x17a;" horiz-adv-x="354" 
d="M330 470l-223 -438h106q33 0 50 9.5t25 33.5t13 72h21v-147h-302v8l223 438h-89q-34 0 -52.5 -8t-28 -30t-13.5 -67h-23v137h293v-8zM212 664q13 28 36 28q16 0 27 -11t11 -25t-12 -26l-92 -96h-33z" />
    <glyph glyph-name="zcaron" unicode="&#x17e;" horiz-adv-x="354" 
d="M330 470l-223 -438h106q33 0 50 9.5t25 33.5t13 72h21v-147h-302v8l223 438h-89q-34 0 -52.5 -8t-28 -30t-13.5 -67h-23v137h293v-8zM291 668l-95 -125h-38l-96 125h32l83 -68l82 68h32z" />
    <glyph glyph-name="zdotaccent" unicode="&#x17c;" horiz-adv-x="354" 
d="M330 470l-223 -438h106q33 0 50 9.5t25 33.5t13 72h21v-147h-302v8l223 438h-89q-34 0 -52.5 -8t-28 -30t-13.5 -67h-23v137h293v-8zM140 569.5q-14 14.5 -14 37.5t14 37.5t37 14.5t37 -14.5t14 -37.5t-14 -37.5t-37 -14.5t-37 14.5z" />
    <glyph glyph-name="uniFB01" unicode="&#xfb01;" horiz-adv-x="509" 
d="M168.5 625q-10.5 -21 -10.5 -65v-82h113v-32h-113v-348q0 -32 4.5 -46t18.5 -19.5t46 -8.5v-24h-189v24q24 3 34.5 8.5t14 20t3.5 45.5v348h-79v29q38 2 53 5.5t20.5 13.5t5.5 35q0 75 35 112t83 37q36 0 63 -19.5t27 -53.5q0 -29 -28 -29q-27 0 -27 34q0 19 -10 27.5
t-30 8.5q-24 0 -34.5 -21zM359 425.5q-4 14.5 -15.5 20.5t-36.5 8v24h124v-380q0 -31 3.5 -45.5t14 -20t34.5 -8.5v-24h-172v24q24 3 34.5 8.5t14 20t3.5 45.5v281q0 32 -4 46.5zM356 569.5q-14 14.5 -14 37.5t14 37.5t37 14.5t37 -14.5t14 -37.5t-14 -37.5t-37 -14.5
t-37 14.5z" />
    <glyph glyph-name="uniFB02" unicode="&#xfb02;" horiz-adv-x="498" 
d="M168.5 625q-10.5 -21 -10.5 -65v-82h113v-32h-113v-348q0 -32 4.5 -46t18.5 -19.5t46 -8.5v-24h-189v24q24 3 34.5 8.5t14 20t3.5 45.5v348h-79v29q38 2 53 5.5t20.5 13.5t5.5 35q0 75 35 112t83 37q36 0 63 -19.5t27 -53.5q0 -29 -28 -29q-27 0 -27 34q0 19 -10 27.5
t-30 8.5q-24 0 -34.5 -21zM423.5 52.5q3.5 -14.5 14 -20t34.5 -8.5v-24h-172v24q24 3 34.5 8.5t14 20t3.5 45.5v471q0 32 -4 46.5t-15.5 20.5t-36.5 8v24h124v-570q0 -31 3.5 -45.5z" />
    <glyph glyph-name="uni01F2.sc" horiz-adv-x="909" 
d="M364 626.5q59 -41.5 93.5 -117.5t34.5 -175t-34.5 -175t-93.5 -117.5t-130 -41.5h-198v24q29 3 41.5 8.5t17 21t4.5 49.5v462q0 34 -4.5 49.5t-17 21t-41.5 8.5v24h198q71 0 130 -41.5zM367.5 116.5q48.5 81.5 48.5 217.5t-48.5 217.5t-141.5 81.5h-55v-558
q0 -23 9 -31.5t40 -8.5h6q93 0 141.5 81.5zM549 13l238 458h-108q-25 0 -37.5 -8t-19 -30t-12.5 -70h-24v141h289v-14l-239 -457h142q25 0 37 9t19 32.5t13 76.5h24v-151h-322v13z" />
    <glyph glyph-name="uni01C5.sc" horiz-adv-x="909" 
d="M364 626.5q59 -41.5 93.5 -117.5t34.5 -175t-34.5 -175t-93.5 -117.5t-130 -41.5h-198v24q29 3 41.5 8.5t17 21t4.5 49.5v462q0 34 -4.5 49.5t-17 21t-41.5 8.5v24h198q71 0 130 -41.5zM367.5 116.5q48.5 81.5 48.5 217.5t-48.5 217.5t-141.5 81.5h-55v-558
q0 -23 9 -31.5t40 -8.5h6q93 0 141.5 81.5zM549 13l238 458h-108q-25 0 -37.5 -8t-19 -30t-12.5 -70h-24v141h289v-14l-239 -457h142q25 0 37 9t19 32.5t13 76.5h24v-151h-322v13zM842 694l-95 -125h-38l-96 125h32l83 -68l82 68h32z" />
    <glyph glyph-name="uni01C8.sc" horiz-adv-x="686" 
d="M38 0v24q29 3 41.5 8.5t17 21t4.5 49.5v462q0 34 -4.5 49.5t-17 21t-41.5 8.5v24h204v-24q-32 -3 -45.5 -8.5t-18.5 -21t-5 -49.5v-488q0 -24 8 -33t35 -9h84q29 0 46.5 12.5t28.5 44t18 89.5h24v-181h-379zM506.5 -25q21.5 32 21.5 87v344q0 31 -4 45.5t-15 20t-37 8.5
v24h182v-24q-26 -3 -37 -8.5t-15 -20t-4 -45.5v-308q0 -94 -41 -140t-117 -57v31q45 11 66.5 43z" />
    <glyph glyph-name="uni01CB.sc" horiz-adv-x="777" 
d="M523 644q-29 -3 -41.5 -8.5t-17 -21t-4.5 -49.5v-575h-18l-314 594v-481q0 -34 5 -49.5t19 -21t47 -8.5v-24h-169v24q29 3 41.5 8.5t17 21t4.5 49.5v462q0 34 -4.5 49.5t-17 21t-41.5 8.5v24h132l263 -499v396q0 34 -5 49.5t-19 21t-47 8.5v24h169v-24zM597.5 -25
q21.5 32 21.5 87v344q0 31 -4 45.5t-15 20t-37 8.5v24h182v-24q-26 -3 -37 -8.5t-15 -20t-4 -45.5v-308q0 -94 -41 -140t-117 -57v31q45 11 66.5 43z" />
    <glyph glyph-name="A.c2sc" horiz-adv-x="425" 
d="M3 24q29 3 42.5 16t25.5 54l124 420h18l140 -421q13 -39 27 -52.5t41 -16.5v-24h-178v24q27 2 37 7t10 17q0 11 -11 46l-17 53h-141l-15 -53q-10 -35 -10 -45q0 -12 10 -17.5t36 -7.5v-24h-139v24zM252 180l-63 201l-59 -201h122z" />
    <glyph glyph-name="Aacute.aalt" horiz-adv-x="425" 
d="M3 24q29 3 42.5 16t25.5 54l124 420h18l140 -421q13 -39 27 -52.5t41 -16.5v-24h-178v24q27 2 37 7t10 17q0 11 -11 46l-17 53h-141l-15 -53q-10 -35 -10 -45q0 -12 10 -17.5t36 -7.5v-24h-139v24zM252 180l-63 201l-59 -201h122zM241 690q13 28 36 28q16 0 27 -11
t11 -25t-12 -26l-92 -96h-33z" />
    <glyph glyph-name="Abreve.aalt" horiz-adv-x="425" 
d="M3 24q29 3 42.5 16t25.5 54l124 420h18l140 -421q13 -39 27 -52.5t41 -16.5v-24h-178v24q27 2 37 7t10 17q0 11 -11 46l-17 53h-141l-15 -53q-10 -35 -10 -45q0 -12 10 -17.5t36 -7.5v-24h-139v24zM252 180l-63 201l-59 -201h122zM262 636q23 18 28 56h31q-3 -65 -35 -97
t-80 -32t-80 32t-35 97h31q5 -38 28 -56t56 -18t56 18z" />
    <glyph glyph-name="uni01CD.aalt" horiz-adv-x="425" 
d="M3 24q29 3 42.5 16t25.5 54l124 420h18l140 -421q13 -39 27 -52.5t41 -16.5v-24h-178v24q27 2 37 7t10 17q0 11 -11 46l-17 53h-141l-15 -53q-10 -35 -10 -45q0 -12 10 -17.5t36 -7.5v-24h-139v24zM252 180l-63 201l-59 -201h122zM320 694l-95 -125h-38l-96 125h32
l83 -68l82 68h32z" />
    <glyph glyph-name="Acircumflex.aalt" horiz-adv-x="425" 
d="M3 24q29 3 42.5 16t25.5 54l124 420h18l140 -421q13 -39 27 -52.5t41 -16.5v-24h-178v24q27 2 37 7t10 17q0 11 -11 46l-17 53h-141l-15 -53q-10 -35 -10 -45q0 -12 10 -17.5t36 -7.5v-24h-139v24zM252 180l-63 201l-59 -201h122zM288 569l-82 68l-83 -68h-32l96 125h38
l95 -125h-32z" />
    <glyph glyph-name="Adieresis.aalt" horiz-adv-x="425" 
d="M3 24q29 3 42.5 16t25.5 54l124 420h18l140 -421q13 -39 27 -52.5t41 -16.5v-24h-178v24q27 2 37 7t10 17q0 11 -11 46l-17 53h-141l-15 -53q-10 -35 -10 -45q0 -12 10 -17.5t36 -7.5v-24h-139v24zM252 180l-63 201l-59 -201h122zM99 598.5q-13 13.5 -13 33.5t13 33.5
t33 13.5q21 0 34 -13t13 -34t-13 -34t-34 -13q-20 0 -33 13.5zM246 598q-13 13 -13 34t13 34t34 13q20 0 33 -13.5t13 -33.5t-13 -33.5t-33 -13.5q-21 0 -34 13z" />
    <glyph glyph-name="AE.aalt" horiz-adv-x="572" 
d="M524 135v-135h-313v24q26 3 37 8.5t15 20t4 45.5v70h-123l-35 -78q-12 -27 -12 -40t11 -18.5t38 -7.5v-24h-141v24q22 5 36.5 16.5t30.5 48.5l186 415h253v-129h-24q-5 40 -12 60.5t-18.5 28t-32.5 7.5h-87v-193h57q23 0 30 11.5t10 50.5h24v-157h-24q-2 38 -9.5 50
t-30.5 12h-57v-185q0 -16 6.5 -21.5t24.5 -5.5h70q20 0 31.5 8.5t18 29.5t12.5 64h24zM267 201v244l-109 -244h109z" />
    <glyph glyph-name="Agrave.aalt" horiz-adv-x="425" 
d="M3 24q29 3 42.5 16t25.5 54l124 420h18l140 -421q13 -39 27 -52.5t41 -16.5v-24h-178v24q27 2 37 7t10 17q0 11 -11 46l-17 53h-141l-15 -53q-10 -35 -10 -45q0 -12 10 -17.5t36 -7.5v-24h-139v24zM252 180l-63 201l-59 -201h122zM201 560l-92 96q-12 12 -12 26t11 25
t27 11q23 0 36 -28l63 -130h-33z" />
    <glyph glyph-name="Amacron.aalt" horiz-adv-x="425" 
d="M3 24q29 3 42.5 16t25.5 54l124 420h18l140 -421q13 -39 27 -52.5t41 -16.5v-24h-178v24q27 2 37 7t10 17q0 11 -11 46l-17 53h-141l-15 -53q-10 -35 -10 -45q0 -12 10 -17.5t36 -7.5v-24h-139v24zM252 180l-63 201l-59 -201h122zM322 624v-41h-232v41h232z" />
    <glyph glyph-name="Aogonek.aalt" horiz-adv-x="425" 
d="M3 24q29 3 42.5 16t25.5 54l124 420h18l140 -421q13 -39 27 -52.5t41 -16.5v-24h-178v24q27 2 37 7t10 17q0 11 -11 46l-17 53h-141l-15 -53q-10 -35 -10 -45q0 -12 10 -17.5t36 -7.5v-24h-139v24zM252 180l-63 201l-59 -201h122zM274 -165.5q-21 19.5 -21 51.5
q0 26 18.5 51.5t57.5 55.5l17 13h27q-40 -36 -55 -62.5t-15 -51.5q0 -22 11 -33t29 -11q16 0 28 10.5t23 32.5l23 -12q-13 -30 -32.5 -47t-53.5 -17q-36 0 -57 19.5z" />
    <glyph glyph-name="Aring.aalt" horiz-adv-x="425" 
d="M3 24q29 3 42.5 16t25.5 54l124 420h18l140 -421q13 -39 27 -52.5t41 -16.5v-24h-178v24q27 2 37 7t10 17q0 11 -11 46l-17 53h-141l-15 -53q-10 -35 -10 -45q0 -12 10 -17.5t36 -7.5v-24h-139v24zM252 180l-63 201l-59 -201h122zM148.5 583q-23.5 23 -23.5 57t23.5 57
t57.5 23t57.5 -23t23.5 -57t-23.5 -57t-57.5 -23t-57.5 23zM242 602.5q14 14.5 14 37.5q0 24 -14 38t-36 14t-36 -14t-14 -38q0 -23 14 -37.5t36 -14.5t36 14.5z" />
    <glyph glyph-name="Atilde.aalt" horiz-adv-x="425" 
d="M3 24q29 3 42.5 16t25.5 54l124 420h18l140 -421q13 -39 27 -52.5t41 -16.5v-24h-178v24q27 2 37 7t10 17q0 11 -11 46l-17 53h-141l-15 -53q-10 -35 -10 -45q0 -12 10 -17.5t36 -7.5v-24h-139v24zM252 180l-63 201l-59 -201h122zM289.5 628q7.5 12 13.5 43h30
q-7 -108 -76 -108q-17 0 -33 9.5t-37 26.5q-15 13 -25 19t-18 6q-15 0 -22.5 -12t-13.5 -43h-30q7 108 76 108q17 0 32.5 -8.5t34.5 -25.5q17 -14 27 -20.5t19 -6.5q15 0 22.5 12z" />
    <glyph glyph-name="B.aalt" horiz-adv-x="414" 
d="M31 24q26 3 37 8.5t15 20t4 45.5v308q0 31 -4 45.5t-15 20t-37 8.5v24h165q71 0 111.5 -33t40.5 -90q0 -40 -22 -69t-65 -45q53 -12 81.5 -46.5t28.5 -83.5q0 -61 -42.5 -99t-109.5 -38h-188v24zM274 375q0 47 -23 71.5t-66 24.5h-28v-194h33q84 0 84 98zM275.5 59.5
q21.5 26.5 21.5 77.5q0 53 -21 80t-66 27h-53v-184q0 -16 6.5 -21.5t24.5 -5.5h23q43 0 64.5 26.5z" />
    <glyph glyph-name="C.aalt" horiz-adv-x="396" 
d="M85.5 61q-47.5 71 -47.5 191q0 121 50 191.5t138 70.5q35 0 64.5 -11.5t64.5 -40.5v-126h-24q-8 78 -34 111.5t-69 33.5q-57 0 -86.5 -58.5t-29.5 -170.5q0 -111 29 -170t85 -59q43 0 69.5 34.5t31.5 102.5h34q-6 -82 -42 -126t-104 -44q-82 0 -129.5 71z" />
    <glyph glyph-name="Cacute.aalt" horiz-adv-x="396" 
d="M85.5 61q-47.5 71 -47.5 191q0 121 50 191.5t138 70.5q35 0 64.5 -11.5t64.5 -40.5v-126h-24q-8 78 -34 111.5t-69 33.5q-57 0 -86.5 -58.5t-29.5 -170.5q0 -111 29 -170t85 -59q43 0 69.5 34.5t31.5 102.5h34q-6 -82 -42 -126t-104 -44q-82 0 -129.5 71zM252 690
q13 28 36 28q16 0 27 -11t11 -25t-12 -26l-92 -96h-33z" />
    <glyph glyph-name="Ccaron.aalt" horiz-adv-x="396" 
d="M85.5 61q-47.5 71 -47.5 191q0 121 50 191.5t138 70.5q35 0 64.5 -11.5t64.5 -40.5v-126h-24q-8 78 -34 111.5t-69 33.5q-57 0 -86.5 -58.5t-29.5 -170.5q0 -111 29 -170t85 -59q43 0 69.5 34.5t31.5 102.5h34q-6 -82 -42 -126t-104 -44q-82 0 -129.5 71zM331 694
l-95 -125h-38l-96 125h32l83 -68l82 68h32z" />
    <glyph glyph-name="Ccedilla.aalt" horiz-adv-x="396" 
d="M85.5 61q-47.5 71 -47.5 191q0 121 50 191.5t138 70.5q35 0 64.5 -11.5t64.5 -40.5v-126h-24q-8 78 -34 111.5t-69 33.5q-57 0 -86.5 -58.5t-29.5 -170.5q0 -111 29 -170t85 -59q43 0 69.5 34.5t31.5 102.5h34q-6 -82 -42 -126t-104 -44q-82 0 -129.5 71zM270.5 -72.5
q18.5 -17.5 18.5 -46.5t-21.5 -47.5t-56.5 -18.5q-42 0 -66 33l17 16q19 -23 39 -23q18 0 28 10.5t10 28.5q0 17 -10 28t-26 11q-15 0 -26 -14l-18 10l53 96l25 -1l-38 -70q7 5 23 5q30 0 48.5 -17.5z" />
    <glyph glyph-name="Ccircumflex.aalt" horiz-adv-x="396" 
d="M85.5 61q-47.5 71 -47.5 191q0 121 50 191.5t138 70.5q35 0 64.5 -11.5t64.5 -40.5v-126h-24q-8 78 -34 111.5t-69 33.5q-57 0 -86.5 -58.5t-29.5 -170.5q0 -111 29 -170t85 -59q43 0 69.5 34.5t31.5 102.5h34q-6 -82 -42 -126t-104 -44q-82 0 -129.5 71zM299 569l-82 68
l-83 -68h-32l96 125h38l95 -125h-32z" />
    <glyph glyph-name="Cdotaccent.aalt" horiz-adv-x="396" 
d="M85.5 61q-47.5 71 -47.5 191q0 121 50 191.5t138 70.5q35 0 64.5 -11.5t64.5 -40.5v-126h-24q-8 78 -34 111.5t-69 33.5q-57 0 -86.5 -58.5t-29.5 -170.5q0 -111 29 -170t85 -59q43 0 69.5 34.5t31.5 102.5h34q-6 -82 -42 -126t-104 -44q-82 0 -129.5 71zM180 595.5
q-14 14.5 -14 37.5t14 37.5t37 14.5t37 -14.5t14 -37.5t-14 -37.5t-37 -14.5t-37 14.5z" />
    <glyph glyph-name="D.aalt" horiz-adv-x="450" 
d="M31 24q26 3 37 8.5t15 20t4 45.5v308q0 31 -4 45.5t-15 20t-37 8.5v24h168q60 0 107.5 -32t74 -89.5t26.5 -130.5t-26.5 -130.5t-74 -89.5t-107.5 -32h-168v24zM295.5 91.5q37.5 58.5 37.5 160.5t-37.5 160.5t-103.5 58.5h-35v-411q0 -16 6.5 -21.5t24.5 -5.5h4
q66 0 103.5 58.5z" />
    <glyph glyph-name="Dcaron.aalt" horiz-adv-x="450" 
d="M31 24q26 3 37 8.5t15 20t4 45.5v308q0 31 -4 45.5t-15 20t-37 8.5v24h168q60 0 107.5 -32t74 -89.5t26.5 -130.5t-26.5 -130.5t-74 -89.5t-107.5 -32h-168v24zM295.5 91.5q37.5 58.5 37.5 160.5t-37.5 160.5t-103.5 58.5h-35v-411q0 -16 6.5 -21.5t24.5 -5.5h4
q66 0 103.5 58.5zM320 694l-95 -125h-38l-96 125h32l83 -68l82 68h32z" />
    <glyph glyph-name="Dcroat.aalt" horiz-adv-x="451" 
d="M307.5 472q47.5 -32 74 -89.5t26.5 -130.5t-26.5 -130.5t-74 -89.5t-107.5 -32h-168v24q26 3 37 8.5t15 20t4 45.5v144h-62v31h62v133q0 31 -4 45.5t-15 20t-37 8.5v24h168q60 0 107.5 -32zM296.5 91.5q37.5 58.5 37.5 160.5t-37.5 160.5t-103.5 58.5h-35v-198h79v-31
h-79v-182q0 -16 6.5 -21.5t24.5 -5.5h4q66 0 103.5 58.5z" />
    <glyph glyph-name="uni01F3.aalt" horiz-adv-x="818" 
d="M31 24q26 3 37 8.5t15 20t4 45.5v308q0 31 -4 45.5t-15 20t-37 8.5v24h168q60 0 107.5 -32t74 -89.5t26.5 -130.5t-26.5 -130.5t-74 -89.5t-107.5 -32h-168v24zM295.5 91.5q37.5 58.5 37.5 160.5t-37.5 160.5t-103.5 58.5h-35v-411q0 -16 6.5 -21.5t24.5 -5.5h4
q66 0 103.5 58.5zM458 13l238 458h-108q-25 0 -37.5 -8t-19 -30t-12.5 -70h-24v141h289v-14l-239 -457h142q25 0 37 9t19 32.5t13 76.5h24v-151h-322v13z" />
    <glyph glyph-name="uni01C6.aalt" horiz-adv-x="818" 
d="M31 24q26 3 37 8.5t15 20t4 45.5v308q0 31 -4 45.5t-15 20t-37 8.5v24h168q60 0 107.5 -32t74 -89.5t26.5 -130.5t-26.5 -130.5t-74 -89.5t-107.5 -32h-168v24zM295.5 91.5q37.5 58.5 37.5 160.5t-37.5 160.5t-103.5 58.5h-35v-411q0 -16 6.5 -21.5t24.5 -5.5h4
q66 0 103.5 58.5zM458 13l238 458h-108q-25 0 -37.5 -8t-19 -30t-12.5 -70h-24v141h289v-14l-239 -457h142q25 0 37 9t19 32.5t13 76.5h24v-151h-322v13zM751 694l-95 -125h-38l-96 125h32l83 -68l82 68h32z" />
    <glyph glyph-name="E.aalt" horiz-adv-x="395" 
d="M32 24q26 3 37 8.5t15 20t4 45.5v308q0 31 -4 45.5t-15 20t-37 8.5v24h308v-129h-24q-5 40 -12 60.5t-18.5 28t-32.5 7.5h-95v-193h65q23 0 30 11.5t10 50.5h24v-157h-24q-2 38 -9.5 50t-30.5 12h-65v-185q0 -16 6.5 -21.5t24.5 -5.5h78q20 0 31.5 8.5t18 29.5t12.5 64
h24v-135h-321v24z" />
    <glyph glyph-name="Eacute.aalt" horiz-adv-x="395" 
d="M32 24q26 3 37 8.5t15 20t4 45.5v308q0 31 -4 45.5t-15 20t-37 8.5v24h308v-129h-24q-5 40 -12 60.5t-18.5 28t-32.5 7.5h-95v-193h65q23 0 30 11.5t10 50.5h24v-157h-24q-2 38 -9.5 50t-30.5 12h-65v-185q0 -16 6.5 -21.5t24.5 -5.5h78q20 0 31.5 8.5t18 29.5t12.5 64
h24v-135h-321v24zM236 690q13 28 36 28q16 0 27 -11t11 -25t-12 -26l-92 -96h-33z" />
    <glyph glyph-name="Ebreve.aalt" horiz-adv-x="395" 
d="M32 24q26 3 37 8.5t15 20t4 45.5v308q0 31 -4 45.5t-15 20t-37 8.5v24h308v-129h-24q-5 40 -12 60.5t-18.5 28t-32.5 7.5h-95v-193h65q23 0 30 11.5t10 50.5h24v-157h-24q-2 38 -9.5 50t-30.5 12h-65v-185q0 -16 6.5 -21.5t24.5 -5.5h78q20 0 31.5 8.5t18 29.5t12.5 64
h24v-135h-321v24zM257 636q23 18 28 56h31q-3 -65 -35 -97t-80 -32t-80 32t-35 97h31q5 -38 28 -56t56 -18t56 18z" />
    <glyph glyph-name="Ecaron.aalt" horiz-adv-x="395" 
d="M32 24q26 3 37 8.5t15 20t4 45.5v308q0 31 -4 45.5t-15 20t-37 8.5v24h308v-129h-24q-5 40 -12 60.5t-18.5 28t-32.5 7.5h-95v-193h65q23 0 30 11.5t10 50.5h24v-157h-24q-2 38 -9.5 50t-30.5 12h-65v-185q0 -16 6.5 -21.5t24.5 -5.5h78q20 0 31.5 8.5t18 29.5t12.5 64
h24v-135h-321v24zM315 694l-95 -125h-38l-96 125h32l83 -68l82 68h32z" />
    <glyph glyph-name="Ecircumflex.aalt" horiz-adv-x="395" 
d="M32 24q26 3 37 8.5t15 20t4 45.5v308q0 31 -4 45.5t-15 20t-37 8.5v24h308v-129h-24q-5 40 -12 60.5t-18.5 28t-32.5 7.5h-95v-193h65q23 0 30 11.5t10 50.5h24v-157h-24q-2 38 -9.5 50t-30.5 12h-65v-185q0 -16 6.5 -21.5t24.5 -5.5h78q20 0 31.5 8.5t18 29.5t12.5 64
h24v-135h-321v24zM283 569l-82 68l-83 -68h-32l96 125h38l95 -125h-32z" />
    <glyph glyph-name="Edieresis.aalt" horiz-adv-x="395" 
d="M32 24q26 3 37 8.5t15 20t4 45.5v308q0 31 -4 45.5t-15 20t-37 8.5v24h308v-129h-24q-5 40 -12 60.5t-18.5 28t-32.5 7.5h-95v-193h65q23 0 30 11.5t10 50.5h24v-157h-24q-2 38 -9.5 50t-30.5 12h-65v-185q0 -16 6.5 -21.5t24.5 -5.5h78q20 0 31.5 8.5t18 29.5t12.5 64
h24v-135h-321v24zM94 598.5q-13 13.5 -13 33.5t13 33.5t33 13.5q21 0 34 -13t13 -34t-13 -34t-34 -13q-20 0 -33 13.5zM241 598q-13 13 -13 34t13 34t34 13q20 0 33 -13.5t13 -33.5t-13 -33.5t-33 -13.5q-21 0 -34 13z" />
    <glyph glyph-name="Edotaccent.aalt" horiz-adv-x="395" 
d="M32 24q26 3 37 8.5t15 20t4 45.5v308q0 31 -4 45.5t-15 20t-37 8.5v24h308v-129h-24q-5 40 -12 60.5t-18.5 28t-32.5 7.5h-95v-193h65q23 0 30 11.5t10 50.5h24v-157h-24q-2 38 -9.5 50t-30.5 12h-65v-185q0 -16 6.5 -21.5t24.5 -5.5h78q20 0 31.5 8.5t18 29.5t12.5 64
h24v-135h-321v24zM164 595.5q-14 14.5 -14 37.5t14 37.5t37 14.5t37 -14.5t14 -37.5t-14 -37.5t-37 -14.5t-37 14.5z" />
    <glyph glyph-name="Egrave.aalt" horiz-adv-x="395" 
d="M32 24q26 3 37 8.5t15 20t4 45.5v308q0 31 -4 45.5t-15 20t-37 8.5v24h308v-129h-24q-5 40 -12 60.5t-18.5 28t-32.5 7.5h-95v-193h65q23 0 30 11.5t10 50.5h24v-157h-24q-2 38 -9.5 50t-30.5 12h-65v-185q0 -16 6.5 -21.5t24.5 -5.5h78q20 0 31.5 8.5t18 29.5t12.5 64
h24v-135h-321v24zM196 560l-92 96q-12 12 -12 26t11 25t27 11q23 0 36 -28l63 -130h-33z" />
    <glyph glyph-name="Emacron.aalt" horiz-adv-x="395" 
d="M32 24q26 3 37 8.5t15 20t4 45.5v308q0 31 -4 45.5t-15 20t-37 8.5v24h308v-129h-24q-5 40 -12 60.5t-18.5 28t-32.5 7.5h-95v-193h65q23 0 30 11.5t10 50.5h24v-157h-24q-2 38 -9.5 50t-30.5 12h-65v-185q0 -16 6.5 -21.5t24.5 -5.5h78q20 0 31.5 8.5t18 29.5t12.5 64
h24v-135h-321v24zM317 624v-41h-232v41h232z" />
    <glyph glyph-name="Eng.aalt" horiz-adv-x="461" 
d="M433 480q-26 -3 -37 -8.5t-15 -20t-4 -45.5v-308q0 -96 -32.5 -141t-105.5 -56v31q43 11 61.5 42t18.5 87l-200 354v-317q0 -32 4 -46t17 -19.5t42 -8.5v-24h-152v24q26 3 37 8.5t15 20t4 45.5v308q0 31 -4 45.5t-15 20t-37 8.5v24h113l201 -356v258q0 32 -4 46t-17 19.5
t-42 8.5v24h152v-24z" />
    <glyph glyph-name="Eogonek.aalt" horiz-adv-x="395" 
d="M32 24q26 3 37 8.5t15 20t4 45.5v308q0 31 -4 45.5t-15 20t-37 8.5v24h308v-129h-24q-5 40 -12 60.5t-18.5 28t-32.5 7.5h-95v-193h65q23 0 30 11.5t10 50.5h24v-157h-24q-2 38 -9.5 50t-30.5 12h-65v-185q0 -16 6.5 -21.5t24.5 -5.5h78q20 0 31.5 8.5t18 29.5t12.5 64
h24v-135h-321v24zM219 -165.5q-21 19.5 -21 51.5q0 26 18.5 51.5t57.5 55.5l17 13h27q-40 -36 -55 -62.5t-15 -51.5q0 -22 11 -33t29 -11q16 0 28 10.5t23 32.5l23 -12q-13 -30 -32.5 -47t-53.5 -17q-36 0 -57 19.5z" />
    <glyph glyph-name="Eth.aalt" horiz-adv-x="451" 
d="M307.5 472q47.5 -32 74 -89.5t26.5 -130.5t-26.5 -130.5t-74 -89.5t-107.5 -32h-168v24q26 3 37 8.5t15 20t4 45.5v144h-62v31h62v133q0 31 -4 45.5t-15 20t-37 8.5v24h168q60 0 107.5 -32zM296.5 91.5q37.5 58.5 37.5 160.5t-37.5 160.5t-103.5 58.5h-35v-198h79v-31
h-79v-182q0 -16 6.5 -21.5t24.5 -5.5h4q66 0 103.5 58.5z" />
    <glyph glyph-name="uni1EBC.aalt" horiz-adv-x="395" 
d="M32 24q26 3 37 8.5t15 20t4 45.5v308q0 31 -4 45.5t-15 20t-37 8.5v24h308v-129h-24q-5 40 -12 60.5t-18.5 28t-32.5 7.5h-95v-193h65q23 0 30 11.5t10 50.5h24v-157h-24q-2 38 -9.5 50t-30.5 12h-65v-185q0 -16 6.5 -21.5t24.5 -5.5h78q20 0 31.5 8.5t18 29.5t12.5 64
h24v-135h-321v24zM284.5 628q7.5 12 13.5 43h30q-7 -108 -76 -108q-17 0 -33 9.5t-37 26.5q-15 13 -25 19t-18 6q-15 0 -22.5 -12t-13.5 -43h-30q7 108 76 108q17 0 32.5 -8.5t34.5 -25.5q17 -14 27 -20.5t19 -6.5q15 0 22.5 12z" />
    <glyph glyph-name="F.aalt" horiz-adv-x="375" 
d="M33 24q26 3 37 8.5t15 20t4 45.5v308q0 31 -4 45.5t-15 20t-37 8.5v24h307v-140h-24q-5 44 -12 66.5t-19 31.5t-32 9h-94v-200h63q23 0 30.5 11.5t9.5 50.5h24v-157h-24q-2 38 -9 50t-31 12h-63v-140q0 -31 5 -45.5t18.5 -20t44.5 -8.5v-24h-194v24z" />
    <glyph glyph-name="G.aalt" horiz-adv-x="434" 
d="M92 60q-51 70 -51 192q0 78 23 137.5t66 92t100 32.5q37 0 67.5 -10.5t63.5 -34.5v-113h-24q-13 67 -36.5 96t-68.5 29q-57 0 -87 -60t-30 -169q0 -110 30 -169.5t86 -59.5q34 0 63 22v108q0 26 -3.5 36t-14.5 14t-42 7v24h175v-24q-23 -3 -31.5 -7t-11 -14t-2.5 -36
v-116q-40 -25 -71 -36t-62 -11q-88 0 -139 70z" />
    <glyph glyph-name="Gbreve.aalt" horiz-adv-x="434" 
d="M92 60q-51 70 -51 192q0 78 23 137.5t66 92t100 32.5q37 0 67.5 -10.5t63.5 -34.5v-113h-24q-13 67 -36.5 96t-68.5 29q-57 0 -87 -60t-30 -169q0 -110 30 -169.5t86 -59.5q34 0 63 22v108q0 26 -3.5 36t-14.5 14t-42 7v24h175v-24q-23 -3 -31.5 -7t-11 -14t-2.5 -36
v-116q-40 -25 -71 -36t-62 -11q-88 0 -139 70zM285 636q23 18 28 56h31q-3 -65 -35 -97t-80 -32t-80 32t-35 97h31q5 -38 28 -56t56 -18t56 18z" />
    <glyph glyph-name="Gcircumflex.aalt" horiz-adv-x="434" 
d="M92 60q-51 70 -51 192q0 78 23 137.5t66 92t100 32.5q37 0 67.5 -10.5t63.5 -34.5v-113h-24q-13 67 -36.5 96t-68.5 29q-57 0 -87 -60t-30 -169q0 -110 30 -169.5t86 -59.5q34 0 63 22v108q0 26 -3.5 36t-14.5 14t-42 7v24h175v-24q-23 -3 -31.5 -7t-11 -14t-2.5 -36
v-116q-40 -25 -71 -36t-62 -11q-88 0 -139 70zM311 569l-82 68l-83 -68h-32l96 125h38l95 -125h-32z" />
    <glyph glyph-name="uni0122.aalt" horiz-adv-x="434" 
d="M92 60q-51 70 -51 192q0 78 23 137.5t66 92t100 32.5q37 0 67.5 -10.5t63.5 -34.5v-113h-24q-13 67 -36.5 96t-68.5 29q-57 0 -87 -60t-30 -169q0 -110 30 -169.5t86 -59.5q34 0 63 22v108q0 26 -3.5 36t-14.5 14t-42 7v24h175v-24q-23 -3 -31.5 -7t-11 -14t-2.5 -36
v-116q-40 -25 -71 -36t-62 -11q-88 0 -139 70zM261.5 -50q14.5 -14 14.5 -39q0 -61 -61 -96l-15 20q22 12 33.5 28.5t11.5 29.5q-10 -5 -21 -5q-17 0 -27.5 11t-10.5 25q0 17 12 28.5t31 11.5q18 0 32.5 -14z" />
    <glyph glyph-name="Gdotaccent.aalt" horiz-adv-x="434" 
d="M92 60q-51 70 -51 192q0 78 23 137.5t66 92t100 32.5q37 0 67.5 -10.5t63.5 -34.5v-113h-24q-13 67 -36.5 96t-68.5 29q-57 0 -87 -60t-30 -169q0 -110 30 -169.5t86 -59.5q34 0 63 22v108q0 26 -3.5 36t-14.5 14t-42 7v24h175v-24q-23 -3 -31.5 -7t-11 -14t-2.5 -36
v-116q-40 -25 -71 -36t-62 -11q-88 0 -139 70zM192 595.5q-14 14.5 -14 37.5t14 37.5t37 14.5t37 -14.5t14 -37.5t-14 -37.5t-37 -14.5t-37 14.5z" />
    <glyph glyph-name="germandbls.aalt" horiz-adv-x="742" 
d="M108.5 1.5q-37.5 11.5 -63.5 32.5v136h23q9 -80 36.5 -113.5t76.5 -33.5q43 0 67.5 22t24.5 62q0 35 -18.5 60t-61.5 49l-55 32q-47 28 -68.5 60.5t-21.5 75.5q0 58 37 94t95 36q34 0 65 -10.5t66 -34.5v-117h-22q-7 65 -34.5 97t-70.5 32q-34 0 -55.5 -22t-21.5 -59
q0 -28 16.5 -48t56.5 -43l66 -38q44 -25 67 -60.5t23 -78.5q0 -62 -43 -102t-109 -40q-38 0 -75.5 11.5zM479.5 1.5q-37.5 11.5 -63.5 32.5v136h23q9 -80 36.5 -113.5t76.5 -33.5q43 0 67.5 22t24.5 62q0 35 -18.5 60t-61.5 49l-55 32q-47 28 -68.5 60.5t-21.5 75.5
q0 58 37 94t95 36q34 0 65 -10.5t66 -34.5v-117h-22q-7 65 -34.5 97t-70.5 32q-34 0 -55.5 -22t-21.5 -59q0 -28 16.5 -48t56.5 -43l66 -38q44 -25 67 -60.5t23 -78.5q0 -62 -43 -102t-109 -40q-38 0 -75.5 11.5z" />
    <glyph glyph-name="H.aalt" horiz-adv-x="488" 
d="M37 24q26 3 37 8.5t15 20t4 45.5v308q0 31 -4 45.5t-15 20t-37 8.5v24h178v-24q-24 -3 -34.5 -8.5t-14 -20t-3.5 -45.5v-129h161v129q0 32 -3.5 46t-14 19.5t-34.5 8.5v24h178v-24q-26 -3 -37 -8.5t-15 -20t-4 -45.5v-308q0 -31 4 -45.5t15 -20t37 -8.5v-24h-178v24
q24 3 34.5 8.5t14 19.5t3.5 46v146h-161v-146q0 -31 3.5 -45.5t14 -20t34.5 -8.5v-24h-178v24z" />
    <glyph glyph-name="Hbar.aalt" horiz-adv-x="489" 
d="M395 350v-252q0 -31 4 -45.5t15 -20t37 -8.5v-24h-178v24q24 3 34.5 8.5t14 19.5t3.5 46v146h-161v-146q0 -31 3.5 -45.5t14 -20t34.5 -8.5v-24h-178v24q26 3 37 8.5t15 20t4 45.5v252h-57v30h57v26q0 31 -4 45.5t-15 20t-37 8.5v24h178v-24q-24 -3 -34.5 -8.5t-14 -20
t-3.5 -45.5v-26h161v26q0 32 -3.5 46t-14 19.5t-34.5 8.5v24h178v-24q-26 -3 -37 -8.5t-15 -20t-4 -45.5v-26h57v-30h-57zM325 350h-161v-73h161v73z" />
    <glyph glyph-name="Hcircumflex.aalt" horiz-adv-x="488" 
d="M37 24q26 3 37 8.5t15 20t4 45.5v308q0 31 -4 45.5t-15 20t-37 8.5v24h178v-24q-24 -3 -34.5 -8.5t-14 -20t-3.5 -45.5v-129h161v129q0 32 -3.5 46t-14 19.5t-34.5 8.5v24h178v-24q-26 -3 -37 -8.5t-15 -20t-4 -45.5v-308q0 -31 4 -45.5t15 -20t37 -8.5v-24h-178v24
q24 3 34.5 8.5t14 19.5t3.5 46v146h-161v-146q0 -31 3.5 -45.5t14 -20t34.5 -8.5v-24h-178v24zM324 569l-82 68l-83 -68h-32l96 125h38l95 -125h-32z" />
    <glyph glyph-name="I.aalt" horiz-adv-x="252" 
d="M35 24q26 3 37 8.5t15 20t4 45.5v308q0 31 -4 45.5t-15 20t-37 8.5v24h182v-24q-26 -3 -37 -8.5t-15 -20t-4 -45.5v-308q0 -31 4 -45.5t15 -20t37 -8.5v-24h-182v24z" />
    <glyph glyph-name="Iacute.aalt" horiz-adv-x="252" 
d="M35 24q26 3 37 8.5t15 20t4 45.5v308q0 31 -4 45.5t-15 20t-37 8.5v24h182v-24q-26 -3 -37 -8.5t-15 -20t-4 -45.5v-308q0 -31 4 -45.5t15 -20t37 -8.5v-24h-182v24zM160 690q13 28 36 28q16 0 27 -11t11 -25t-12 -26l-92 -96h-33z" />
    <glyph glyph-name="Ibreve.aalt" horiz-adv-x="252" 
d="M172 636q19 18 24 56h31q-3 -65 -31 -97t-71 -32t-71 32t-31 97h31q5 -38 24 -56t47 -18t47 18zM35 24q26 3 37 8.5t15 20t4 45.5v308q0 31 -4 45.5t-15 20t-37 8.5v24h182v-24q-26 -3 -37 -8.5t-15 -20t-4 -45.5v-308q0 -31 4 -45.5t15 -20t37 -8.5v-24h-182v24z" />
    <glyph glyph-name="uni01CF.aalt" horiz-adv-x="252" 
d="M106 569l-83 125h32l70 -68l69 68h32l-82 -125h-38zM217 480q-26 -3 -37 -8.5t-15 -20t-4 -45.5v-308q0 -31 4 -45.5t15 -20t37 -8.5v-24h-182v24q26 3 37 8.5t15 20t4 45.5v308q0 31 -4 45.5t-15 20t-37 8.5v24h182v-24z" />
    <glyph glyph-name="Icircumflex.aalt" horiz-adv-x="252" 
d="M55 569h-32l83 125h38l82 -125h-32l-69 68zM217 480q-26 -3 -37 -8.5t-15 -20t-4 -45.5v-308q0 -31 4 -45.5t15 -20t37 -8.5v-24h-182v24q26 3 37 8.5t15 20t4 45.5v308q0 31 -4 45.5t-15 20t-37 8.5v24h182v-24z" />
    <glyph glyph-name="Idieresis.aalt" horiz-adv-x="252" 
d="M25 598.5q-13 13.5 -13 33.5t13 33.5t33 13.5q21 0 34 -13t13 -34t-13 -34t-34 -13q-20 0 -33 13.5zM158 598q-13 13 -13 34t13 34t34 13q20 0 33 -13.5t13 -33.5t-13 -33.5t-33 -13.5q-21 0 -34 13zM35 24q26 3 37 8.5t15 20t4 45.5v308q0 31 -4 45.5t-15 20t-37 8.5v24
h182v-24q-26 -3 -37 -8.5t-15 -20t-4 -45.5v-308q0 -31 4 -45.5t15 -20t37 -8.5v-24h-182v24z" />
    <glyph glyph-name="i.locl.sc" horiz-adv-x="252" 
d="M35 24q26 3 37 8.5t15 20t4 45.5v308q0 31 -4 45.5t-15 20t-37 8.5v24h182v-24q-26 -3 -37 -8.5t-15 -20t-4 -45.5v-308q0 -31 4 -45.5t15 -20t37 -8.5v-24h-182v24zM88 595.5q-14 14.5 -14 37.5t14 37.5t37 14.5t37 -14.5t14 -37.5t-14 -37.5t-37 -14.5t-37 14.5z" />
    <glyph glyph-name="dotlessi.aalt" horiz-adv-x="252" 
d="M35 24q26 3 37 8.5t15 20t4 45.5v308q0 31 -4 45.5t-15 20t-37 8.5v24h182v-24q-26 -3 -37 -8.5t-15 -20t-4 -45.5v-308q0 -31 4 -45.5t15 -20t37 -8.5v-24h-182v24z" />
    <glyph glyph-name="Igrave.aalt" horiz-adv-x="252" 
d="M35 24q26 3 37 8.5t15 20t4 45.5v308q0 31 -4 45.5t-15 20t-37 8.5v24h182v-24q-26 -3 -37 -8.5t-15 -20t-4 -45.5v-308q0 -31 4 -45.5t15 -20t37 -8.5v-24h-182v24zM120 560l-92 96q-12 12 -12 26t11 25t27 11q23 0 36 -28l63 -130h-33z" />
    <glyph glyph-name="Imacron.aalt" horiz-adv-x="252" 
d="M223 624v-41h-196v41h196zM35 24q26 3 37 8.5t15 20t4 45.5v308q0 31 -4 45.5t-15 20t-37 8.5v24h182v-24q-26 -3 -37 -8.5t-15 -20t-4 -45.5v-308q0 -31 4 -45.5t15 -20t37 -8.5v-24h-182v24z" />
    <glyph glyph-name="Iogonek.aalt" horiz-adv-x="252" 
d="M35 24q26 3 37 8.5t15 20t4 45.5v308q0 31 -4 45.5t-15 20t-37 8.5v24h182v-24q-26 -3 -37 -8.5t-15 -20t-4 -45.5v-308q0 -31 4 -45.5t15 -20t37 -8.5v-24h-182v24zM68 -165.5q-21 19.5 -21 51.5q0 26 18.5 51.5t57.5 55.5l17 13h27q-40 -36 -55 -62.5t-15 -51.5
q0 -22 11 -33t29 -11q16 0 28 10.5t23 32.5l23 -12q-13 -30 -32.5 -47t-53.5 -17q-36 0 -57 19.5z" />
    <glyph glyph-name="Itilde.aalt" horiz-adv-x="252" 
d="M196 628.5q6 12.5 8 42.5h28q-2 -62 -20.5 -85t-42.5 -23q-27 0 -63 38q-14 14 -20 18.5t-12 4.5q-13 0 -18.5 -11.5t-9.5 -43.5h-28q2 62 20.5 85t42.5 23q16 0 28 -8t32 -28q15 -15 22 -20t13 -5q14 0 20 12.5zM35 24q26 3 37 8.5t15 20t4 45.5v308q0 31 -4 45.5
t-15 20t-37 8.5v24h182v-24q-26 -3 -37 -8.5t-15 -20t-4 -45.5v-308q0 -31 4 -45.5t15 -20t37 -8.5v-24h-182v24z" />
    <glyph glyph-name="J.c2sc" horiz-adv-x="241" 
d="M61.5 -25q21.5 32 21.5 87v344q0 31 -4 45.5t-15 20t-37 8.5v24h182v-24q-26 -3 -37 -8.5t-15 -20t-4 -45.5v-308q0 -94 -41 -140t-117 -57v31q45 11 66.5 43z" />
    <glyph glyph-name="glyph450" horiz-adv-x="241" 
d="M61.5 -25q21.5 32 21.5 87v344q0 31 -4 45.5t-15 20t-37 8.5v24h182v-24q-26 -3 -37 -8.5t-15 -20t-4 -45.5v-308q0 -94 -41 -140t-117 -57v31q45 11 66.5 43zM152 690q13 28 36 28q16 0 27 -11t11 -25t-12 -26l-92 -96h-33z" />
    <glyph glyph-name="Jcircumflex.aalt" horiz-adv-x="241" 
d="M47 569h-32l83 125h38l82 -125h-32l-69 68zM209 480q-26 -3 -37 -8.5t-15 -20t-4 -45.5v-308q0 -94 -41 -140t-117 -57v31q45 11 66.5 43t21.5 87v344q0 31 -4 45.5t-15 20t-37 8.5v24h182v-24z" />
    <glyph glyph-name="uni0237.aalt" horiz-adv-x="241" 
d="M61.5 -25q21.5 32 21.5 87v344q0 31 -4 45.5t-15 20t-37 8.5v24h182v-24q-26 -3 -37 -8.5t-15 -20t-4 -45.5v-308q0 -94 -41 -140t-117 -57v31q45 11 66.5 43z" />
    <glyph glyph-name="K.aalt" horiz-adv-x="450" 
d="M401.5 39.5q14.5 -9.5 44.5 -15.5v-24h-181v24q19 2 28 6t9 14q0 14 -17 39l-108 170h-19v-155q0 -32 3.5 -46t13.5 -19.5t33 -8.5v-24h-176v24q26 3 37 8.5t15 20t4 45.5v308q0 31 -4 45.5t-15 20t-37 8.5v24h176v-24q-23 -3 -33 -8.5t-13.5 -19.5t-3.5 -46v-120h22
l108 140q19 25 19 36q0 9 -9.5 12.5t-30.5 5.5v24h150v-24q-35 -7 -51 -16.5t-38 -37.5l-100 -130l137 -213q22 -34 36.5 -43.5z" />
    <glyph glyph-name="uni0136.aalt" horiz-adv-x="450" 
d="M401.5 39.5q14.5 -9.5 44.5 -15.5v-24h-181v24q19 2 28 6t9 14q0 14 -17 39l-108 170h-19v-155q0 -32 3.5 -46t13.5 -19.5t33 -8.5v-24h-176v24q26 3 37 8.5t15 20t4 45.5v308q0 31 -4 45.5t-15 20t-37 8.5v24h176v-24q-23 -3 -33 -8.5t-13.5 -19.5t-3.5 -46v-120h22
l108 140q19 25 19 36q0 9 -9.5 12.5t-30.5 5.5v24h150v-24q-35 -7 -51 -16.5t-38 -37.5l-100 -130l137 -213q22 -34 36.5 -43.5zM266.5 -50q14.5 -14 14.5 -39q0 -61 -61 -96l-15 20q22 12 33.5 28.5t11.5 29.5q-10 -5 -21 -5q-17 0 -27.5 11t-10.5 25q0 17 12 28.5t31 11.5
q18 0 32.5 -14z" />
    <glyph glyph-name="L.aalt" horiz-adv-x="381" 
d="M37 24q26 3 37 8.5t15 20t4 45.5v308q0 31 -4 45.5t-15 20t-37 8.5v24h187v-24q-31 -3 -42.5 -7t-15 -14t-3.5 -36v-362q0 -16 5.5 -22t21.5 -6h68q21 0 33 9.5t19.5 34.5t12.5 72h24v-149h-310v24z" />
    <glyph glyph-name="glyph456" horiz-adv-x="387" 
d="M37 24q26 3 37 8.5t15 20t4 45.5v308q0 31 -4 45.5t-15 20t-37 8.5v24h187v-24q-31 -3 -42.5 -7t-15 -14t-3.5 -36v-362q0 -16 5.5 -22t21.5 -6h68q21 0 33 9.5t19.5 34.5t12.5 72h24v-149h-310v24zM277 247.5q-14 14.5 -14 37.5t14 37.5t37 14.5t37 -14.5t14 -37.5
t-14 -37.5t-37 -14.5t-37 14.5z" />
    <glyph glyph-name="Lacute.aalt" horiz-adv-x="381" 
d="M37 24q26 3 37 8.5t15 20t4 45.5v308q0 31 -4 45.5t-15 20t-37 8.5v24h187v-24q-31 -3 -42.5 -7t-15 -14t-3.5 -36v-362q0 -16 5.5 -22t21.5 -6h68q21 0 33 9.5t19.5 34.5t12.5 72h24v-149h-310v24zM164 690q13 28 36 28q16 0 27 -11t11 -25t-12 -26l-92 -96h-33z" />
    <glyph glyph-name="Lcaron.aalt" horiz-adv-x="385" 
d="M267 468q1 26 10.5 36t24.5 10q14 0 23 -8t9 -25q0 -16 -7 -33l-50 -127h-18zM37 24q26 3 37 8.5t15 20t4 45.5v308q0 31 -4 45.5t-15 20t-37 8.5v24h187v-24q-31 -3 -42.5 -7t-15 -14t-3.5 -36v-362q0 -16 5.5 -22t21.5 -6h68q21 0 33 9.5t19.5 34.5t12.5 72h24v-149
h-310v24z" />
    <glyph glyph-name="uni013B.aalt" horiz-adv-x="381" 
d="M37 24q26 3 37 8.5t15 20t4 45.5v308q0 31 -4 45.5t-15 20t-37 8.5v24h187v-24q-31 -3 -42.5 -7t-15 -14t-3.5 -36v-362q0 -16 5.5 -22t21.5 -6h68q21 0 33 9.5t19.5 34.5t12.5 72h24v-149h-310v24zM231.5 -50q14.5 -14 14.5 -39q0 -61 -61 -96l-15 20q22 12 33.5 28.5
t11.5 29.5q-10 -5 -21 -5q-17 0 -27.5 11t-10.5 25q0 17 12 28.5t31 11.5q18 0 32.5 -14z" />
    <glyph glyph-name="ldot.aalt" horiz-adv-x="387" 
d="M37 24q26 3 37 8.5t15 20t4 45.5v308q0 31 -4 45.5t-15 20t-37 8.5v24h187v-24q-31 -3 -42.5 -7t-15 -14t-3.5 -36v-362q0 -16 5.5 -22t21.5 -6h68q21 0 33 9.5t19.5 34.5t12.5 72h24v-149h-310v24zM277 247.5q-14 14.5 -14 37.5t14 37.5t37 14.5t37 -14.5t14 -37.5
t-14 -37.5t-37 -14.5t-37 14.5z" />
    <glyph glyph-name="uni01C9.aalt" horiz-adv-x="613" 
d="M37 24q26 3 37 8.5t15 20t4 45.5v308q0 31 -4 45.5t-15 20t-37 8.5v24h187v-24q-31 -3 -42.5 -7t-15 -14t-3.5 -36v-362q0 -16 5.5 -22t21.5 -6h68q21 0 33 9.5t19.5 34.5t12.5 72h24v-149h-310v24zM433.5 -25q21.5 32 21.5 87v344q0 31 -4 45.5t-15 20t-37 8.5v24h182
v-24q-26 -3 -37 -8.5t-15 -20t-4 -45.5v-308q0 -94 -41 -140t-117 -57v31q45 11 66.5 43z" />
    <glyph glyph-name="Lslash.aalt" horiz-adv-x="390" 
d="M356 149v-149h-310v24q26 3 37 8.5t15 20t4 45.5v113l-66 -32v35l66 32v160q0 31 -4 45.5t-15 20t-37 8.5v24h187v-24q-31 -3 -42.5 -7t-15 -14t-3.5 -36v-150l87 42v-35l-87 -41v-178q0 -16 5.5 -22t21.5 -6h68q21 0 33 9.5t19.5 34.5t12.5 72h24z" />
    <glyph glyph-name="M.aalt" horiz-adv-x="564" 
d="M127 52q4 -14 16.5 -19.5t41.5 -8.5v-24h-151v24q26 3 37 8.5t15 20t4 45.5v308q0 31 -4 45.5t-15 20t-37 8.5v24h133l115 -364l118 364h131v-24q-26 -3 -37 -8.5t-15 -20t-4 -45.5v-308q0 -31 4 -45.5t15 -20t37 -8.5v-24h-188v24q29 3 41.5 8.5t16.5 19.5t4 46v316
l-134 -414h-19l-129 414v-316q0 -32 4 -46z" />
    <glyph glyph-name="N.aalt" horiz-adv-x="461" 
d="M340 452q-4 14 -17 19.5t-42 8.5v24h152v-24q-26 -3 -37 -8.5t-15 -20t-4 -45.5v-416h-18l-240 425v-317q0 -32 4 -46t17 -19.5t42 -8.5v-24h-152v24q26 3 37 8.5t15 20t4 45.5v308q0 31 -4 45.5t-15 20t-37 8.5v24h113l201 -356v258q0 32 -4 46z" />
    <glyph glyph-name="Nacute.aalt" horiz-adv-x="461" 
d="M340 452q-4 14 -17 19.5t-42 8.5v24h152v-24q-26 -3 -37 -8.5t-15 -20t-4 -45.5v-416h-18l-240 425v-317q0 -32 4 -46t17 -19.5t42 -8.5v-24h-152v24q26 3 37 8.5t15 20t4 45.5v308q0 31 -4 45.5t-15 20t-37 8.5v24h113l201 -356v258q0 32 -4 46zM267 690q13 28 36 28
q16 0 27 -11t11 -25t-12 -26l-92 -96h-33z" />
    <glyph glyph-name="Ncaron.aalt" horiz-adv-x="461" 
d="M340 452q-4 14 -17 19.5t-42 8.5v24h152v-24q-26 -3 -37 -8.5t-15 -20t-4 -45.5v-416h-18l-240 425v-317q0 -32 4 -46t17 -19.5t42 -8.5v-24h-152v24q26 3 37 8.5t15 20t4 45.5v308q0 31 -4 45.5t-15 20t-37 8.5v24h113l201 -356v258q0 32 -4 46zM346 694l-95 -125h-38
l-96 125h32l83 -68l82 68h32z" />
    <glyph glyph-name="uni0145.aalt" horiz-adv-x="461" 
d="M340 452q-4 14 -17 19.5t-42 8.5v24h152v-24q-26 -3 -37 -8.5t-15 -20t-4 -45.5v-416h-18l-240 425v-317q0 -32 4 -46t17 -19.5t42 -8.5v-24h-152v24q26 3 37 8.5t15 20t4 45.5v308q0 31 -4 45.5t-15 20t-37 8.5v24h113l201 -356v258q0 32 -4 46zM273.5 -50
q14.5 -14 14.5 -39q0 -61 -61 -96l-15 20q22 12 33.5 28.5t11.5 29.5q-10 -5 -21 -5q-17 0 -27.5 11t-10.5 25q0 17 12 28.5t31 11.5q18 0 32.5 -14z" />
    <glyph glyph-name="Ntilde.aalt" horiz-adv-x="461" 
d="M340 452q-4 14 -17 19.5t-42 8.5v24h152v-24q-26 -3 -37 -8.5t-15 -20t-4 -45.5v-416h-18l-240 425v-317q0 -32 4 -46t17 -19.5t42 -8.5v-24h-152v24q26 3 37 8.5t15 20t4 45.5v308q0 31 -4 45.5t-15 20t-37 8.5v24h113l201 -356v258q0 32 -4 46zM315.5 628
q7.5 12 13.5 43h30q-7 -108 -76 -108q-17 0 -33 9.5t-37 26.5q-15 13 -25 19t-18 6q-15 0 -22.5 -12t-13.5 -43h-30q7 108 76 108q17 0 32.5 -8.5t34.5 -25.5q17 -14 27 -20.5t19 -6.5q15 0 22.5 12z" />
    <glyph glyph-name="uni01CC.aalt" horiz-adv-x="702" 
d="M340 452q-4 14 -17 19.5t-42 8.5v24h152v-24q-26 -3 -37 -8.5t-15 -20t-4 -45.5v-416h-18l-240 425v-317q0 -32 4 -46t17 -19.5t42 -8.5v-24h-152v24q26 3 37 8.5t15 20t4 45.5v308q0 31 -4 45.5t-15 20t-37 8.5v24h113l201 -356v258q0 32 -4 46zM522.5 -25
q21.5 32 21.5 87v344q0 31 -4 45.5t-15 20t-37 8.5v24h182v-24q-26 -3 -37 -8.5t-15 -20t-4 -45.5v-308q0 -94 -41 -140t-117 -57v31q45 11 66.5 43z" />
    <glyph glyph-name="O.c2sc" horiz-adv-x="450" 
d="M91 60q-49 70 -49 191t49 192t134 71t134 -71t49 -192t-49 -191t-134 -70t-134 70zM307 81.5q27 58.5 27 169.5t-27 170.5t-82 59.5t-82 -59.5t-27 -170.5t27 -169.5t82 -58.5t82 58.5z" />
    <glyph glyph-name="Oacute.aalt" horiz-adv-x="450" 
d="M91 60q-49 70 -49 191t49 192t134 71t134 -71t49 -192t-49 -191t-134 -70t-134 70zM307 81.5q27 58.5 27 169.5t-27 170.5t-82 59.5t-82 -59.5t-27 -170.5t27 -169.5t82 -58.5t82 58.5zM260 690q13 28 36 28q16 0 27 -11t11 -25t-12 -26l-92 -96h-33z" />
    <glyph glyph-name="Obreve.aalt" horiz-adv-x="450" 
d="M91 60q-49 70 -49 191t49 192t134 71t134 -71t49 -192t-49 -191t-134 -70t-134 70zM307 81.5q27 58.5 27 169.5t-27 170.5t-82 59.5t-82 -59.5t-27 -170.5t27 -169.5t82 -58.5t82 58.5zM281 636q23 18 28 56h31q-3 -65 -35 -97t-80 -32t-80 32t-35 97h31q5 -38 28 -56
t56 -18t56 18z" />
    <glyph glyph-name="uni01D1.aalt" horiz-adv-x="450" 
d="M91 60q-49 70 -49 191t49 192t134 71t134 -71t49 -192t-49 -191t-134 -70t-134 70zM307 81.5q27 58.5 27 169.5t-27 170.5t-82 59.5t-82 -59.5t-27 -170.5t27 -169.5t82 -58.5t82 58.5zM339 694l-95 -125h-38l-96 125h32l83 -68l82 68h32z" />
    <glyph glyph-name="Ocircumflex.aalt" horiz-adv-x="450" 
d="M91 60q-49 70 -49 191t49 192t134 71t134 -71t49 -192t-49 -191t-134 -70t-134 70zM307 81.5q27 58.5 27 169.5t-27 170.5t-82 59.5t-82 -59.5t-27 -170.5t27 -169.5t82 -58.5t82 58.5zM307 569l-82 68l-83 -68h-32l96 125h38l95 -125h-32z" />
    <glyph glyph-name="Odieresis.aalt" horiz-adv-x="450" 
d="M91 60q-49 70 -49 191t49 192t134 71t134 -71t49 -192t-49 -191t-134 -70t-134 70zM307 81.5q27 58.5 27 169.5t-27 170.5t-82 59.5t-82 -59.5t-27 -170.5t27 -169.5t82 -58.5t82 58.5zM118 598.5q-13 13.5 -13 33.5t13 33.5t33 13.5q21 0 34 -13t13 -34t-13 -34t-34 -13
q-20 0 -33 13.5zM265 598q-13 13 -13 34t13 34t34 13q20 0 33 -13.5t13 -33.5t-13 -33.5t-33 -13.5q-21 0 -34 13z" />
    <glyph glyph-name="OE.aalt" horiz-adv-x="630" 
d="M588 135v-135h-258v50q-35 -60 -106 -60q-85 0 -133.5 70t-48.5 191t49 192t133 71q70 0 106 -61v51h245v-129h-24q-5 40 -12 60.5t-18.5 28t-32.5 7.5h-88v-193h58q23 0 30 11.5t10 50.5h24v-157h-24q-2 38 -9.5 50t-30.5 12h-58v-185q0 -16 6.5 -21.5t24.5 -5.5h71
q20 0 31.5 8.5t18 29.5t12.5 64h24zM304.5 83q29.5 60 29.5 168t-29.5 169t-80.5 61q-55 0 -81.5 -59t-26.5 -171q0 -228 108 -228q51 0 80.5 60z" />
    <glyph glyph-name="Ograve.aalt" horiz-adv-x="450" 
d="M91 60q-49 70 -49 191t49 192t134 71t134 -71t49 -192t-49 -191t-134 -70t-134 70zM307 81.5q27 58.5 27 169.5t-27 170.5t-82 59.5t-82 -59.5t-27 -170.5t27 -169.5t82 -58.5t82 58.5zM220 560l-92 96q-12 12 -12 26t11 25t27 11q23 0 36 -28l63 -130h-33z" />
    <glyph glyph-name="Ohungarumlaut.aalt" horiz-adv-x="450" 
d="M91 60q-49 70 -49 191t49 192t134 71t134 -71t49 -192t-49 -191t-134 -70t-134 70zM307 81.5q27 58.5 27 169.5t-27 170.5t-82 59.5t-82 -59.5t-27 -170.5t27 -169.5t82 -58.5t82 58.5zM210 690q6 14 16.5 21.5t20.5 7.5q14 0 24 -10t10 -24q0 -11 -9 -22l-87 -103h-32z
M338 691q14 26 38 26q15 0 24 -10t9 -23t-10 -23l-96 -101h-32z" />
    <glyph glyph-name="Omacron.aalt" horiz-adv-x="450" 
d="M91 60q-49 70 -49 191t49 192t134 71t134 -71t49 -192t-49 -191t-134 -70t-134 70zM307 81.5q27 58.5 27 169.5t-27 170.5t-82 59.5t-82 -59.5t-27 -170.5t27 -169.5t82 -58.5t82 58.5zM341 624v-41h-232v41h232z" />
    <glyph glyph-name="Oslash.aalt" horiz-adv-x="452" 
d="M408 251q0 -121 -49 -191t-134 -70q-61 0 -106 39l-28 -46l-27 17l33 53q-55 69 -55 198q0 121 49 192t134 71q62 0 108 -41l24 42l28 -15l-29 -53q52 -72 52 -196zM143 421.5q-27 -59.5 -27 -170.5q0 -90 17 -142l172 316q-27 56 -80 56q-55 0 -82 -59.5zM307 81.5
q27 58.5 27 169.5q0 80 -14 134l-172 -313q28 -49 77 -49q55 0 82 58.5z" />
    <glyph glyph-name="Otilde.aalt" horiz-adv-x="450" 
d="M91 60q-49 70 -49 191t49 192t134 71t134 -71t49 -192t-49 -191t-134 -70t-134 70zM307 81.5q27 58.5 27 169.5t-27 170.5t-82 59.5t-82 -59.5t-27 -170.5t27 -169.5t82 -58.5t82 58.5zM308.5 628q7.5 12 13.5 43h30q-7 -108 -76 -108q-17 0 -33 9.5t-37 26.5
q-15 13 -25 19t-18 6q-15 0 -22.5 -12t-13.5 -43h-30q7 108 76 108q17 0 32.5 -8.5t34.5 -25.5q17 -14 27 -20.5t19 -6.5q15 0 22.5 12z" />
    <glyph glyph-name="P.aalt" horiz-adv-x="398" 
d="M33 24q26 3 37 8.5t15 20t4 45.5v308q0 31 -4 45.5t-15 20t-37 8.5v24h175q76 0 119 -37t43 -103t-42.5 -102.5t-119.5 -36.5h-49v-127q0 -32 4.5 -46t19 -19.5t48.5 -8.5v-24h-198v24zM270.5 285.5q25.5 27.5 25.5 78.5q0 52 -25.5 79.5t-74.5 27.5h-37v-213h37
q49 0 74.5 27.5z" />
    <glyph glyph-name="Q.aalt" horiz-adv-x="450" 
d="M283 -108q-17 10 -29 33l-12 24q-13 26 -23 34t-35 14q-71 18 -106.5 85t-35.5 170q0 80 22.5 139t63.5 91t96 32q86 0 135 -70.5t49 -191.5q0 -112 -43.5 -181t-123.5 -77q29 -8 43.5 -18t26.5 -26l13 -18q9 -13 19.5 -17t39.5 -5v-24q-21 -4 -51 -4q-32 0 -49 10z
M306 82q28 60 28 170q0 111 -27.5 170t-82.5 59q-52 0 -80 -60t-28 -169q0 -111 28 -170.5t81 -59.5t81 60z" />
    <glyph glyph-name="R.aalt" horiz-adv-x="432" 
d="M323.5 7.5q-21.5 14.5 -33.5 47.5l-39 109q-14 38 -33.5 55t-50.5 17h-10v-138q0 -31 4 -45.5t15 -20t37 -8.5v-24h-182v24q26 3 37 8.5t15 20t4 45.5v308q0 31 -4 45.5t-15 20t-37 8.5v24h175q70 0 110.5 -35t40.5 -94q0 -48 -32 -82.5t-85 -45.5q33 -11 53.5 -30
t33.5 -51l42 -107q10 -24 21 -30.5t42 -6.5v-24q-30 -5 -51 -5q-36 0 -57.5 14.5zM260.5 294.5q22.5 26.5 22.5 75.5t-22.5 75.5t-66.5 26.5h-37v-204h38q43 0 65.5 26.5z" />
    <glyph glyph-name="Racute.aalt" horiz-adv-x="432" 
d="M323.5 7.5q-21.5 14.5 -33.5 47.5l-39 109q-14 38 -33.5 55t-50.5 17h-10v-138q0 -31 4 -45.5t15 -20t37 -8.5v-24h-182v24q26 3 37 8.5t15 20t4 45.5v308q0 31 -4 45.5t-15 20t-37 8.5v24h175q70 0 110.5 -35t40.5 -94q0 -48 -32 -82.5t-85 -45.5q33 -11 53.5 -30
t33.5 -51l42 -107q10 -24 21 -30.5t42 -6.5v-24q-30 -5 -51 -5q-36 0 -57.5 14.5zM260.5 294.5q22.5 26.5 22.5 75.5t-22.5 75.5t-66.5 26.5h-37v-204h38q43 0 65.5 26.5zM232 690q13 28 36 28q16 0 27 -11t11 -25t-12 -26l-92 -96h-33z" />
    <glyph glyph-name="Rcaron.aalt" horiz-adv-x="432" 
d="M323.5 7.5q-21.5 14.5 -33.5 47.5l-39 109q-14 38 -33.5 55t-50.5 17h-10v-138q0 -31 4 -45.5t15 -20t37 -8.5v-24h-182v24q26 3 37 8.5t15 20t4 45.5v308q0 31 -4 45.5t-15 20t-37 8.5v24h175q70 0 110.5 -35t40.5 -94q0 -48 -32 -82.5t-85 -45.5q33 -11 53.5 -30
t33.5 -51l42 -107q10 -24 21 -30.5t42 -6.5v-24q-30 -5 -51 -5q-36 0 -57.5 14.5zM260.5 294.5q22.5 26.5 22.5 75.5t-22.5 75.5t-66.5 26.5h-37v-204h38q43 0 65.5 26.5zM311 694l-95 -125h-38l-96 125h32l83 -68l82 68h32z" />
    <glyph glyph-name="uni0156.aalt" horiz-adv-x="432" 
d="M323.5 7.5q-21.5 14.5 -33.5 47.5l-39 109q-14 38 -33.5 55t-50.5 17h-10v-138q0 -31 4 -45.5t15 -20t37 -8.5v-24h-182v24q26 3 37 8.5t15 20t4 45.5v308q0 31 -4 45.5t-15 20t-37 8.5v24h175q70 0 110.5 -35t40.5 -94q0 -48 -32 -82.5t-85 -45.5q33 -11 53.5 -30
t33.5 -51l42 -107q10 -24 21 -30.5t42 -6.5v-24q-30 -5 -51 -5q-36 0 -57.5 14.5zM260.5 294.5q22.5 26.5 22.5 75.5t-22.5 75.5t-66.5 26.5h-37v-204h38q43 0 65.5 26.5zM282.5 -50q14.5 -14 14.5 -39q0 -61 -61 -96l-15 20q22 12 33.5 28.5t11.5 29.5q-10 -5 -21 -5
q-17 0 -27.5 11t-10.5 25q0 17 12 28.5t31 11.5q18 0 32.5 -14z" />
    <glyph glyph-name="S.aalt" horiz-adv-x="371" 
d="M108.5 1.5q-37.5 11.5 -63.5 32.5v136h23q9 -80 36.5 -113.5t76.5 -33.5q43 0 67.5 22t24.5 62q0 35 -18.5 60t-61.5 49l-55 32q-47 28 -68.5 60.5t-21.5 75.5q0 58 37 94t95 36q34 0 65 -10.5t66 -34.5v-117h-22q-7 65 -34.5 97t-70.5 32q-34 0 -55.5 -22t-21.5 -59
q0 -28 16.5 -48t56.5 -43l66 -38q44 -25 67 -60.5t23 -78.5q0 -62 -43 -102t-109 -40q-38 0 -75.5 11.5z" />
    <glyph glyph-name="Sacute.aalt" horiz-adv-x="371" 
d="M108.5 1.5q-37.5 11.5 -63.5 32.5v136h23q9 -80 36.5 -113.5t76.5 -33.5q43 0 67.5 22t24.5 62q0 35 -18.5 60t-61.5 49l-55 32q-47 28 -68.5 60.5t-21.5 75.5q0 58 37 94t95 36q34 0 65 -10.5t66 -34.5v-117h-22q-7 65 -34.5 97t-70.5 32q-34 0 -55.5 -22t-21.5 -59
q0 -28 16.5 -48t56.5 -43l66 -38q44 -25 67 -60.5t23 -78.5q0 -62 -43 -102t-109 -40q-38 0 -75.5 11.5zM219 690q13 28 36 28q16 0 27 -11t11 -25t-12 -26l-92 -96h-33z" />
    <glyph glyph-name="Scaron.aalt" horiz-adv-x="371" 
d="M108.5 1.5q-37.5 11.5 -63.5 32.5v136h23q9 -80 36.5 -113.5t76.5 -33.5q43 0 67.5 22t24.5 62q0 35 -18.5 60t-61.5 49l-55 32q-47 28 -68.5 60.5t-21.5 75.5q0 58 37 94t95 36q34 0 65 -10.5t66 -34.5v-117h-22q-7 65 -34.5 97t-70.5 32q-34 0 -55.5 -22t-21.5 -59
q0 -28 16.5 -48t56.5 -43l66 -38q44 -25 67 -60.5t23 -78.5q0 -62 -43 -102t-109 -40q-38 0 -75.5 11.5zM298 694l-95 -125h-38l-96 125h32l83 -68l82 68h32z" />
    <glyph glyph-name="Scedilla.c2sc" horiz-adv-x="371" 
d="M108.5 1.5q-37.5 11.5 -63.5 32.5v136h23q9 -80 36.5 -113.5t76.5 -33.5q43 0 67.5 22t24.5 62q0 35 -18.5 60t-61.5 49l-55 32q-47 28 -68.5 60.5t-21.5 75.5q0 58 37 94t95 36q34 0 65 -10.5t66 -34.5v-117h-22q-7 65 -34.5 97t-70.5 32q-34 0 -55.5 -22t-21.5 -59
q0 -28 16.5 -48t56.5 -43l66 -38q44 -25 67 -60.5t23 -78.5q0 -62 -43 -102t-109 -40q-38 0 -75.5 11.5zM248.5 -72.5q18.5 -17.5 18.5 -46.5t-21.5 -47.5t-56.5 -18.5q-42 0 -66 33l17 16q19 -23 39 -23q18 0 28 10.5t10 28.5q0 17 -10 28t-26 11q-15 0 -26 -14l-18 10
l53 96l25 -1l-38 -70q7 5 23 5q30 0 48.5 -17.5z" />
    <glyph glyph-name="uni018F.aalt" horiz-adv-x="417" 
d="M98.5 476q39.5 38 98.5 38q88 0 131 -69t43 -189q0 -108 -40 -187t-132 -79q-75 0 -118 61t-43 167q0 16 1 30h259q0 233 -112 233q-40 0 -68.5 -30.5t-35.5 -83.5h-33q10 71 49.5 109zM135 68.5q23 -45.5 68 -45.5q41 0 65.5 48t29.5 144h-187q1 -101 24 -146.5z" />
    <glyph glyph-name="Scircumflex.aalt" horiz-adv-x="371" 
d="M108.5 1.5q-37.5 11.5 -63.5 32.5v136h23q9 -80 36.5 -113.5t76.5 -33.5q43 0 67.5 22t24.5 62q0 35 -18.5 60t-61.5 49l-55 32q-47 28 -68.5 60.5t-21.5 75.5q0 58 37 94t95 36q34 0 65 -10.5t66 -34.5v-117h-22q-7 65 -34.5 97t-70.5 32q-34 0 -55.5 -22t-21.5 -59
q0 -28 16.5 -48t56.5 -43l66 -38q44 -25 67 -60.5t23 -78.5q0 -62 -43 -102t-109 -40q-38 0 -75.5 11.5zM266 569l-82 68l-83 -68h-32l96 125h38l95 -125h-32z" />
    <glyph glyph-name="uni0218.aalt" horiz-adv-x="371" 
d="M108.5 1.5q-37.5 11.5 -63.5 32.5v136h23q9 -80 36.5 -113.5t76.5 -33.5q43 0 67.5 22t24.5 62q0 35 -18.5 60t-61.5 49l-55 32q-47 28 -68.5 60.5t-21.5 75.5q0 58 37 94t95 36q34 0 65 -10.5t66 -34.5v-117h-22q-7 65 -34.5 97t-70.5 32q-34 0 -55.5 -22t-21.5 -59
q0 -28 16.5 -48t56.5 -43l66 -38q44 -25 67 -60.5t23 -78.5q0 -62 -43 -102t-109 -40q-38 0 -75.5 11.5zM226.5 -50q14.5 -14 14.5 -39q0 -61 -61 -96l-15 20q22 12 33.5 28.5t11.5 29.5q-10 -5 -21 -5q-17 0 -27.5 11t-10.5 25q0 17 12 28.5t31 11.5q18 0 32.5 -14z" />
    <glyph glyph-name="T.aalt" horiz-adv-x="384" 
d="M95 24q29 3 41.5 8.5t16.5 19.5t4 46v375h-36q-24 0 -36 -8t-18.5 -29.5t-12.5 -68.5h-24v137h324v-137h-24q-6 47 -12.5 68.5t-18.5 29.5t-36 8h-36v-375q0 -32 4 -46t16.5 -19.5t41.5 -8.5v-24h-194v24z" />
    <glyph glyph-name="Tbar.aalt" horiz-adv-x="388" 
d="M356 504v-137h-24q-6 47 -12.5 68.5t-18.5 29.5t-36 8h-36v-193h68v-31h-68v-151q0 -32 4 -46t16.5 -19.5t41.5 -8.5v-24h-194v24q29 3 41.5 8.5t16.5 19.5t4 46v151h-82v31h82v193h-36q-24 0 -36 -8t-18.5 -29.5t-12.5 -68.5h-24v137h324z" />
    <glyph glyph-name="Tcaron.aalt" horiz-adv-x="384" 
d="M95 24q29 3 41.5 8.5t16.5 19.5t4 46v375h-36q-24 0 -36 -8t-18.5 -29.5t-12.5 -68.5h-24v137h324v-137h-24q-6 47 -12.5 68.5t-18.5 29.5t-36 8h-36v-375q0 -32 4 -46t16.5 -19.5t41.5 -8.5v-24h-194v24zM307 694l-95 -125h-38l-96 125h32l83 -68l82 68h32z" />
    <glyph glyph-name="uni0162.c2sc" horiz-adv-x="384" 
d="M95 24q29 3 41.5 8.5t16.5 19.5t4 46v375h-36q-24 0 -36 -8t-18.5 -29.5t-12.5 -68.5h-24v137h324v-137h-24q-6 47 -12.5 68.5t-18.5 29.5t-36 8h-36v-375q0 -32 4 -46t16.5 -19.5t41.5 -8.5v-24h-194v24zM246.5 -72.5q18.5 -17.5 18.5 -46.5t-21.5 -47.5t-56.5 -18.5
q-42 0 -66 33l17 16q19 -23 39 -23q18 0 28 10.5t10 28.5q0 17 -10 28t-26 11q-15 0 -26 -14l-18 10l53 96l25 -1l-38 -70q7 5 23 5q30 0 48.5 -17.5z" />
    <glyph glyph-name="uni021A.aalt" horiz-adv-x="384" 
d="M95 24q29 3 41.5 8.5t16.5 19.5t4 46v375h-36q-24 0 -36 -8t-18.5 -29.5t-12.5 -68.5h-24v137h324v-137h-24q-6 47 -12.5 68.5t-18.5 29.5t-36 8h-36v-375q0 -32 4 -46t16.5 -19.5t41.5 -8.5v-24h-194v24zM224.5 -50q14.5 -14 14.5 -39q0 -61 -61 -96l-15 20
q22 12 33.5 28.5t11.5 29.5q-10 -5 -21 -5q-17 0 -27.5 11t-10.5 25q0 17 12 28.5t31 11.5q18 0 32.5 -14z" />
    <glyph glyph-name="Thorn.aalt" horiz-adv-x="407" 
d="M163 115v-17q0 -31 4 -45.5t15 -20t37 -8.5v-24h-182v24q26 3 37 8.5t15 20t4 45.5v308q0 31 -4 45.5t-15 20t-37 8.5v24h182v-24q-26 -3 -37 -8.5t-15 -20t-4 -45.5v-12h49q76 0 119 -37t43 -103t-42.5 -102.5t-119.5 -36.5h-49zM163 361v-213h37q49 0 74.5 27.5
t25.5 78.5q0 52 -25.5 79.5t-74.5 27.5h-37z" />
    <glyph glyph-name="U.aalt" horiz-adv-x="468" 
d="M120.5 28.5q-40.5 38.5 -40.5 107.5v270q0 31 -4 45.5t-15 20t-37 8.5v24h182v-24q-26 -3 -37 -8.5t-15 -20t-4 -45.5v-262q0 -58 24 -89.5t71 -31.5q106 0 106 121v262q0 31 -4 45.5t-15 20t-37 8.5v24h145v-24q-26 -3 -37 -8.5t-15 -20t-4 -45.5v-267
q0 -72 -38.5 -110.5t-110.5 -38.5q-74 0 -114.5 38.5z" />
    <glyph glyph-name="Uacute.aalt" horiz-adv-x="468" 
d="M120.5 28.5q-40.5 38.5 -40.5 107.5v270q0 31 -4 45.5t-15 20t-37 8.5v24h182v-24q-26 -3 -37 -8.5t-15 -20t-4 -45.5v-262q0 -58 24 -89.5t71 -31.5q106 0 106 121v262q0 31 -4 45.5t-15 20t-37 8.5v24h145v-24q-26 -3 -37 -8.5t-15 -20t-4 -45.5v-267
q0 -72 -38.5 -110.5t-110.5 -38.5q-74 0 -114.5 38.5zM277 690q13 28 36 28q16 0 27 -11t11 -25t-12 -26l-92 -96h-33z" />
    <glyph glyph-name="Ubreve.aalt" horiz-adv-x="468" 
d="M120.5 28.5q-40.5 38.5 -40.5 107.5v270q0 31 -4 45.5t-15 20t-37 8.5v24h182v-24q-26 -3 -37 -8.5t-15 -20t-4 -45.5v-262q0 -58 24 -89.5t71 -31.5q106 0 106 121v262q0 31 -4 45.5t-15 20t-37 8.5v24h145v-24q-26 -3 -37 -8.5t-15 -20t-4 -45.5v-267
q0 -72 -38.5 -110.5t-110.5 -38.5q-74 0 -114.5 38.5zM298 636q23 18 28 56h31q-3 -65 -35 -97t-80 -32t-80 32t-35 97h31q5 -38 28 -56t56 -18t56 18z" />
    <glyph glyph-name="uni01D3.aalt" horiz-adv-x="468" 
d="M120.5 28.5q-40.5 38.5 -40.5 107.5v270q0 31 -4 45.5t-15 20t-37 8.5v24h182v-24q-26 -3 -37 -8.5t-15 -20t-4 -45.5v-262q0 -58 24 -89.5t71 -31.5q106 0 106 121v262q0 31 -4 45.5t-15 20t-37 8.5v24h145v-24q-26 -3 -37 -8.5t-15 -20t-4 -45.5v-267
q0 -72 -38.5 -110.5t-110.5 -38.5q-74 0 -114.5 38.5zM356 694l-95 -125h-38l-96 125h32l83 -68l82 68h32z" />
    <glyph glyph-name="Ucircumflex.aalt" horiz-adv-x="468" 
d="M120.5 28.5q-40.5 38.5 -40.5 107.5v270q0 31 -4 45.5t-15 20t-37 8.5v24h182v-24q-26 -3 -37 -8.5t-15 -20t-4 -45.5v-262q0 -58 24 -89.5t71 -31.5q106 0 106 121v262q0 31 -4 45.5t-15 20t-37 8.5v24h145v-24q-26 -3 -37 -8.5t-15 -20t-4 -45.5v-267
q0 -72 -38.5 -110.5t-110.5 -38.5q-74 0 -114.5 38.5zM324 569l-82 68l-83 -68h-32l96 125h38l95 -125h-32z" />
    </font>
</defs>
</svg>
