<?xml version="1.0" encoding="UTF-8" standalone="no" ?>
<!DOCTYPE svg PUBLIC "-//W3C//DTD SVG 1.1//EN" "http://www.w3.org/Graphics/SVG/1.1/DTD/svg11.dtd">
<svg xmlns="http://www.w3.org/2000/svg" xmlns:xlink="http://www.w3.org/1999/xlink" version="1.1" width="1080" height="1080" viewBox="0 0 1080 1080" xml:space="preserve">
<desc>Created with Fabric.js 5.2.4</desc>
<defs>
</defs>
<rect x="0" y="0" width="100%" height="100%" fill="transparent"></rect>
<g transform="matrix(1 0 0 1 540 540)" id="94c8f550-6cd7-4960-83f3-0bc0962de5ae"  >
</g>
<g transform="matrix(1 0 0 1 540 540)" id="02cc7b56-87df-4d73-9dde-81c12122d15a"  >
<rect style="stroke: none; stroke-width: 1; stroke-dasharray: none; stroke-linecap: butt; stroke-dashoffset: 0; stroke-linejoin: miter; stroke-miterlimit: 4; fill: rgb(255,255,255); fill-rule: nonzero; opacity: 1; visibility: hidden;" vector-effect="non-scaling-stroke"  x="-540" y="-540" rx="0" ry="0" width="1080" height="1080" />
</g>
<g transform="matrix(1 0 0 1 540 540)"  >
<g style="" vector-effect="non-scaling-stroke"   >
		<g transform="matrix(1 0 0 1 0 2)"  >
<path style="stroke: none; stroke-width: 1; stroke-dasharray: none; stroke-linecap: butt; stroke-dashoffset: 0; stroke-linejoin: miter; stroke-miterlimit: 4; fill: rgb(0,0,0); fill-rule: evenodd; opacity: 1;" vector-effect="non-scaling-stroke"  transform=" translate(-8, -10)" d="M 1.646 6.646 C 1.7398042630101669 6.551958299312365 1.8671727391417587 6.499106216314582 2 6.499106216314582 C 2.1328272608582415 6.499106216314582 2.260195736989833 6.551958299312365 2.354 6.646 L 8 12.293 L 13.646 6.645999999999999 C 13.841508801440101 6.450491198559898 14.1584911985599 6.450491198559898 14.354000000000001 6.645999999999999 C 14.549508801440101 6.8415088014401 14.549508801440101 7.158491198559898 14.354000000000001 7.353999999999999 L 8.354000000000001 13.354 C 8.260195736989834 13.448041700687634 8.132827260858242 13.500893783685418 8 13.500893783685418 C 7.867172739141759 13.500893783685418 7.739804263010168 13.448041700687634 7.646000000000001 13.354 L 1.6460000000000008 7.353999999999999 C 1.551958299312366 7.260195736989832 1.499106216314582 7.132827260858241 1.499106216314582 6.999999999999999 C 1.499106216314582 6.867172739141758 1.551958299312366 6.739804263010166 1.6460000000000008 6.645999999999999 z" stroke-linecap="round" />
</g>
		<g transform="matrix(1 0 0 1 0 -2)"  >
<path style="stroke: none; stroke-width: 1; stroke-dasharray: none; stroke-linecap: butt; stroke-dashoffset: 0; stroke-linejoin: miter; stroke-miterlimit: 4; fill: rgb(0,0,0); fill-rule: evenodd; opacity: 1;" vector-effect="non-scaling-stroke"  transform=" translate(-8, -6)" d="M 1.646 2.646 C 1.7398042630101669 2.551958299312365 1.8671727391417587 2.499106216314581 2 2.499106216314581 C 2.1328272608582415 2.499106216314581 2.260195736989833 2.551958299312365 2.354 2.646 L 8 8.293 L 13.646 2.645999999999999 C 13.841508801440101 2.450491198559898 14.1584911985599 2.4504911985598983 14.354000000000001 2.645999999999999 C 14.549508801440101 2.8415088014400998 14.549508801440101 3.158491198559898 14.354000000000001 3.353999999999999 L 8.354000000000001 9.354 C 8.260195736989834 9.448041700687634 8.132827260858242 9.500893783685418 8 9.500893783685418 C 7.867172739141759 9.500893783685418 7.739804263010168 9.448041700687634 7.646000000000001 9.354 L 1.6460000000000008 3.353999999999999 C 1.551958299312366 3.2601957369898322 1.499106216314582 3.1328272608582406 1.499106216314582 2.999999999999999 C 1.499106216314582 2.8671727391417576 1.551958299312366 2.739804263010166 1.6460000000000008 2.645999999999999 z" stroke-linecap="round" />
</g>
</g>
</g>
<g transform="matrix(34.24 0 0 34.24 231.88 358.58)"  >
<path style="stroke: none; stroke-width: 1; stroke-dasharray: none; stroke-linecap: butt; stroke-dashoffset: 0; stroke-linejoin: miter; stroke-miterlimit: 4; fill: rgb(0,0,0); fill-rule: evenodd; opacity: 1;" vector-effect="non-scaling-stroke"  transform=" translate(-8, -10)" d="M 1.646 6.646 C 1.7398042630101669 6.551958299312365 1.8671727391417587 6.499106216314582 2 6.499106216314582 C 2.1328272608582415 6.499106216314582 2.260195736989833 6.551958299312365 2.354 6.646 L 8 12.293 L 13.646 6.645999999999999 C 13.841508801440101 6.450491198559898 14.1584911985599 6.450491198559898 14.354000000000001 6.645999999999999 C 14.549508801440101 6.8415088014401 14.549508801440101 7.158491198559898 14.354000000000001 7.353999999999999 L 8.354000000000001 13.354 C 8.260195736989834 13.448041700687634 8.132827260858242 13.500893783685418 8 13.500893783685418 C 7.867172739141759 13.500893783685418 7.739804263010168 13.448041700687634 7.646000000000001 13.354 L 1.6460000000000008 7.353999999999999 C 1.551958299312366 7.260195736989832 1.499106216314582 7.132827260858241 1.499106216314582 6.999999999999999 C 1.499106216314582 6.867172739141758 1.551958299312366 6.739804263010166 1.6460000000000008 6.645999999999999 z" stroke-linecap="round" />
</g>
<g transform="matrix(34.24 0 0 34.24 231.88 137.48)"  >
<path style="stroke: none; stroke-width: 1; stroke-dasharray: none; stroke-linecap: butt; stroke-dashoffset: 0; stroke-linejoin: miter; stroke-miterlimit: 4; fill: rgb(0,0,0); fill-rule: evenodd; opacity: 1;" vector-effect="non-scaling-stroke"  transform=" translate(-8, -10)" d="M 1.646 6.646 C 1.7398042630101669 6.551958299312365 1.8671727391417587 6.499106216314582 2 6.499106216314582 C 2.1328272608582415 6.499106216314582 2.260195736989833 6.551958299312365 2.354 6.646 L 8 12.293 L 13.646 6.645999999999999 C 13.841508801440101 6.450491198559898 14.1584911985599 6.450491198559898 14.354000000000001 6.645999999999999 C 14.549508801440101 6.8415088014401 14.549508801440101 7.158491198559898 14.354000000000001 7.353999999999999 L 8.354000000000001 13.354 C 8.260195736989834 13.448041700687634 8.132827260858242 13.500893783685418 8 13.500893783685418 C 7.867172739141759 13.500893783685418 7.739804263010168 13.448041700687634 7.646000000000001 13.354 L 1.6460000000000008 7.353999999999999 C 1.551958299312366 7.260195736989832 1.499106216314582 7.132827260858241 1.499106216314582 6.999999999999999 C 1.499106216314582 6.867172739141758 1.551958299312366 6.739804263010166 1.6460000000000008 6.645999999999999 z" stroke-linecap="round" />
</g>
</svg>